<?xml version="1.0" encoding="UTF-8" ?>
<!DOCTYPE svg PUBLIC "-//W3C//DTD SVG 1.1//EN" "http://www.w3.org/Graphics/SVG/1.1/DTD/svg11.dtd">
<svg width="256pt" height="256pt" viewBox="0 0 256 256" version="1.1" xmlns="http://www.w3.org/2000/svg">
<g id="#ffffffff">
<path fill="#ffffff" opacity="1.00" d=" M 23.79 74.79 C 29.06 66.36 38.09 60.23 47.99 59.00 C 74.00 58.98 100.01 59.04 126.03 58.97 C 136.34 59.04 146.90 62.31 154.41 69.63 C 163.39 77.36 167.68 89.25 167.93 100.86 C 166.95 104.76 167.22 108.89 165.67 112.66 C 163.54 119.68 159.14 125.86 153.71 130.73 C 143.27 139.82 128.36 142.40 115.17 138.84 C 106.60 136.64 99.26 131.00 93.98 124.02 C 91.60 120.68 90.07 116.76 87.27 113.73 C 81.47 108.48 72.74 106.06 65.37 109.36 C 59.19 111.48 55.11 117.17 53.09 123.16 C 52.92 128.30 52.17 134.09 55.56 138.44 C 58.40 142.23 61.71 146.37 66.60 147.39 C 70.00 148.16 73.44 149.10 76.96 149.02 C 101.24 148.97 125.51 149.01 149.79 149.00 C 157.28 136.67 164.17 123.97 171.56 111.58 C 175.02 105.32 178.57 98.80 184.19 94.19 C 191.06 87.45 200.61 84.15 210.01 83.00 C 218.16 82.76 226.45 84.49 233.69 88.30 C 240.92 91.67 246.31 97.82 250.63 104.38 C 253.21 108.53 254.01 113.44 256.00 117.86 L 256.00 135.18 C 253.72 141.18 251.62 147.45 247.45 152.45 C 240.65 161.97 229.41 167.50 217.99 168.99 C 199.47 169.02 180.94 168.99 162.42 169.00 C 159.32 174.90 156.10 180.77 152.19 186.18 C 146.86 192.35 139.03 196.07 131.00 196.99 C 105.99 197.02 80.98 196.98 55.97 197.01 C 47.45 196.53 38.88 193.27 32.74 187.25 C 25.51 178.02 19.14 168.14 12.58 158.43 C 9.65 154.89 7.42 150.87 5.03 146.97 C 2.67 142.99 1.91 138.34 0.00 134.15 L 0.00 120.86 C 1.94 112.46 5.76 104.61 10.31 97.32 C 14.80 89.81 19.34 82.32 23.79 74.79 M 38.07 71.38 C 38.27 72.61 38.27 74.95 40.02 74.83 C 42.14 74.03 44.02 72.68 46.19 71.99 C 50.00 71.14 53.93 71.62 57.76 70.98 C 57.73 69.77 57.70 68.55 57.68 67.33 C 50.88 66.73 43.93 67.70 38.07 71.38 M 77.69 67.16 C 77.60 68.56 76.46 71.37 78.86 71.42 C 85.16 71.36 91.51 71.79 97.79 71.14 C 97.77 69.84 97.76 68.55 97.75 67.26 C 91.06 67.18 84.38 67.34 77.69 67.16 M 117.81 67.21 C 117.55 68.75 116.68 70.85 118.87 71.38 C 124.87 71.43 131.01 71.09 136.81 72.94 C 137.23 71.72 137.63 70.50 138.02 69.27 C 131.49 67.08 124.60 67.19 117.81 67.21 M 44.96 81.98 C 42.13 83.23 41.55 86.55 39.81 88.80 C 34.82 97.15 29.81 105.48 24.81 113.82 C 22.84 118.26 20.27 122.73 20.41 127.69 C 21.31 131.71 22.39 135.79 24.78 139.22 C 31.38 149.25 38.54 158.89 44.99 169.03 C 47.05 172.41 50.44 174.71 54.15 175.96 C 79.42 176.05 104.70 175.97 129.97 176.01 C 133.89 175.77 136.56 172.27 138.15 169.00 C 114.76 169.00 91.37 169.00 67.98 169.00 C 57.26 167.73 47.12 162.11 40.38 153.64 C 37.03 148.62 34.06 143.17 32.78 137.22 C 31.31 132.62 32.24 127.72 32.00 122.98 C 32.67 116.48 35.40 110.32 38.80 104.80 C 41.60 102.22 43.04 98.36 46.58 96.57 C 52.25 91.75 59.29 88.27 66.79 87.82 C 73.85 85.71 81.35 87.58 88.15 89.85 C 93.35 91.41 97.41 95.17 101.74 98.26 C 106.56 102.69 108.99 108.99 112.80 114.20 C 117.94 118.05 124.75 121.46 131.23 119.23 C 141.77 117.05 149.51 105.07 146.43 94.59 C 144.30 87.11 137.63 81.19 129.95 80.02 C 103.31 79.97 76.67 80.02 50.03 79.99 C 48.16 79.99 46.61 81.28 44.96 81.98 M 152.19 83.38 C 151.88 86.66 153.71 89.49 154.55 92.54 C 155.66 95.74 155.22 99.17 155.46 102.48 C 156.64 102.59 157.81 102.70 158.99 102.81 C 159.97 96.07 158.12 89.03 154.78 83.14 C 154.13 83.20 152.84 83.32 152.19 83.38 M 24.51 90.31 C 22.14 94.61 19.51 98.74 16.99 102.95 C 16.20 104.11 16.31 105.58 16.08 106.90 C 19.70 107.56 20.71 103.68 22.28 101.32 C 24.15 97.61 27.28 94.41 27.99 90.21 C 26.83 90.24 25.67 90.28 24.51 90.31 M 207.20 92.14 C 207.56 93.35 207.92 94.55 208.27 95.77 C 214.51 94.90 220.68 96.02 226.60 97.96 C 227.08 96.90 227.57 95.84 228.08 94.80 C 221.60 91.99 214.18 90.28 207.20 92.14 M 64.03 96.55 C 64.38 97.65 64.73 98.74 65.11 99.83 C 71.36 99.39 77.65 99.41 83.76 100.95 C 84.14 99.81 84.52 98.68 84.88 97.54 C 78.09 95.54 70.97 94.93 64.03 96.55 M 180.42 113.39 C 179.57 115.08 178.03 116.63 178.22 118.66 C 178.99 119.26 179.84 119.72 180.78 120.05 C 183.86 115.09 186.45 109.80 190.23 105.30 C 191.71 103.97 189.98 102.68 189.04 101.75 C 185.21 104.85 182.80 109.16 180.42 113.39 M 196.38 111.37 C 189.99 120.59 185.08 130.68 179.19 140.19 C 177.18 143.01 176.23 146.47 173.81 149.00 C 186.21 149.00 198.61 149.00 211.01 149.00 C 212.47 149.09 213.83 148.54 215.21 148.17 C 220.50 148.34 225.00 145.04 229.18 142.18 C 230.70 139.71 233.11 137.78 233.92 134.91 C 234.72 132.28 235.45 129.61 236.03 126.93 C 235.06 119.32 232.14 110.82 224.69 107.30 C 220.51 104.19 215.11 103.65 210.04 104.01 C 204.80 104.80 200.19 107.87 196.38 111.37 M 46.35 109.26 C 42.41 114.57 40.38 121.20 40.16 127.78 C 41.33 127.78 42.50 127.79 43.68 127.81 C 44.29 122.72 45.44 117.64 48.13 113.20 C 49.46 111.69 48.82 108.45 46.35 109.26 M 241.04 110.20 C 241.66 115.91 244.99 121.12 244.33 127.02 C 244.67 133.41 241.10 138.87 239.05 144.61 C 239.98 145.02 240.90 145.44 241.82 145.86 C 249.11 135.65 249.95 121.13 243.82 110.18 C 243.13 110.19 241.73 110.20 241.04 110.20 M 98.17 113.18 C 99.33 118.43 103.65 122.07 107.39 125.60 C 108.71 127.20 110.96 126.59 112.76 126.80 C 112.75 126.22 112.72 125.05 112.71 124.47 C 107.54 121.90 103.61 117.38 101.45 112.07 C 100.39 112.45 98.75 111.98 98.17 113.18 M 145.98 120.91 C 142.22 124.42 137.47 126.87 132.35 127.62 C 132.28 128.70 132.21 129.78 132.14 130.86 C 138.85 131.10 145.00 127.12 149.64 122.61 C 150.70 120.38 147.23 119.37 145.98 120.91 M 8.24 125.22 C 7.54 132.23 10.58 138.74 13.53 144.89 C 14.92 144.88 17.68 144.29 16.55 142.33 C 14.11 137.27 11.72 131.95 11.63 126.23 C 10.50 125.90 9.37 125.56 8.24 125.22 M 166.52 137.27 C 164.01 142.94 159.48 147.73 158.00 153.80 C 159.17 153.77 160.35 153.75 161.52 153.74 C 164.11 148.11 168.57 143.28 170.01 137.20 C 168.85 137.22 167.68 137.25 166.52 137.27 M 48.85 150.07 C 53.03 154.37 58.34 158.81 64.64 158.82 C 64.68 158.15 64.76 156.81 64.80 156.14 C 58.99 154.05 53.93 150.51 49.94 145.81 C 48.51 146.68 47.41 148.68 48.85 150.07 M 204.78 157.21 C 204.79 158.38 204.83 159.56 204.87 160.74 C 211.61 160.69 218.53 161.25 224.96 158.75 C 224.59 157.57 224.21 156.38 223.84 155.20 C 217.66 157.10 211.20 157.56 204.78 157.21 M 84.80 157.26 C 84.81 158.40 84.84 159.54 84.88 160.69 C 91.46 160.59 98.05 160.61 104.63 160.67 C 104.62 159.54 104.63 158.42 104.65 157.29 C 98.03 157.31 91.42 157.36 84.80 157.26 M 124.84 157.28 C 124.86 158.40 124.89 159.53 124.94 160.66 C 131.50 160.61 138.07 160.60 144.64 160.67 C 144.62 159.54 144.63 158.41 144.65 157.29 C 138.04 157.32 131.44 157.34 124.84 157.28 M 164.95 157.30 C 164.97 158.42 165.00 159.54 165.04 160.67 C 171.58 160.62 178.13 160.59 184.67 160.68 C 184.66 159.54 184.67 158.41 184.69 157.28 C 178.11 157.34 171.53 157.31 164.95 157.30 M 26.07 161.28 C 26.23 162.78 26.68 164.23 27.64 165.43 C 30.60 169.49 33.30 173.75 36.28 177.80 C 36.92 177.76 38.20 177.69 38.84 177.65 C 38.80 176.60 38.68 175.57 38.47 174.55 C 35.55 170.09 32.37 165.80 29.59 161.25 C 28.42 161.25 27.24 161.26 26.07 161.28 M 146.83 171.82 C 145.04 174.08 144.10 176.96 141.93 178.94 C 140.04 180.96 137.45 182.07 135.05 183.35 C 135.41 184.58 135.16 186.73 136.96 186.79 C 143.08 184.04 148.39 178.82 150.05 172.20 C 149.07 171.87 147.62 170.39 146.83 171.82 M 55.25 185.05 C 55.30 186.23 55.36 187.42 55.42 188.60 C 62.16 188.94 68.93 188.73 75.68 188.72 C 75.69 187.48 75.70 186.24 75.72 185.00 C 68.95 184.38 62.00 184.29 55.25 185.05 M 95.26 185.01 C 95.28 186.24 95.30 187.47 95.31 188.71 C 102.11 188.79 108.91 188.79 115.71 188.71 C 115.72 187.47 115.74 186.23 115.77 184.99 C 108.97 184.42 102.05 184.39 95.26 185.01 Z" />
</g>
<g id="#020202ff">
<path fill="#020202" opacity="1.00" d=" M 38.07 71.38 C 43.93 67.70 50.88 66.73 57.68 67.33 C 57.70 68.55 57.73 69.77 57.76 70.98 C 53.93 71.62 50.00 71.14 46.19 71.99 C 44.02 72.68 42.14 74.03 40.02 74.83 C 38.27 74.95 38.27 72.61 38.07 71.38 Z" />
<path fill="#020202" opacity="1.00" d=" M 77.69 67.16 C 84.38 67.34 91.06 67.18 97.75 67.26 C 97.76 68.55 97.77 69.84 97.79 71.14 C 91.51 71.79 85.16 71.36 78.86 71.42 C 76.46 71.37 77.60 68.56 77.69 67.16 Z" />
<path fill="#020202" opacity="1.00" d=" M 117.81 67.21 C 124.60 67.19 131.49 67.08 138.02 69.27 C 137.63 70.50 137.23 71.72 136.81 72.94 C 131.01 71.09 124.87 71.43 118.87 71.38 C 116.68 70.85 117.55 68.75 117.81 67.21 Z" />
<path fill="#020202" opacity="1.00" d=" M 152.19 83.38 C 152.84 83.32 154.13 83.20 154.78 83.14 C 158.12 89.03 159.97 96.07 158.99 102.81 C 157.81 102.70 156.64 102.59 155.46 102.48 C 155.22 99.17 155.66 95.74 154.55 92.54 C 153.71 89.49 151.88 86.66 152.19 83.38 Z" />
<path fill="#020202" opacity="1.00" d=" M 24.51 90.31 C 25.67 90.28 26.83 90.24 27.99 90.21 C 27.28 94.41 24.15 97.61 22.28 101.32 C 20.71 103.68 19.70 107.56 16.08 106.90 C 16.31 105.58 16.20 104.11 16.99 102.95 C 19.51 98.74 22.14 94.61 24.51 90.31 Z" />
<path fill="#020202" opacity="1.00" d=" M 207.20 92.14 C 214.18 90.28 221.60 91.99 228.08 94.80 C 227.57 95.84 227.08 96.90 226.60 97.96 C 220.68 96.02 214.51 94.90 208.27 95.77 C 207.92 94.55 207.56 93.35 207.20 92.14 Z" />
<path fill="#020202" opacity="1.00" d=" M 64.03 96.55 C 70.97 94.93 78.09 95.54 84.88 97.54 C 84.52 98.68 84.14 99.81 83.76 100.95 C 77.65 99.41 71.36 99.39 65.11 99.83 C 64.73 98.74 64.38 97.65 64.03 96.55 Z" />
<path fill="#020202" opacity="1.00" d=" M 180.42 113.39 C 182.80 109.16 185.21 104.85 189.04 101.75 C 189.98 102.68 191.71 103.97 190.23 105.30 C 186.45 109.80 183.86 115.09 180.78 120.05 C 179.84 119.72 178.99 119.26 178.22 118.66 C 178.03 116.63 179.57 115.08 180.42 113.39 Z" />
<path fill="#020202" opacity="1.00" d=" M 46.35 109.26 C 48.82 108.45 49.46 111.69 48.13 113.20 C 45.44 117.64 44.29 122.72 43.68 127.81 C 42.50 127.79 41.33 127.78 40.16 127.78 C 40.38 121.20 42.41 114.57 46.35 109.26 Z" />
<path fill="#020202" opacity="1.00" d=" M 241.04 110.20 C 241.73 110.20 243.13 110.19 243.82 110.18 C 249.95 121.13 249.11 135.65 241.82 145.86 C 240.90 145.44 239.98 145.02 239.05 144.61 C 241.10 138.87 244.67 133.41 244.33 127.02 C 244.99 121.12 241.66 115.91 241.04 110.20 Z" />
<path fill="#020202" opacity="1.00" d=" M 98.17 113.18 C 98.75 111.98 100.39 112.45 101.45 112.07 C 103.61 117.38 107.54 121.90 112.71 124.47 C 112.72 125.05 112.75 126.22 112.76 126.80 C 110.96 126.59 108.71 127.20 107.39 125.60 C 103.65 122.07 99.33 118.43 98.17 113.18 Z" />
<path fill="#020202" opacity="1.00" d=" M 145.98 120.91 C 147.23 119.37 150.70 120.38 149.64 122.61 C 145.00 127.12 138.85 131.10 132.14 130.86 C 132.21 129.78 132.28 128.70 132.35 127.62 C 137.47 126.87 142.22 124.42 145.98 120.91 Z" />
<path fill="#020202" opacity="1.00" d=" M 8.24 125.22 C 9.37 125.56 10.50 125.90 11.63 126.23 C 11.72 131.95 14.11 137.27 16.55 142.33 C 17.68 144.29 14.92 144.88 13.53 144.89 C 10.58 138.74 7.54 132.23 8.24 125.22 Z" />
<path fill="#020202" opacity="1.00" d=" M 166.52 137.27 C 167.68 137.25 168.85 137.22 170.01 137.20 C 168.57 143.28 164.11 148.11 161.52 153.74 C 160.35 153.75 159.17 153.77 158.00 153.80 C 159.48 147.73 164.01 142.94 166.52 137.27 Z" />
<path fill="#020202" opacity="1.00" d=" M 48.85 150.07 C 47.41 148.68 48.51 146.68 49.94 145.81 C 53.93 150.51 58.99 154.05 64.80 156.14 C 64.76 156.81 64.68 158.15 64.64 158.82 C 58.34 158.81 53.03 154.37 48.85 150.07 Z" />
<path fill="#020202" opacity="1.00" d=" M 204.78 157.21 C 211.20 157.56 217.66 157.10 223.84 155.20 C 224.21 156.38 224.59 157.57 224.96 158.75 C 218.53 161.25 211.61 160.69 204.87 160.74 C 204.83 159.56 204.79 158.38 204.78 157.21 Z" />
<path fill="#020202" opacity="1.00" d=" M 84.80 157.26 C 91.42 157.36 98.03 157.31 104.65 157.29 C 104.63 158.42 104.62 159.54 104.63 160.67 C 98.05 160.61 91.46 160.59 84.88 160.69 C 84.84 159.54 84.81 158.40 84.80 157.26 Z" />
<path fill="#020202" opacity="1.00" d=" M 124.84 157.28 C 131.44 157.34 138.04 157.32 144.65 157.29 C 144.63 158.41 144.62 159.54 144.64 160.67 C 138.07 160.60 131.50 160.61 124.94 160.66 C 124.89 159.53 124.86 158.40 124.84 157.28 Z" />
<path fill="#020202" opacity="1.00" d=" M 164.95 157.30 C 171.53 157.31 178.11 157.34 184.69 157.28 C 184.67 158.41 184.66 159.54 184.67 160.68 C 178.13 160.59 171.58 160.62 165.04 160.67 C 165.00 159.54 164.97 158.42 164.95 157.30 Z" />
<path fill="#020202" opacity="1.00" d=" M 26.07 161.28 C 27.24 161.26 28.42 161.25 29.59 161.25 C 32.37 165.80 35.55 170.09 38.47 174.55 C 38.68 175.57 38.80 176.60 38.84 177.65 C 38.20 177.69 36.92 177.76 36.28 177.80 C 33.30 173.75 30.60 169.49 27.64 165.43 C 26.68 164.23 26.23 162.78 26.07 161.28 Z" />
<path fill="#020202" opacity="1.00" d=" M 146.83 171.82 C 147.62 170.39 149.07 171.87 150.05 172.20 C 148.39 178.82 143.08 184.04 136.96 186.79 C 135.16 186.73 135.41 184.58 135.05 183.35 C 137.45 182.07 140.04 180.96 141.93 178.94 C 144.10 176.96 145.04 174.08 146.83 171.82 Z" />
<path fill="#020202" opacity="1.00" d=" M 55.25 185.05 C 62.00 184.29 68.95 184.38 75.72 185.00 C 75.70 186.24 75.69 187.48 75.68 188.72 C 68.93 188.73 62.16 188.94 55.42 188.60 C 55.36 187.42 55.30 186.23 55.25 185.05 Z" />
<path fill="#020202" opacity="1.00" d=" M 95.26 185.01 C 102.05 184.39 108.97 184.42 115.77 184.99 C 115.74 186.23 115.72 187.47 115.71 188.71 C 108.91 188.79 102.11 188.79 95.31 188.71 C 95.30 187.47 95.28 186.24 95.26 185.01 Z" />
</g>
</svg>
