<?xml version="1.0" encoding="UTF-8" ?>
<!DOCTYPE svg PUBLIC "-//W3C//DTD SVG 1.1//EN" "http://www.w3.org/Graphics/SVG/1.1/DTD/svg11.dtd">
<svg width="800pt" height="800pt" viewBox="0 0 800 800" version="1.1" xmlns="http://www.w3.org/2000/svg">
<g id="#ffffffff">
<path fill="#ffffff" opacity="1.00" d=" M 180.01 30.01 C 315.34 29.99 450.66 29.99 585.99 30.01 C 586.01 143.34 586.01 256.66 585.99 369.99 C 549.33 370.01 512.67 370.01 476.01 369.99 C 476.03 353.66 475.97 337.33 475.99 321.00 C 459.00 321.03 442.00 320.97 425.01 320.99 C 424.99 274.66 424.99 228.33 425.01 182.00 C 442.00 182.03 459.00 181.97 475.99 181.99 C 476.01 166.33 476.01 150.67 475.99 135.01 C 429.33 134.99 382.67 134.99 336.01 135.01 C 335.97 213.34 336.02 291.66 335.99 369.99 C 284.00 370.01 232.00 370.01 180.01 369.99 C 179.99 256.66 179.99 143.34 180.01 30.01 Z" />
<path fill="#ffffff" opacity="1.00" d=" M 350.01 142.01 C 370.00 141.97 389.99 141.98 409.99 142.02 C 410.01 353.01 410.00 564.00 409.99 774.99 C 390.00 775.02 370.00 775.01 350.01 774.98 C 349.99 563.99 350.00 353.00 350.01 142.01 Z" />
</g>
</svg>
