<?xml version="1.0" encoding="UTF-8" ?>
<!DOCTYPE svg PUBLIC "-//W3C//DTD SVG 1.1//EN" "http://www.w3.org/Graphics/SVG/1.1/DTD/svg11.dtd">
<svg width="100pt" height="100pt" viewBox="0 0 100 100" version="1.1" xmlns="http://www.w3.org/2000/svg">
<g id="#ffffffff">
<path fill="#ffffff" opacity="1.00" d=" M 18.30 0.00 L 59.75 0.00 C 65.41 0.20 70.22 5.23 69.97 10.92 C 70.06 23.96 69.96 37.00 70.01 50.04 C 74.47 51.17 78.62 54.44 79.60 59.11 C 80.79 64.51 79.02 70.24 80.75 75.54 C 83.35 81.68 93.50 81.31 95.48 74.89 C 96.61 68.97 95.72 62.87 96.00 56.87 C 92.75 53.51 89.27 50.36 86.14 46.89 C 84.66 45.33 84.05 43.19 84.03 41.08 C 83.91 35.68 84.04 30.28 84.01 24.88 C 80.22 21.09 76.43 17.30 72.64 13.52 C 73.57 12.53 74.53 11.58 75.51 10.65 C 82.66 17.80 89.82 24.94 96.96 32.09 C 98.58 33.64 99.60 35.65 100.00 37.84 L 100.00 72.58 C 99.74 79.14 93.50 84.72 86.92 83.91 C 81.71 83.55 76.99 79.28 76.25 74.09 C 75.57 69.48 76.42 64.79 75.79 60.19 C 75.28 57.15 72.65 55.30 70.05 54.09 C 69.94 65.30 70.03 76.52 70.00 87.73 C 71.36 88.39 73.99 87.72 73.87 89.95 C 73.61 93.13 75.51 98.02 72.23 100.00 L 6.09 100.00 C 5.59 99.82 4.59 99.45 4.09 99.27 C 3.99 96.16 3.88 93.03 4.09 89.93 C 3.95 87.75 6.62 88.21 8.00 87.79 C 8.01 62.16 7.98 36.54 8.01 10.91 C 7.79 5.22 12.63 0.17 18.30 0.00 M 12.01 10.93 C 11.98 36.62 12.01 62.31 12.00 88.00 C 30.00 88.00 48.00 88.00 66.00 88.00 C 65.99 62.30 66.02 36.60 65.99 10.90 C 66.30 7.09 62.86 3.68 59.06 4.01 C 45.69 3.99 32.32 3.99 18.95 4.01 C 15.13 3.68 11.68 7.11 12.01 10.93 M 88.01 28.87 C 88.07 33.30 87.85 37.73 88.09 42.15 C 89.64 45.89 93.43 48.09 95.99 51.13 C 95.81 46.50 96.40 41.79 95.71 37.22 C 93.78 33.93 90.52 31.70 88.01 28.87 M 8.00 92.00 C 7.99 93.33 7.99 94.67 8.00 96.00 C 28.67 96.00 49.33 96.00 70.00 96.00 C 70.01 94.67 70.01 93.33 70.00 92.00 C 49.33 92.00 28.67 92.00 8.00 92.00 Z" />
<path fill="#ffffff" opacity="1.00" d=" M 20.12 8.23 C 32.07 7.70 44.08 8.13 56.06 8.01 C 59.23 7.82 62.11 10.69 61.98 13.87 C 62.02 20.62 62.02 27.37 61.98 34.12 C 62.12 37.30 59.28 40.13 56.10 39.98 C 44.66 40.01 33.22 40.02 21.78 39.98 C 18.64 40.07 15.82 37.20 16.01 34.05 C 15.99 27.33 15.98 20.61 16.01 13.89 C 15.89 11.35 17.72 8.97 20.12 8.23 M 21.23 12.10 C 20.95 12.39 20.38 12.97 20.10 13.26 C 19.93 20.41 19.93 27.60 20.10 34.75 C 21.06 36.59 23.26 35.86 24.92 36.02 C 35.54 35.90 46.16 36.15 56.77 35.90 C 57.05 35.61 57.62 35.03 57.90 34.74 C 58.11 27.82 57.99 20.88 57.97 13.96 C 58.05 12.50 56.38 11.73 55.11 12.00 C 43.82 12.07 32.52 11.86 21.23 12.10 Z" />
</g>
</svg>
