<?xml version="1.0" encoding="UTF-8" ?>
<!DOCTYPE svg PUBLIC "-//W3C//DTD SVG 1.1//EN" "http://www.w3.org/Graphics/SVG/1.1/DTD/svg11.dtd">
<svg width="724pt" height="994pt" viewBox="0 0 724 994" version="1.1" xmlns="http://www.w3.org/2000/svg">
<g id="#ffffffff">
<path fill="#ffffff" opacity="1.00" d=" M 0.00 0.00 L 724.00 0.00 L 724.00 994.00 L 0.00 994.00 L 0.00 0.00 M 1.58 1.53 C 1.32 20.33 2.03 39.17 1.27 57.96 C 2.78 60.36 6.42 59.04 8.85 59.46 C 16.51 60.48 24.27 60.24 31.95 60.97 C 48.96 61.63 65.93 62.67 82.98 62.43 C 90.28 63.40 97.67 62.86 105.02 63.02 C 109.08 63.26 113.07 62.05 117.13 62.59 C 121.02 62.28 124.88 61.49 128.76 61.05 C 133.77 60.51 138.36 58.05 143.37 57.56 C 141.87 54.24 139.33 51.52 137.90 48.17 C 137.34 46.52 135.65 45.72 134.69 44.35 C 127.96 35.07 121.65 25.49 114.68 16.38 C 111.45 11.19 106.92 6.94 103.90 1.61 C 69.80 1.52 35.68 1.73 1.58 1.53 M 175.03 1.65 C 174.61 5.18 173.45 8.56 172.73 12.03 C 170.90 23.25 170.40 34.65 170.59 46.01 C 178.92 60.28 186.95 74.71 194.38 89.47 C 197.81 96.86 202.37 103.67 205.49 111.20 C 213.57 124.44 220.74 138.33 230.56 150.42 C 235.04 155.01 239.50 159.68 244.11 164.05 C 248.25 166.55 252.06 169.70 255.30 173.33 C 257.13 174.19 258.73 175.39 260.11 176.88 C 265.71 169.85 268.83 161.29 273.78 153.80 C 275.20 151.03 276.49 148.20 278.34 145.67 C 284.52 129.72 291.20 113.43 291.89 96.11 C 290.71 83.66 282.86 73.42 277.69 62.45 C 273.01 56.38 268.89 49.91 264.21 43.85 C 261.12 39.30 257.28 35.35 254.37 30.67 C 246.33 21.41 239.73 11.03 231.86 1.64 C 212.93 1.52 193.97 1.66 175.03 1.65 M 138.63 1.70 C 141.90 8.08 147.51 12.74 151.17 18.84 C 153.49 20.86 154.78 24.48 157.90 25.23 C 159.50 17.34 161.51 9.51 162.64 1.53 C 154.64 1.77 146.63 1.42 138.63 1.70 M 291.71 1.95 C 298.59 10.70 303.98 20.49 310.26 29.67 C 315.58 38.25 321.11 46.80 324.63 56.31 C 328.11 64.04 329.14 72.57 329.87 80.93 C 329.96 92.88 327.57 104.76 324.07 116.16 C 323.30 118.96 322.15 121.86 323.03 124.79 C 325.08 132.42 326.56 140.22 329.24 147.67 C 330.67 152.32 333.26 156.92 337.47 159.59 C 345.20 165.45 354.70 168.13 363.32 172.31 C 362.85 172.62 361.91 173.22 361.43 173.53 C 352.17 173.27 342.98 171.81 333.89 170.05 C 324.74 168.75 315.89 166.00 307.26 162.78 C 301.65 177.11 295.29 191.13 288.78 205.06 C 292.32 210.81 296.73 215.99 300.12 221.85 C 307.25 233.71 315.74 244.78 321.63 257.35 C 327.53 268.61 330.11 281.44 329.84 294.08 C 328.94 305.34 326.72 316.52 323.01 327.20 C 322.53 329.33 322.74 331.56 323.27 333.66 C 325.49 342.28 327.24 351.08 330.62 359.35 C 331.94 361.91 333.53 364.38 335.68 366.34 C 343.72 373.10 354.23 375.50 363.33 380.35 C 359.83 382.34 355.73 380.60 351.95 380.88 C 339.13 379.10 326.21 377.20 313.89 373.05 C 311.68 372.36 309.67 371.08 307.34 370.80 C 299.50 389.88 291.18 408.77 281.68 427.09 C 291.46 437.71 299.29 449.92 306.72 462.24 C 314.69 474.09 322.52 486.30 326.89 499.99 C 329.05 509.51 330.99 519.44 329.16 529.19 C 328.50 538.75 325.90 548.08 323.01 557.19 C 322.10 560.73 323.54 564.22 324.30 567.64 C 326.57 576.77 328.41 586.29 333.68 594.27 C 339.65 600.32 347.82 603.37 355.53 606.56 C 358.27 607.76 361.45 608.39 363.34 610.94 C 356.65 611.42 350.03 610.53 343.45 609.50 C 331.36 607.57 318.94 605.65 307.79 600.33 C 305.47 604.16 304.19 608.46 302.42 612.54 C 298.15 622.46 293.89 632.39 288.92 641.98 C 288.25 643.35 287.06 645.03 288.42 646.42 C 298.03 659.10 306.05 672.90 314.71 686.24 C 323.79 700.13 330.04 716.25 329.89 733.02 C 329.51 745.35 326.70 757.46 323.00 769.20 C 322.09 772.70 323.83 776.15 324.32 779.60 C 326.57 787.73 328.22 796.20 332.27 803.69 C 338.92 812.63 350.18 815.86 360.00 820.04 C 361.33 820.39 361.92 821.73 362.46 822.88 C 354.66 823.21 346.98 821.42 339.26 820.60 C 328.43 818.39 317.28 816.68 307.25 811.78 C 301.94 826.53 295.07 840.71 288.54 854.97 C 296.55 864.11 302.05 875.07 308.90 885.05 C 314.76 894.10 320.82 903.17 324.60 913.34 C 327.84 920.79 329.02 928.91 329.83 936.93 C 330.21 950.07 327.33 963.06 323.49 975.57 C 321.16 981.08 325.18 986.52 325.15 992.11 C 355.48 992.11 385.81 992.15 416.13 992.09 C 413.28 986.16 410.77 980.03 408.69 973.80 C 405.84 974.21 403.37 975.81 400.62 976.57 C 385.69 981.47 369.99 983.37 354.45 984.86 C 354.03 984.44 353.20 983.61 352.79 983.20 C 362.77 978.26 374.28 975.42 382.31 967.25 C 388.26 957.70 389.81 946.29 392.76 935.62 C 393.22 934.22 393.29 932.73 392.82 931.35 C 388.68 917.00 384.85 902.17 386.21 887.10 C 387.40 880.61 388.02 873.90 390.94 867.89 C 393.53 859.55 398.54 852.32 402.91 844.86 C 411.09 832.65 418.32 819.82 427.22 808.10 C 422.14 798.78 418.37 788.84 413.85 779.25 C 412.18 774.75 409.93 770.44 408.73 765.79 C 393.03 771.97 376.21 774.82 359.51 776.44 C 357.45 776.95 355.30 777.00 353.21 776.74 C 352.86 775.56 353.25 774.79 354.39 774.41 C 361.55 771.35 368.89 768.63 375.63 764.69 C 378.65 762.78 381.81 760.67 383.47 757.39 C 388.66 747.92 390.23 737.09 392.97 726.78 C 393.57 724.79 392.56 722.84 392.16 720.94 C 387.99 707.43 385.05 693.30 386.19 679.10 C 387.40 673.14 387.79 666.91 390.37 661.33 C 394.81 648.50 402.74 637.30 410.06 626.00 C 415.65 616.73 421.48 607.57 428.24 599.11 C 426.65 596.14 425.66 592.91 424.06 589.96 C 418.03 578.24 413.49 565.84 408.04 553.86 C 404.90 555.68 401.51 557.04 397.98 557.89 C 389.02 560.53 379.78 562.12 370.56 563.51 C 364.65 564.26 358.74 565.46 352.75 564.90 C 352.90 564.52 353.22 563.75 353.38 563.37 C 362.44 558.92 372.78 556.37 380.38 549.37 C 386.42 543.78 387.60 535.31 389.91 527.84 C 391.04 522.92 392.50 518.03 393.19 513.05 C 388.83 498.46 384.97 483.34 386.15 467.99 C 387.18 460.92 388.31 453.75 391.27 447.18 C 397.19 432.37 407.02 419.67 415.18 406.10 C 420.67 397.08 427.14 388.67 434.00 380.67 C 424.67 362.54 416.26 343.94 408.72 325.00 L 408.00 324.60 C 396.64 329.14 384.60 331.54 372.57 333.45 C 365.98 334.20 359.41 335.52 352.74 334.89 C 352.90 334.51 353.23 333.74 353.39 333.36 C 358.60 330.79 364.26 329.21 369.40 326.48 C 375.62 323.48 382.24 319.69 385.09 313.04 C 388.45 305.09 390.20 296.60 392.28 288.26 C 392.78 286.30 393.53 284.23 393.00 282.20 C 389.64 271.75 387.18 260.98 386.08 250.06 C 385.44 239.20 386.91 228.12 391.07 218.03 C 395.96 204.87 404.50 193.57 411.73 181.67 C 416.80 174.08 421.38 166.13 427.24 159.10 C 420.50 145.33 414.30 131.30 408.71 117.02 C 406.00 116.38 403.23 118.79 400.52 119.43 C 385.48 123.87 369.91 126.48 354.28 127.43 C 353.19 127.18 352.83 126.51 353.19 125.44 C 362.72 121.69 372.46 117.95 380.65 111.65 C 383.08 108.86 385.14 105.72 386.25 102.17 C 389.16 94.24 390.79 85.94 392.92 77.78 C 393.82 74.65 391.99 71.75 391.31 68.79 C 387.50 54.56 384.16 39.62 386.99 24.91 C 387.94 16.82 391.33 9.35 394.41 1.90 C 360.17 1.90 325.94 1.80 291.71 1.95 M 449.09 1.86 C 444.89 7.50 440.78 13.24 437.21 19.30 C 431.88 29.13 425.58 38.88 424.07 50.19 C 424.91 63.07 428.97 75.52 433.32 87.62 C 435.45 92.47 436.81 97.69 439.81 102.11 C 444.89 111.52 450.17 120.81 455.16 130.26 C 463.00 123.74 471.01 117.41 478.81 110.83 C 495.25 92.87 506.27 70.89 517.55 49.52 C 522.50 40.98 526.25 31.80 531.37 23.36 C 534.91 15.98 539.17 9.00 543.24 1.92 C 511.86 1.82 480.48 1.95 449.09 1.86 M 579.15 1.86 C 577.11 4.67 574.72 7.38 573.73 10.79 C 582.55 13.61 591.67 15.59 600.94 16.01 C 617.29 16.27 633.63 15.98 649.97 15.95 C 660.57 14.44 671.35 15.77 681.93 14.25 C 687.04 13.82 692.22 14.40 697.29 13.54 C 703.23 12.66 709.29 13.50 715.20 12.38 C 717.49 12.02 719.82 12.07 722.14 11.97 C 722.13 8.60 722.12 5.23 722.12 1.86 C 674.46 1.90 626.81 1.90 579.15 1.86 M 565.11 27.78 C 560.60 33.79 557.03 40.46 552.33 46.35 C 549.92 50.64 547.98 55.18 545.35 59.35 C 541.52 66.28 538.40 73.60 534.28 80.38 C 533.43 86.13 533.69 92.06 534.10 97.86 C 535.46 102.66 537.00 107.43 538.94 112.03 C 544.38 123.69 547.46 136.25 550.12 148.79 C 554.02 165.83 557.42 182.97 560.82 200.11 C 560.98 201.61 561.32 203.09 562.20 204.36 C 570.76 193.24 579.37 182.16 588.32 171.35 C 590.72 169.05 592.84 166.51 594.87 163.88 C 605.19 153.10 615.89 142.24 629.26 135.27 C 638.82 129.59 649.94 127.07 660.92 126.05 C 681.89 125.34 702.38 131.01 722.12 137.55 C 722.11 101.31 722.13 65.08 722.10 28.85 C 717.11 30.56 711.79 29.45 706.72 30.54 C 702.61 31.25 698.42 30.70 694.31 31.23 C 687.19 32.46 679.92 31.52 672.80 32.65 C 664.23 33.35 655.59 32.53 647.05 33.73 C 630.03 34.27 613.00 33.88 595.97 34.00 C 585.44 33.57 574.99 31.54 565.11 27.78 M 149.32 74.21 C 138.62 77.87 127.35 80.20 116.00 80.01 C 101.00 79.93 85.99 80.21 71.01 79.68 C 65.29 80.16 59.70 78.62 53.99 79.00 C 36.51 78.38 19.07 77.23 1.64 75.93 C 1.64 111.16 1.71 146.39 1.60 181.62 C 17.24 176.46 33.56 173.16 50.00 172.29 C 62.49 173.07 75.36 175.31 86.24 181.86 C 96.34 187.25 105.19 194.66 113.06 202.92 C 116.93 207.04 121.45 210.61 124.65 215.31 C 132.29 223.41 138.91 232.39 145.81 241.13 C 148.34 244.58 150.80 248.12 154.12 250.89 C 157.17 238.03 159.32 224.96 162.25 212.07 C 166.00 195.35 168.84 178.27 175.49 162.37 C 177.41 157.84 179.08 153.21 180.81 148.60 C 182.66 141.97 182.73 134.96 182.03 128.15 C 179.41 121.43 176.01 115.02 172.31 108.82 C 168.48 101.97 165.67 94.51 160.77 88.29 C 157.66 84.56 155.70 80.05 152.92 76.11 C 151.94 75.17 150.94 73.32 149.32 74.21 M 465.72 187.79 C 454.92 201.78 443.80 215.61 434.98 230.98 C 430.49 239.95 424.92 248.77 424.00 259.00 C 425.74 274.38 430.53 289.22 436.46 303.47 C 437.48 306.82 439.68 309.58 441.24 312.67 C 448.45 326.24 456.23 339.50 463.31 353.13 C 467.47 350.05 471.63 346.92 475.38 343.34 C 490.93 329.44 500.48 310.51 510.65 292.65 C 519.46 275.78 528.18 258.88 537.20 242.12 C 539.40 238.31 541.89 234.65 543.79 230.67 C 544.45 225.47 543.91 220.18 544.39 214.96 C 544.14 209.06 545.67 203.19 544.75 197.31 C 543.75 192.28 544.33 187.13 543.98 182.05 C 541.18 160.70 532.59 140.73 523.73 121.30 C 521.90 117.84 520.54 114.09 518.09 111.00 C 503.54 138.46 484.78 163.35 465.72 187.79 M 653.81 149.70 C 639.83 156.55 628.05 167.21 618.17 179.12 C 603.88 195.79 591.44 213.96 578.86 231.93 C 577.10 234.82 574.62 237.38 573.75 240.72 C 582.86 243.82 592.40 245.24 601.95 246.02 C 617.83 245.91 633.76 246.20 649.61 245.76 C 658.36 244.23 667.35 245.82 676.12 244.45 C 683.12 243.53 690.26 244.68 697.20 243.32 C 702.06 242.70 707.01 243.42 711.85 242.53 C 715.23 241.89 718.69 242.03 722.12 241.98 C 722.12 210.37 722.09 178.75 722.14 147.14 C 714.95 144.85 707.35 144.32 699.96 143.04 C 692.32 142.79 684.67 142.75 677.04 143.03 C 669.08 144.33 661.09 146.10 653.81 149.70 M 195.39 159.51 C 191.18 168.38 187.09 177.30 183.20 186.31 C 179.32 197.70 174.44 208.87 172.62 220.84 C 169.45 239.02 171.20 257.54 171.04 275.89 C 174.07 282.54 178.53 288.52 181.77 295.10 C 189.72 310.74 198.13 326.14 206.22 341.72 C 216.97 360.81 227.80 380.89 245.57 394.43 C 247.62 396.49 250.00 398.39 252.83 399.25 C 258.34 388.41 264.85 378.07 270.26 367.15 C 276.32 357.87 280.87 347.72 284.39 337.20 C 288.20 326.26 291.63 314.92 291.72 303.27 C 290.34 291.72 283.40 281.95 278.15 271.88 C 274.04 265.11 269.06 258.94 264.79 252.28 C 260.85 247.82 257.53 242.86 253.86 238.17 C 246.25 229.05 239.50 219.25 232.02 210.02 C 219.63 192.91 207.55 175.46 197.90 156.62 C 196.81 157.34 195.79 158.22 195.39 159.51 M 1.65 191.06 C 1.60 223.68 1.63 256.30 1.63 288.92 C 11.38 289.36 21.08 290.39 30.85 290.44 C 39.23 291.65 47.76 290.85 56.15 291.87 C 75.74 292.49 95.37 292.38 114.98 292.39 C 124.62 291.96 134.09 289.90 143.24 286.99 C 135.63 275.03 127.08 263.72 118.96 252.10 C 112.67 243.13 105.88 234.52 98.95 226.05 C 94.22 222.05 91.39 216.30 86.41 212.56 C 81.07 208.57 76.55 203.55 70.72 200.21 C 66.60 197.90 62.38 195.77 58.12 193.75 C 47.66 189.45 36.22 188.31 25.00 188.62 C 17.11 188.33 9.47 190.61 1.65 191.06 M 563.20 256.76 C 553.91 272.55 545.68 288.92 537.09 305.10 C 532.47 311.37 533.74 319.57 534.10 326.84 C 536.61 338.97 543.25 349.76 546.11 361.80 C 551.10 380.84 554.55 400.24 559.02 419.39 C 561.41 417.61 562.78 414.91 564.77 412.74 C 574.21 400.57 583.46 388.23 593.79 376.81 C 596.12 374.44 598.64 372.21 600.59 369.49 C 609.78 360.99 618.85 351.79 630.35 346.37 C 641.34 340.08 654.12 337.66 666.65 337.55 C 671.47 338.42 676.46 337.53 681.22 338.87 C 695.22 340.66 708.78 344.78 722.13 349.25 C 722.09 319.13 722.14 289.00 722.11 258.88 C 717.13 259.52 712.17 260.13 707.14 260.12 C 701.12 261.46 694.91 260.48 688.88 261.57 C 682.90 262.34 676.82 261.50 670.88 262.55 C 662.27 263.43 653.58 262.43 644.99 263.54 C 628.99 264.30 612.96 263.92 596.95 263.96 C 585.48 263.09 573.78 261.64 563.20 256.76 M 151.31 303.20 C 145.38 305.75 139.04 307.09 132.76 308.50 C 111.65 311.39 90.26 309.43 69.03 309.67 C 61.12 308.64 53.10 308.95 45.14 308.61 C 37.15 307.37 29.00 308.23 21.01 307.00 C 14.51 306.94 8.11 305.81 1.61 305.99 C 1.73 335.03 1.59 364.08 1.68 393.12 C 21.75 387.31 42.90 381.50 63.88 385.43 C 80.40 388.29 95.22 397.41 107.25 408.80 C 111.28 412.04 115.22 415.53 118.11 419.86 C 128.17 429.60 136.37 440.99 145.05 451.93 C 149.11 456.66 152.22 462.35 157.00 466.35 C 162.96 441.35 166.26 415.54 175.66 391.49 C 179.30 383.15 183.02 374.30 182.33 365.00 C 182.18 361.94 182.90 358.63 181.26 355.85 C 172.76 338.87 163.69 322.20 154.57 305.56 C 153.98 304.28 153.08 302.11 151.31 303.20 M 518.30 340.61 C 509.13 357.27 498.95 373.37 487.64 388.66 C 471.95 410.84 453.85 431.26 438.96 454.00 C 434.69 460.94 431.15 468.28 427.55 475.58 C 425.46 479.47 424.95 483.92 424.07 488.18 C 425.44 504.63 431.19 520.38 437.35 535.59 C 444.02 547.16 449.95 559.13 456.89 570.54 C 461.96 565.69 467.66 561.58 473.07 557.14 C 487.43 545.27 496.65 528.74 505.93 512.90 C 517.18 492.36 527.45 471.29 538.89 450.86 C 540.99 446.92 544.20 443.41 544.95 438.89 C 544.99 434.37 545.23 429.81 544.77 425.31 C 543.64 419.54 544.66 413.58 543.27 407.85 C 541.52 394.98 536.86 382.78 532.38 370.67 C 528.04 360.49 523.65 350.31 518.30 340.61 M 679.57 354.59 C 666.37 355.44 653.59 360.21 642.78 367.75 C 624.10 381.05 610.42 399.74 596.91 417.96 C 589.09 429.31 580.51 440.16 573.41 451.99 C 581.92 455.26 591.02 456.86 600.10 457.22 C 608.69 458.29 617.42 458.32 626.03 457.47 C 637.71 457.65 649.35 456.78 661.05 456.99 C 668.98 456.24 676.94 455.95 684.91 455.89 C 692.58 454.82 700.36 455.32 708.03 454.27 C 712.73 453.75 717.58 454.55 722.14 453.00 C 722.14 421.65 722.03 390.29 722.19 358.94 C 716.35 356.63 709.92 356.49 703.82 355.15 C 695.75 354.65 687.64 353.19 679.57 354.59 M 193.07 394.20 C 185.07 411.05 177.80 428.36 173.37 446.53 C 170.71 459.81 170.36 473.43 170.70 486.95 C 172.52 491.33 175.24 495.24 177.59 499.33 C 187.61 517.15 196.45 535.58 206.41 553.44 C 209.67 560.59 214.33 566.97 217.91 573.97 C 224.20 583.52 230.82 592.97 238.93 601.08 C 245.45 606.02 252.01 610.96 257.94 616.59 C 259.73 616.86 260.55 615.46 261.22 614.09 C 267.66 601.27 275.43 589.09 281.44 576.09 C 281.74 573.77 282.91 571.71 283.79 569.59 C 285.96 563.23 287.91 556.79 289.48 550.26 C 291.63 541.29 293.16 531.61 289.23 522.89 C 283.35 510.82 277.30 498.67 268.93 488.13 C 256.07 470.08 241.88 453.12 228.79 435.27 C 223.61 426.92 217.03 419.50 212.15 410.93 C 207.21 402.93 202.32 394.91 197.91 386.61 C 195.25 388.31 194.59 391.62 193.07 394.20 M 20.03 400.64 C 13.83 400.39 7.88 402.75 1.69 402.79 C 1.58 435.26 1.73 467.73 1.62 500.20 C 7.31 501.19 13.10 501.31 18.86 501.38 C 27.17 502.74 35.65 501.76 43.96 502.98 C 52.29 503.55 60.69 502.83 68.96 504.00 C 78.32 504.13 87.68 503.71 97.02 504.31 C 108.60 504.50 120.23 504.01 131.62 501.85 C 135.52 501.04 139.21 499.43 143.18 498.88 C 139.33 491.62 133.93 485.36 129.56 478.43 C 120.40 466.27 112.12 453.44 102.10 441.95 C 96.31 434.44 89.76 427.60 82.84 421.12 C 69.99 410.05 54.16 401.56 36.96 400.64 C 33.61 400.88 30.36 399.74 27.01 399.98 C 24.67 400.05 22.39 400.80 20.03 400.64 M 559.90 473.98 C 551.07 489.94 542.56 506.09 534.22 522.32 C 533.40 530.43 533.16 538.95 536.31 546.65 C 541.03 558.37 545.95 570.14 548.32 582.61 C 551.37 594.81 553.79 607.16 556.46 619.44 C 556.96 622.28 557.44 625.15 558.70 627.79 C 560.62 626.29 562.01 624.32 563.38 622.35 C 571.87 611.51 580.17 600.50 589.15 590.06 C 592.17 585.80 596.52 582.72 599.60 578.50 C 602.02 575.31 605.32 572.99 608.25 570.30 C 622.63 556.49 641.43 546.19 661.75 545.76 C 682.42 544.90 702.70 550.66 722.12 557.25 C 722.12 528.44 722.10 499.64 722.13 470.83 C 719.31 470.91 716.48 470.92 713.72 471.51 C 708.76 472.48 703.63 471.35 698.73 472.61 C 694.03 473.40 689.21 472.54 684.52 473.36 C 677.35 474.55 670.04 473.39 662.87 474.51 C 654.60 475.26 646.28 474.84 638.00 475.06 C 634.29 475.87 630.54 474.41 626.90 475.75 C 605.85 475.95 583.84 477.12 564.05 468.72 C 561.82 469.40 561.00 472.11 559.90 473.98 M 146.76 516.56 C 137.81 519.69 128.34 520.70 118.97 521.62 C 106.03 521.64 93.08 521.68 80.14 521.58 C 74.13 520.42 68.00 521.44 61.95 520.72 C 46.72 520.45 31.54 519.15 16.32 518.51 C 11.44 517.55 6.46 517.64 1.51 517.49 C 1.78 545.37 1.53 573.26 1.63 601.15 C 14.80 597.03 28.30 593.80 42.03 592.38 C 57.23 591.18 73.27 593.58 86.38 601.75 C 95.00 605.45 101.69 612.32 109.02 617.97 C 112.57 621.42 116.30 624.74 119.06 628.88 C 125.36 634.97 130.75 641.86 136.35 648.58 C 142.10 656.75 148.85 664.15 154.53 672.36 C 155.21 673.77 156.79 674.01 158.19 674.21 C 159.65 664.90 161.95 655.72 163.70 646.46 C 167.18 632.54 169.44 618.21 175.09 604.94 C 177.95 597.79 181.22 590.68 182.31 583.00 C 182.46 579.66 182.36 576.31 182.40 572.98 C 182.66 567.74 179.41 563.32 177.13 558.87 C 173.34 553.13 171.15 546.51 167.34 540.79 C 162.68 531.92 157.99 523.09 152.95 514.45 C 150.74 514.65 148.81 515.82 146.76 516.56 M 513.88 559.98 C 504.15 577.39 492.80 593.86 480.69 609.70 C 466.18 629.49 449.81 648.01 436.96 669.00 C 432.77 677.28 427.42 685.11 425.09 694.21 C 424.57 697.25 423.38 700.36 424.41 703.45 C 426.29 718.19 431.26 732.35 436.93 746.02 C 441.47 755.04 446.60 763.74 451.35 772.65 C 452.88 774.97 453.89 777.67 455.91 779.65 C 461.79 773.54 468.79 768.71 475.29 763.32 C 490.21 749.48 500.00 731.30 509.75 713.69 C 516.10 702.56 521.37 690.83 527.72 679.69 C 532.88 669.06 539.00 658.95 544.80 648.68 C 545.22 644.86 545.04 640.97 544.88 637.15 C 543.66 631.73 544.62 626.11 543.42 620.72 C 541.89 607.51 537.03 595.02 532.45 582.64 C 528.33 572.44 523.52 562.54 518.77 552.64 C 516.26 554.40 515.30 557.41 513.88 559.98 M 657.63 567.57 C 647.23 572.16 637.56 578.50 629.61 586.65 C 624.90 591.58 619.77 596.15 615.67 601.63 C 600.40 619.94 587.16 639.84 573.36 659.23 C 573.85 659.60 574.84 660.35 575.33 660.73 C 580.20 661.92 584.93 663.83 589.97 664.17 C 604.27 666.76 618.82 664.73 633.28 665.72 C 642.72 664.53 652.35 665.34 661.86 664.88 C 669.14 663.78 676.53 664.20 683.86 663.88 C 691.52 662.49 699.37 663.67 707.02 662.27 C 712.04 661.72 717.23 662.55 722.11 660.96 C 722.11 629.35 722.12 597.74 722.11 566.13 C 709.48 564.18 696.83 561.46 683.96 562.00 C 675.03 562.88 666.00 564.10 657.63 567.57 M 197.05 598.15 C 188.09 615.75 179.95 633.86 174.73 652.95 C 171.10 666.31 170.50 680.23 170.64 694.01 C 170.57 695.42 171.55 696.59 172.08 697.84 C 183.75 716.97 193.19 737.33 203.99 756.93 C 211.66 771.24 219.52 785.59 229.59 798.38 C 233.34 802.32 236.10 807.27 240.96 810.07 C 245.79 814.63 251.54 818.10 256.14 822.92 C 257.56 824.16 259.25 825.05 260.79 826.16 C 266.94 815.43 272.48 804.34 278.74 793.63 C 281.66 785.80 285.07 778.12 287.25 770.04 C 289.98 760.39 292.81 750.29 291.11 740.21 C 289.32 734.37 286.88 728.72 283.62 723.55 C 277.06 709.50 267.04 697.53 258.02 685.06 C 244.35 667.67 230.61 650.21 218.20 631.86 C 215.24 627.02 211.35 622.68 209.27 617.36 C 204.18 611.63 202.22 603.80 197.05 598.15 M 1.88 611.15 C 1.87 643.43 1.89 675.72 1.87 708.01 C 8.26 708.57 14.63 709.27 21.05 709.19 C 30.03 710.55 39.16 709.52 48.14 710.88 C 55.70 711.27 63.32 710.66 70.85 711.57 C 74.58 711.39 78.32 711.38 82.03 711.95 C 92.02 712.05 102.02 712.00 112.02 711.97 C 122.26 710.95 132.69 710.04 142.34 706.14 C 138.42 699.39 133.68 693.18 129.26 686.77 C 121.74 676.59 114.77 666.01 106.84 656.15 C 101.77 649.60 96.19 643.49 90.81 637.21 C 81.02 627.29 69.87 618.12 56.67 613.21 C 39.20 606.39 19.95 608.06 1.88 611.15 M 565.11 676.97 C 561.31 681.70 558.72 687.25 555.05 692.08 C 550.24 697.75 547.80 704.89 544.18 711.30 C 540.61 717.50 537.42 723.92 534.22 730.32 C 533.56 735.48 533.62 740.74 534.00 745.93 C 534.97 752.49 537.95 758.48 540.30 764.62 C 543.66 772.41 546.04 780.59 548.02 788.83 C 551.57 804.44 555.01 820.08 558.13 835.79 C 559.54 841.64 560.09 847.74 561.99 853.46 C 564.18 851.75 565.51 849.29 567.26 847.19 C 574.96 837.29 582.64 827.36 590.80 817.84 C 597.20 811.58 602.39 804.12 609.62 798.70 C 618.35 791.02 628.05 784.13 639.03 780.09 C 646.94 776.75 655.57 776.17 663.97 775.11 C 668.35 774.88 672.61 776.30 677.00 776.03 C 692.41 777.81 707.51 781.90 722.12 787.09 C 722.12 751.01 722.11 714.93 722.12 678.85 C 718.97 678.94 715.81 678.88 712.71 679.48 C 707.88 680.26 702.96 679.64 698.15 680.41 C 692.62 681.46 686.96 680.55 681.41 681.40 C 673.30 682.56 665.02 681.42 656.93 682.74 C 648.25 683.37 639.49 682.44 630.85 683.49 C 620.58 683.66 610.29 684.22 600.02 683.72 C 594.99 682.63 589.76 683.48 584.78 682.17 C 578.03 681.44 571.27 679.86 565.11 676.97 M 139.19 727.07 C 132.58 728.60 125.82 729.11 119.09 729.86 C 102.08 730.04 85.02 730.31 68.06 728.99 C 60.31 729.05 52.55 729.05 44.86 728.08 C 38.22 728.09 31.61 727.78 25.02 727.05 C 17.26 727.26 9.65 725.51 1.87 725.85 C 1.88 760.69 1.89 795.52 1.87 830.36 C 12.72 827.39 23.57 824.13 34.78 822.84 C 39.50 821.63 44.41 822.31 49.18 821.48 C 56.44 821.82 63.73 822.42 70.79 824.31 C 86.77 829.01 100.73 838.93 112.19 850.81 C 123.86 861.92 133.80 874.62 143.69 887.30 C 147.20 891.34 149.86 896.10 153.90 899.69 C 156.98 886.57 159.14 873.24 162.19 860.11 C 166.28 841.69 169.47 822.79 177.70 805.64 C 179.37 800.83 181.24 796.01 181.97 790.96 C 181.88 785.27 183.08 779.15 180.20 773.93 C 177.15 768.23 174.39 762.38 171.28 756.72 C 167.66 751.19 165.74 744.65 161.53 739.51 C 157.82 734.28 154.50 728.79 150.88 723.50 C 146.95 724.57 143.18 726.20 139.19 727.07 M 512.08 771.13 C 498.18 795.51 480.76 817.57 463.72 839.79 C 454.51 851.67 445.18 863.53 437.32 876.36 C 431.94 886.44 425.29 896.37 424.00 908.01 C 425.53 923.19 430.42 937.79 436.04 951.90 C 438.39 957.92 442.15 963.23 444.97 969.01 C 449.53 976.61 453.19 984.75 458.06 992.15 C 463.38 992.03 468.69 992.18 474.01 992.11 C 476.69 992.23 478.59 990.05 480.33 988.33 C 486.11 981.96 491.00 974.85 495.73 967.67 C 506.44 950.88 515.49 933.13 524.49 915.38 C 530.88 903.78 536.53 891.76 543.73 880.61 C 544.49 875.13 543.90 869.50 544.41 863.97 C 544.14 858.18 545.64 852.44 544.69 846.68 C 543.77 841.21 544.37 835.66 543.87 830.17 C 540.07 805.63 529.59 782.76 518.75 760.64 C 515.36 763.26 514.49 767.75 512.08 771.13 M 647.52 802.47 C 636.95 808.53 628.49 817.42 620.18 826.17 C 606.16 842.09 594.16 859.67 581.86 876.93 C 579.22 881.27 575.49 884.98 573.68 889.80 C 587.14 895.14 601.77 895.37 616.05 895.48 C 621.05 895.81 625.99 894.75 631.00 895.11 C 642.65 894.83 654.36 895.54 665.94 894.14 C 671.99 893.79 678.12 894.48 684.12 893.43 C 689.78 892.77 695.52 893.35 701.18 892.56 C 705.37 891.86 709.63 892.17 713.86 891.89 C 716.59 891.42 719.34 891.03 722.12 891.04 C 722.10 859.40 722.13 827.77 722.11 796.14 C 712.50 794.28 702.81 792.57 693.05 791.98 C 677.33 791.34 661.00 793.93 647.52 802.47 M 197.21 806.64 C 191.62 817.24 186.86 828.27 182.30 839.36 C 177.57 852.54 172.49 865.94 171.80 880.07 C 170.32 891.97 171.21 904.01 171.05 915.98 C 172.08 920.20 170.76 924.95 173.22 928.74 C 177.20 935.51 181.16 942.30 184.63 949.36 C 189.62 957.55 193.25 966.48 198.20 974.70 C 200.95 980.63 204.51 986.15 207.26 992.08 C 232.12 992.15 256.97 992.12 281.82 992.09 C 286.01 982.37 288.94 972.08 290.76 961.66 C 291.56 955.43 291.66 948.90 288.99 943.08 C 284.00 932.18 278.46 921.42 271.30 911.77 C 260.49 896.08 248.26 881.45 236.82 866.24 C 226.72 852.84 216.89 839.23 208.11 824.93 C 204.13 819.05 201.59 812.21 197.21 806.64 M 1.88 841.14 C 1.84 873.42 1.93 905.69 1.84 937.97 C 5.35 938.01 8.87 938.09 12.32 938.76 C 16.51 939.29 20.74 938.80 24.94 939.22 C 31.55 940.28 38.28 939.84 44.95 940.22 C 54.95 941.44 65.03 940.89 75.08 941.16 C 82.03 942.09 89.08 940.79 96.02 941.95 C 111.59 942.07 127.56 941.50 142.30 936.01 C 140.65 932.98 138.63 930.19 136.74 927.32 C 127.00 913.44 117.28 899.54 106.94 886.10 C 93.49 868.92 78.24 851.69 57.48 843.41 C 48.19 839.33 37.96 838.70 27.99 837.97 C 19.22 838.47 10.50 839.37 1.88 841.14 M 563.19 906.02 C 553.48 922.95 544.47 940.24 535.50 957.58 C 534.60 959.24 533.74 961.01 533.89 962.98 C 533.82 968.88 533.09 975.05 535.21 980.71 C 536.43 984.54 537.80 988.32 539.18 992.10 C 600.16 992.13 661.14 992.10 722.12 992.12 C 722.12 964.27 722.08 936.42 722.14 908.58 C 714.73 908.81 707.44 910.15 700.03 910.05 C 692.82 911.36 685.46 910.59 678.21 911.47 C 672.52 912.29 666.75 911.83 661.02 912.05 C 650.72 913.43 640.29 912.83 629.93 913.02 C 616.34 914.08 602.68 913.55 589.10 912.78 C 580.29 911.35 571.27 910.01 563.19 906.02 M 109.00 959.89 C 98.01 959.91 86.99 959.96 76.04 959.01 C 68.40 958.90 60.74 959.24 53.12 958.53 C 46.42 957.39 39.57 958.53 32.87 957.38 C 28.01 956.65 23.07 957.29 18.21 956.65 C 12.82 955.58 7.29 956.24 1.87 955.56 C 1.90 967.74 1.87 979.93 1.88 992.12 C 59.31 992.08 116.74 992.16 174.17 992.08 C 167.23 978.81 160.07 965.67 152.79 952.59 C 138.86 958.02 123.88 959.94 109.00 959.89 Z" />
</g>
</svg>
