<?xml version="1.0" encoding="utf-8"?>
<!-- Generator: Adobe Illustrator 17.0.0, SVG Export Plug-In . SVG Version: 6.00 Build 0)  -->
<!DOCTYPE svg PUBLIC "-//W3C//DTD SVG 1.1//EN" "http://www.w3.org/Graphics/SVG/1.1/DTD/svg11.dtd">
<svg version="1.1" id="Layer_1" xmlns="http://www.w3.org/2000/svg" xmlns:xlink="http://www.w3.org/1999/xlink" x="0px" y="0px"
	 width="202.445px" height="517.14px" viewBox="0 0 202.445 517.14" enable-background="new 0 0 202.445 517.14"
	 xml:space="preserve">
<g id="Layer_1_1_">
</g>
<g id="Layer_2">
	<g>
		<g>
			<path fill="#333333" d="M134.052,474.876H55.5c0,0-53.449-37.719-52.648-244.6c0,0-0.452-165.732,65.148-196.594c0,0,57.583-5.715,70.618,0
				L134.052,474.876z"/>
			<ellipse fill="#333333" cx="138.619" cy="254.276" rx="57.033" ry="220.598"/>
			<ellipse fill="#FFFFFF" cx="145.001" cy="251.705" rx="33.25" ry="170.02"/>
			<ellipse fill="#333333" cx="141.751" cy="250.991" rx="27.5" ry="142.874"/>
			<g>
				<path fill="#FFFFFF" d="M116.251,218.13c0,0,18,14.287,17,32.147c0,0,4,20.002-16,32.861l-0.5,16.43l14.5-17.859
					c0,0,5.5-2.143,0,8.572l-12.5,28.575l3,18.574l14-39.29c0,0,4-8.572,6,1.429l10.5,80.009l4.5-12.859l-10.5-70.723
					c0,0-2-14.287,1.5-3.572l12.5,57.864l3-12.859l-13.5-57.149c0,0-4.5-20.002,2-17.145l16,15.716V263.85l-16-9.287
					c0,0-4-2.857,1.5-3.572h15.5l-0.5-10.001l-16,1.429c0,0-4.5-2.143-3.5-14.287l13-75.723l-5-10.716l-10,63.579l2.5-81.438
					c0,0-2-8.572-6-3.572l-4,87.153l-16-47.863l-4,18.574l15,45.005l-16.5-22.145L116.251,218.13z"/>
				<ellipse cx="142.751" cy="250.991" rx="5.25" ry="31.432"/>
				<ellipse fill="#FFFFFF" cx="142.251" cy="251.298" rx="2.813" ry="16.838"/>
			</g>
			<path fill="#FFFFFF" d="M133.751,73.113c0,0-42.5,50.006-30.5,222.169c0,0,3,122.157,37.5,137.159c0,0-33.5-8.572-35-145.731
				C105.751,286.71,99.751,128.12,133.751,73.113z"/>
			<g display="none">
				<g display="inline">
					<polygon fill="#FFFFFF" points="105.162,432.939 115.918,409.819 107.65,434.942 					"/>
				</g>
				<g display="inline">
					<g>
						<path fill="#FFFFFF" d="M112.251,52.159c0,0-0.474,1.472-1.28,4.276c-0.821,2.796-1.948,6.942-3.35,12.226
							c-1.419,5.273-2.972,11.77-4.754,19.201c-0.83,3.749-1.783,7.699-2.647,11.93c-0.451,2.106-0.914,4.265-1.388,6.475
							c-0.447,2.222-0.904,4.495-1.37,6.815c-0.967,4.626-1.79,9.521-2.743,14.54c-0.823,5.071-1.834,10.248-2.635,15.656
							c-0.419,2.696-0.845,5.429-1.275,8.195c-0.385,2.779-0.775,5.592-1.168,8.437c-0.814,5.679-1.486,11.521-2.226,17.446
							c-0.377,2.96-0.634,5.975-0.96,8.994c-0.292,3.026-0.666,6.058-0.896,9.137c-0.251,3.073-0.503,6.166-0.756,9.274
							c-0.287,3.102-0.48,6.234-0.68,9.375c-0.204,3.142-0.408,6.296-0.613,9.46c-0.131,3.17-0.263,6.351-0.395,9.538
							c-0.335,6.369-0.347,12.779-0.477,19.182c-0.102,3.202-0.049,6.404-0.046,9.603c0.011,3.199,0.022,6.396,0.032,9.585
							c0.092,3.186,0.185,6.366,0.277,9.538c0.117,3.169,0.147,6.338,0.335,9.478c0.185,3.14,0.37,6.268,0.553,9.381
							c0.176,3.113,0.292,6.222,0.589,9.283c0.256,3.068,0.511,6.118,0.763,9.145c0.126,1.514,0.252,3.023,0.377,4.528
							c0.13,1.502,0.332,2.983,0.493,4.466c0.341,2.963,0.679,5.902,1.014,8.814c0.33,2.913,0.651,5.801,1.087,8.625
							c0.405,2.835,0.805,5.638,1.201,8.407c0.419,2.762,0.728,5.531,1.247,8.185c0.948,5.346,1.869,10.548,2.761,15.579
							c1.039,4.978,2.044,9.785,3.008,14.402c0.891,4.661,2.109,8.944,3.089,13.114c0.505,2.079,0.998,4.105,1.476,6.074
							c0.471,1.974,0.935,3.89,1.479,5.692c1.031,3.64,1.996,7.049,2.888,10.2c0.895,3.153,1.645,6.102,2.518,8.634
							c1.667,5.119,2.919,9.194,3.8,11.956c0.874,2.769,1.34,4.246,1.34,4.246s-0.566-1.402-1.627-4.028
							c-1.054-2.633-2.64-6.472-4.585-11.426c-1.025-2.44-1.944-5.293-3.026-8.348c-1.057-3.075-2.2-6.401-3.422-9.954
							c-0.636-1.764-1.194-3.645-1.764-5.583c-0.578-1.936-1.172-3.929-1.782-5.974c-1.189-4.108-2.555-8.374-3.642-13.002
							c-1.152-4.601-2.353-9.393-3.596-14.353c-1.051-5.052-2.138-10.275-3.255-15.646c-0.601-2.673-0.991-5.459-1.494-8.245
							c-0.479-2.795-0.963-5.624-1.453-8.482c-0.234-1.433-0.515-2.862-0.715-4.322c-0.193-1.462-0.387-2.93-0.582-4.408
							c-0.39-2.953-0.783-5.935-1.18-8.942c-0.189-1.506-0.418-3.01-0.577-4.535c-0.153-1.527-0.307-3.059-0.461-4.598
							c-0.308-3.078-0.618-6.176-0.93-9.295c-0.637-6.236-0.931-12.606-1.373-19.002c-0.208-3.2-0.258-6.429-0.394-9.66
							c-0.111-3.232-0.222-6.474-0.334-9.723c-0.029-3.252-0.058-6.509-0.087-9.77c-0.018-3.26-0.098-6.526,0.001-9.788
							c0.166-6.524,0.216-13.054,0.591-19.535c0.152-3.242,0.304-6.478,0.455-9.705c0.226-3.216,0.451-6.424,0.675-9.618
							c0.863-12.786,2.335-25.256,3.863-37.27c0.862-5.984,1.591-11.899,2.6-17.599c0.477-2.857,0.948-5.684,1.414-8.475
							c0.511-2.776,1.016-5.518,1.514-8.222c0.482-2.71,1.008-5.363,1.545-7.969c0.533-2.606,1.058-5.173,1.574-7.697
							c1.152-4.998,2.166-9.865,3.317-14.457c2.155-9.251,4.471-17.558,6.537-24.896c2.12-7.312,4.081-13.612,5.803-18.728
							c1.684-5.139,3.153-9.078,4.15-11.76C111.678,53.557,112.251,52.159,112.251,52.159z"/>
					</g>
					<g>
						<path fill="#FFFFFF" d="M88.917,49.302c0,0-0.49,1.459-1.329,4.243c-0.853,2.775-2.028,6.892-3.491,12.143
							c-1.478,5.242-3.122,11.694-4.941,19.117c-0.855,3.74-1.836,7.682-2.728,11.906c-0.465,2.102-0.942,4.258-1.431,6.465
							c-0.461,2.219-0.933,4.489-1.415,6.807c-0.998,4.621-1.853,9.511-2.839,14.526c-0.856,5.066-1.887,10.248-2.716,15.658
							c-0.432,2.697-0.871,5.432-1.315,8.2c-0.398,2.782-0.802,5.596-1.209,8.442c-0.847,5.682-1.528,11.537-2.288,17.472
							c-0.386,2.966-0.652,5.986-0.988,9.011c-0.301,3.033-0.685,6.071-0.924,9.155c-0.491,6.166-1.118,12.386-1.476,18.696
							c-0.207,3.15-0.415,6.314-0.624,9.487c-0.135,3.18-0.27,6.369-0.405,9.565c-0.342,6.388-0.36,12.817-0.496,19.241
							c-0.101,3.212-0.044,6.425-0.039,9.634c0.014,3.21,0.028,6.416,0.041,9.617c0.096,3.198,0.191,6.388,0.286,9.568
							c0.121,3.179,0.153,6.358,0.345,9.508c0.189,3.15,0.377,6.289,0.564,9.411c0.185,3.123,0.31,6.239,0.617,9.31
							c0.265,3.076,0.529,6.135,0.791,9.171c0.131,1.519,0.261,3.032,0.391,4.539c0.135,1.506,0.341,2.99,0.507,4.478
							c0.35,2.97,0.698,5.916,1.042,8.835c0.337,2.92,0.67,5.814,1.122,8.642c0.419,2.839,0.833,5.646,1.243,8.42
							c0.433,2.766,0.755,5.538,1.288,8.195c0.976,5.351,1.925,10.556,2.843,15.589c1.073,4.975,2.11,9.78,3.106,14.395
							c0.922,4.655,2.169,8.934,3.178,13.097c0.52,2.075,1.026,4.096,1.519,6.062c0.485,1.97,0.962,3.882,1.518,5.679
							c1.061,3.628,2.054,7.024,2.972,10.164c0.932,3.133,1.716,6.062,2.62,8.575c1.727,5.082,3.026,9.124,3.939,11.863
							c0.905,2.746,1.388,4.209,1.388,4.209s-0.549-1.413-1.579-4.065c-1.023-2.657-2.561-6.529-4.446-11.52
							c-0.995-2.459-1.88-5.332-2.925-8.407c-1.031-3.086-2.147-6.424-3.339-9.991c-0.623-1.769-1.168-3.653-1.724-5.596
							c-0.564-1.94-1.144-3.936-1.739-5.985c-1.159-4.115-2.497-8.387-3.552-13.019c-1.121-4.603-2.289-9.398-3.498-14.36
							c-1.025-5.049-2.084-10.268-3.173-15.635c-0.587-2.669-0.964-5.453-1.453-8.235c-0.465-2.79-0.936-5.615-1.411-8.471
							c-0.227-1.432-0.5-2.857-0.694-4.315c-0.189-1.459-0.378-2.925-0.568-4.398c-0.381-2.946-0.765-5.921-1.152-8.921
							c-0.184-1.502-0.409-3.002-0.563-4.523c-0.148-1.523-0.297-3.052-0.447-4.585c-0.299-3.069-0.6-6.161-0.903-9.27
							c-0.615-6.219-0.895-12.57-1.334-18.947c-0.205-3.19-0.251-6.409-0.384-9.628c-0.108-3.222-0.216-6.454-0.325-9.691
							c-0.026-3.242-0.052-6.489-0.078-9.74c-0.016-3.25-0.091-6.506,0.009-9.758c0.16-6.504,0.204-13.014,0.572-19.475
							c0.149-3.233,0.297-6.459,0.445-9.677c0.222-3.208,0.444-6.406,0.665-9.593c0.37-6.384,1.064-12.661,1.638-18.879
							c0.276-3.112,0.696-6.174,1.034-9.231c0.372-3.049,0.675-6.092,1.097-9.078c0.841-5.974,1.561-11.877,2.537-17.573
							c0.463-2.855,0.921-5.679,1.373-8.47c0.498-2.775,0.989-5.513,1.474-8.218c0.469-2.709,0.982-5.361,1.507-7.967
							c0.519-2.606,1.03-5.173,1.532-7.698c1.119-5.001,2.101-9.873,3.221-14.472c2.095-9.261,4.353-17.585,6.368-24.94
							c2.083-7.321,3.953-13.664,5.616-18.814c1.623-5.172,3.044-9.14,4.009-11.843C88.361,50.711,88.917,49.302,88.917,49.302z"/>
					</g>
					<g>
						<path fill="#FFFFFF" d="M74.918,54.064c0,0-0.49,1.459-1.329,4.243c-0.853,2.775-2.028,6.892-3.491,12.143
							c-1.478,5.242-3.122,11.694-4.941,19.117c-0.855,3.74-1.836,7.682-2.728,11.906c-0.465,2.102-0.942,4.258-1.431,6.465
							c-0.461,2.219-0.933,4.489-1.415,6.807c-0.998,4.621-1.853,9.511-2.839,14.526c-0.856,5.066-1.887,10.248-2.716,15.658
							c-0.433,2.697-0.871,5.432-1.315,8.2c-0.398,2.782-0.802,5.596-1.209,8.442c-0.847,5.682-1.528,11.537-2.288,17.472
							c-0.386,2.966-0.652,5.986-0.988,9.011c-0.301,3.033-0.685,6.071-0.924,9.155c-0.491,6.166-1.118,12.386-1.477,18.696
							c-0.207,3.15-0.415,6.314-0.624,9.487c-0.135,3.18-0.27,6.369-0.405,9.565c-0.342,6.388-0.36,12.817-0.496,19.241
							c-0.101,3.212-0.044,6.425-0.039,9.634c0.014,3.21,0.028,6.416,0.041,9.617c0.096,3.198,0.191,6.388,0.286,9.568
							c0.121,3.179,0.153,6.358,0.345,9.508c0.189,3.15,0.377,6.289,0.564,9.411c0.185,3.123,0.31,6.239,0.617,9.31
							c0.265,3.076,0.529,6.135,0.791,9.171c0.131,1.519,0.261,3.032,0.391,4.539c0.135,1.506,0.341,2.99,0.507,4.478
							c0.35,2.97,0.698,5.916,1.042,8.835c0.337,2.92,0.67,5.814,1.122,8.642c0.419,2.839,0.833,5.646,1.243,8.42
							c0.433,2.766,0.755,5.538,1.288,8.195c0.976,5.351,1.925,10.556,2.843,15.589c1.073,4.975,2.11,9.78,3.106,14.395
							c0.922,4.655,2.169,8.934,3.178,13.097c0.52,2.075,1.026,4.096,1.519,6.062c0.485,1.97,0.962,3.882,1.518,5.679
							c1.061,3.628,2.054,7.024,2.972,10.164c0.932,3.133,1.716,6.062,2.62,8.575c1.727,5.082,3.026,9.124,3.939,11.863
							c0.905,2.746,1.388,4.209,1.388,4.209s-0.549-1.413-1.579-4.063c-1.023-2.657-2.561-6.529-4.446-11.52
							c-0.995-2.459-1.88-5.332-2.925-8.407c-1.031-3.086-2.147-6.424-3.339-9.991c-0.623-1.769-1.168-3.653-1.724-5.596
							c-0.564-1.94-1.144-3.936-1.739-5.985c-1.159-4.115-2.497-8.387-3.552-13.019c-1.121-4.603-2.289-9.398-3.498-14.36
							c-1.025-5.049-2.084-10.268-3.173-15.635c-0.587-2.669-0.964-5.453-1.453-8.235c-0.465-2.79-0.936-5.615-1.411-8.471
							c-0.227-1.432-0.5-2.857-0.694-4.315c-0.189-1.459-0.378-2.925-0.568-4.398c-0.381-2.946-0.765-5.921-1.152-8.921
							c-0.184-1.502-0.409-3.002-0.563-4.523c-0.148-1.523-0.297-3.052-0.447-4.585c-0.299-3.069-0.6-6.161-0.903-9.271
							c-0.615-6.219-0.895-12.57-1.334-18.947c-0.205-3.19-0.251-6.409-0.384-9.628c-0.108-3.222-0.216-6.454-0.324-9.691
							c-0.026-3.242-0.052-6.489-0.078-9.74c-0.016-3.25-0.091-6.506,0.009-9.758c0.16-6.504,0.204-13.014,0.572-19.475
							c0.149-3.233,0.297-6.459,0.445-9.677c0.222-3.208,0.444-6.406,0.665-9.593c0.37-6.384,1.064-12.661,1.638-18.879
							c0.276-3.112,0.696-6.174,1.034-9.231c0.372-3.049,0.675-6.092,1.097-9.078c0.841-5.974,1.561-11.877,2.538-17.573
							c0.463-2.855,0.921-5.679,1.373-8.47c0.498-2.775,0.989-5.514,1.474-8.218c0.469-2.709,0.982-5.361,1.507-7.967
							c0.519-2.607,1.03-5.173,1.532-7.698c1.119-5.001,2.101-9.873,3.221-14.472c2.095-9.261,4.353-17.585,6.368-24.94
							c2.083-7.321,3.953-13.664,5.616-18.814c1.623-5.172,3.044-9.14,4.009-11.843C74.361,55.473,74.918,54.064,74.918,54.064z"/>
					</g>
					<g>
						<path fill="#FFFFFF" d="M54.918,58.826c0,0-0.474,1.472-1.28,4.276c-0.821,2.796-1.948,6.942-3.35,12.226
							c-1.419,5.273-2.972,11.77-4.754,19.201c-0.83,3.749-1.783,7.699-2.647,11.93c-0.451,2.106-0.914,4.265-1.388,6.475
							c-0.447,2.222-0.904,4.495-1.37,6.815c-0.967,4.626-1.79,9.521-2.743,14.54c-0.823,5.071-1.834,10.248-2.635,15.656
							c-0.419,2.696-0.845,5.429-1.275,8.195c-0.385,2.779-0.775,5.592-1.168,8.437c-0.814,5.679-1.486,11.521-2.226,17.446
							c-0.377,2.96-0.634,5.975-0.96,8.994c-0.292,3.026-0.666,6.058-0.896,9.137c-0.251,3.073-0.503,6.166-0.756,9.274
							c-0.287,3.102-0.48,6.234-0.68,9.375c-0.204,3.142-0.408,6.296-0.613,9.46c-0.131,3.17-0.263,6.351-0.395,9.538
							c-0.335,6.369-0.347,12.779-0.477,19.182c-0.102,3.202-0.049,6.404-0.046,9.603c0.011,3.199,0.022,6.396,0.032,9.585
							c0.092,3.186,0.185,6.366,0.277,9.538c0.117,3.169,0.147,6.338,0.335,9.478c0.185,3.14,0.37,6.268,0.553,9.381
							c0.176,3.113,0.292,6.222,0.589,9.283c0.256,3.068,0.51,6.118,0.763,9.145c0.126,1.514,0.252,3.023,0.377,4.528
							c0.13,1.502,0.332,2.983,0.493,4.466c0.341,2.963,0.679,5.902,1.014,8.814c0.329,2.913,0.651,5.801,1.087,8.625
							c0.405,2.835,0.805,5.638,1.201,8.407c0.419,2.762,0.728,5.531,1.247,8.185c0.948,5.346,1.869,10.548,2.761,15.579
							c1.039,4.978,2.044,9.785,3.008,14.402c0.891,4.661,2.109,8.944,3.089,13.114c0.505,2.079,0.998,4.105,1.476,6.074
							c0.471,1.975,0.935,3.89,1.479,5.692c1.031,3.64,1.996,7.049,2.888,10.2c0.895,3.153,1.645,6.102,2.518,8.634
							c1.667,5.119,2.919,9.194,3.8,11.956c0.874,2.769,1.34,4.246,1.34,4.246s-0.566-1.402-1.627-4.028
							c-1.054-2.633-2.639-6.472-4.585-11.426c-1.025-2.44-1.944-5.293-3.026-8.348c-1.057-3.075-2.2-6.401-3.422-9.954
							c-0.636-1.764-1.194-3.645-1.764-5.583c-0.578-1.936-1.172-3.929-1.782-5.974c-1.189-4.108-2.555-8.374-3.642-13.002
							c-1.152-4.601-2.353-9.393-3.596-14.353c-1.051-5.052-2.138-10.275-3.255-15.646c-0.601-2.673-0.991-5.459-1.494-8.245
							c-0.479-2.795-0.963-5.624-1.453-8.482c-0.234-1.433-0.515-2.862-0.715-4.322c-0.193-1.462-0.387-2.93-0.582-4.408
							c-0.39-2.953-0.783-5.935-1.18-8.942c-0.189-1.506-0.418-3.01-0.577-4.535c-0.153-1.527-0.307-3.059-0.461-4.598
							c-0.308-3.077-0.618-6.176-0.93-9.295c-0.637-6.236-0.931-12.606-1.373-19.002c-0.208-3.2-0.258-6.429-0.394-9.66
							c-0.111-3.232-0.222-6.474-0.334-9.723c-0.029-3.252-0.058-6.509-0.087-9.77c-0.018-3.26-0.098-6.526,0.001-9.788
							c0.166-6.524,0.216-13.054,0.591-19.535c0.152-3.242,0.304-6.478,0.455-9.705c0.226-3.216,0.451-6.424,0.675-9.618
							c0.863-12.786,2.335-25.256,3.863-37.27c0.862-5.984,1.591-11.899,2.6-17.599c0.477-2.857,0.948-5.684,1.414-8.475
							c0.511-2.776,1.016-5.518,1.514-8.222c0.482-2.71,1.008-5.363,1.545-7.97c0.533-2.606,1.058-5.173,1.574-7.697
							c1.152-4.998,2.166-9.865,3.317-14.457c2.155-9.251,4.471-17.558,6.537-24.896c2.12-7.312,4.081-13.612,5.803-18.728
							c1.684-5.139,3.153-9.078,4.15-11.76C54.344,60.223,54.918,58.826,54.918,58.826z"/>
					</g>
					<g>
						<polygon fill="#FFFFFF" points="104.709,69.593 132.918,53.111 106.462,74.729 						"/>
					</g>
					
						<line fill="none" stroke="#FFFFFF" stroke-width="3" stroke-miterlimit="10" x1="79.585" y1="78.83" x2="106.919" y2="59.779"/>
					
						<line fill="none" stroke="#FFFFFF" stroke-width="3" stroke-miterlimit="10" x1="72.918" y1="104.547" x2="100.251" y2="85.496"/>
					
						<line fill="none" stroke="#FFFFFF" stroke-width="3" stroke-miterlimit="10" x1="68.251" y1="133.122" x2="95.585" y2="114.072"/>
					
						<line fill="none" stroke="#FFFFFF" stroke-width="3" stroke-miterlimit="10" x1="61.585" y1="164.554" x2="88.918" y2="145.503"/>
					
						<line fill="none" stroke="#FFFFFF" stroke-width="3" stroke-miterlimit="10" x1="58.838" y1="207.58" x2="83.666" y2="182.486"/>
					
						<line fill="none" stroke="#FFFFFF" stroke-width="3" stroke-miterlimit="10" x1="57.504" y1="242.823" x2="82.332" y2="217.729"/>
					
						<line fill="none" stroke="#FFFFFF" stroke-width="3.4978" stroke-miterlimit="10" x1="56.251" y1="282.423" x2="81.585" y2="255.039"/>
					
						<line fill="none" stroke="#FFFFFF" stroke-width="2.6615" stroke-miterlimit="10" x1="60.838" y1="322.831" x2="80.751" y2="303.14"/>
					
						<line fill="none" stroke="#FFFFFF" stroke-width="3" stroke-miterlimit="10" x1="66.838" y1="362.835" x2="83.585" y2="337.905"/>
					
						<line fill="none" stroke="#FFFFFF" stroke-width="3" stroke-miterlimit="10" x1="73.504" y1="400.934" x2="90.251" y2="376.004"/>
					
						<line fill="none" stroke="#FFFFFF" stroke-width="3" stroke-miterlimit="10" x1="82.837" y1="434.51" x2="99.585" y2="409.579"/>
					<g>
						<polygon fill="#FFFFFF" points="96.879,94.907 118.918,81.686 98.292,98.946 						"/>
					</g>
					<g>
						<polygon fill="#FFFFFF" points="93.264,126.878 108.251,109.309 95.239,129.84 						"/>
					</g>
					<g>
						<polygon fill="#FFFFFF" points="85.734,160.003 102.917,138.835 88.105,163.389 						"/>
					</g>
					<g>
						<polygon fill="#FFFFFF" points="79.018,202.724 97.586,180.744 81.487,206.392 						"/>
					</g>
					<g>
						<polygon fill="#FFFFFF" points="77.685,237.965 96.251,215.987 80.154,241.633 						"/>
					</g>
					<g>
						<polygon fill="#FFFFFF" points="78.352,274.161 96.919,252.183 80.821,277.828 						"/>
					</g>
					<g>
						<polygon fill="#FFFFFF" points="79.685,316.07 98.251,294.092 82.154,319.738 						"/>
					</g>
					<g>
						<polygon fill="#FFFFFF" points="85.942,358.674 101.099,331.883 88.869,361.571 						"/>
					</g>
					<g>
						<polygon fill="#FFFFFF" points="94.394,396.364 106.586,371.481 97.086,398.654 						"/>
					</g>
					
						<line fill="none" stroke="#FFFFFF" stroke-width="3" stroke-miterlimit="10" x1="60.251" y1="48.349" x2="66.918" y2="74.066"/>
					
						<line fill="none" stroke="#FFFFFF" stroke-width="3" stroke-miterlimit="10" x1="52.501" y1="76.924" x2="60.001" y2="107.403"/>
					
						<line fill="none" stroke="#FFFFFF" stroke-width="3.3331" stroke-miterlimit="10" x1="44.751" y1="98.355" x2="53.085" y2="135.978"/>
					
						<line fill="none" stroke="#FFFFFF" stroke-width="4.2826" stroke-miterlimit="10" x1="34.751" y1="130.977" x2="48.417" y2="171.22"/>
					
						<line fill="none" stroke="#FFFFFF" stroke-width="3" stroke-miterlimit="10" x1="29.585" y1="175.031" x2="44.251" y2="201.7"/>
					
						<line fill="none" stroke="#FFFFFF" stroke-width="3" stroke-miterlimit="10" x1="25.096" y1="218.532" x2="43.408" y2="240.113"/>
					
						<line fill="none" stroke="#FFFFFF" stroke-width="3" stroke-miterlimit="10" x1="22.918" y1="255.992" x2="44.074" y2="279.164"/>
					
						<line fill="none" stroke="#FFFFFF" stroke-width="3" stroke-miterlimit="10" x1="24.251" y1="294.09" x2="45.408" y2="317.263"/>
					
						<line fill="none" stroke="#FFFFFF" stroke-width="3" stroke-miterlimit="10" x1="25.585" y1="342.669" x2="52.075" y2="364.887"/>
					
						<line fill="none" stroke="#FFFFFF" stroke-width="3" stroke-miterlimit="10" x1="34.251" y1="380.769" x2="59.918" y2="403.152"/>
					
						<line fill="none" stroke="#FFFFFF" stroke-width="3" stroke-miterlimit="10" x1="42.918" y1="415.059" x2="69.408" y2="437.277"/>
					<g>
						<path fill="#FFFFFF" d="M45.971,86.556c0,0-0.228-0.269-0.572-0.774c-0.347-0.504-0.809-1.246-1.313-2.169
							c-1.007-1.847-2.112-4.462-2.99-7.225c-0.879-2.762-1.531-5.672-1.839-7.971c-0.154-1.15-0.239-2.136-0.275-2.842
							c-0.039-0.703-0.03-1.126-0.03-1.126s0.229,0.269,0.573,0.774c0.348,0.503,0.811,1.244,1.315,2.167
							c1.008,1.846,2.111,4.463,2.987,7.228s1.526,5.675,1.835,7.974c0.154,1.15,0.241,2.135,0.277,2.84
							C45.98,86.133,45.971,86.556,45.971,86.556z"/>
					</g>
					<g>
						<polygon fill="#FFFFFF" points="36.027,122.733 29.091,91.75 39.249,120.863 						"/>
					</g>
					<g>
						<polygon fill="#FFFFFF" points="30.188,159.118 17.961,122.723 33.562,156.382 						"/>
					</g>
					<g>
						<polygon fill="#FFFFFF" points="23.188,196.265 10.961,159.87 26.562,193.529 						"/>
					</g>
					<g>
						<polygon fill="#FFFFFF" points="20.188,239.127 7.961,202.733 23.562,236.391 						"/>
					</g>
					<g>
						<polygon fill="#FFFFFF" points="19.521,278.654 7.295,242.26 22.896,275.918 						"/>
					</g>
					<g>
						<polygon fill="#FFFFFF" points="22.713,318.457 6.506,289.076 25.473,314.866 						"/>
					</g>
					<g>
						<polygon fill="#FFFFFF" points="29.131,366.842 11.78,341.052 31.498,363.097 						"/>
					</g>
					<g>
						<polygon fill="#FFFFFF" points="36.131,405.418 18.78,379.627 38.498,401.673 						"/>
					</g>
				</g>
			</g>
		</g>
		<rect x="-71.647" y="-193.912" fill="none" width="397.48" height="780.052"/>
	</g>
</g>
</svg>
