<?xml version="1.0" encoding="UTF-8" ?>
<!DOCTYPE svg PUBLIC "-//W3C//DTD SVG 1.1//EN" "http://www.w3.org/Graphics/SVG/1.1/DTD/svg11.dtd">
<svg width="100pt" height="100pt" viewBox="0 0 100 100" version="1.1" xmlns="http://www.w3.org/2000/svg">
<g id="#ffffffff">
<path fill="#ffffff" opacity="1.00" d=" M 48.47 0.00 L 51.72 0.00 C 66.36 0.56 80.62 7.80 89.50 19.48 C 96.02 27.75 99.59 38.15 100.00 48.64 L 100.00 51.75 C 99.44 65.45 93.12 78.81 82.68 87.74 C 74.19 95.21 63.09 99.46 51.83 100.00 L 48.25 100.00 C 34.32 99.43 20.72 92.91 11.81 82.15 C 4.60 73.73 0.52 62.85 0.00 51.81 L 0.00 48.41 C 0.45 37.30 4.55 26.34 11.79 17.87 C 20.76 7.05 34.45 0.48 48.47 0.00 M 26.47 19.56 C 18.76 25.48 13.50 34.42 12.01 44.03 C 20.63 43.95 29.17 41.76 36.82 37.79 C 44.99 33.59 55.09 33.60 63.26 37.79 C 70.93 41.63 79.38 44.00 87.99 44.03 C 85.89 30.02 75.47 17.64 61.91 13.43 C 50.04 9.48 36.31 11.83 26.47 19.56 M 46.41 41.49 C 39.91 43.86 38.81 53.66 44.55 57.44 C 49.52 61.46 57.83 58.34 58.98 52.08 C 61.01 45.12 52.94 38.32 46.41 41.49 M 12.24 57.75 C 15.12 72.58 27.45 84.83 42.25 87.77 C 42.24 81.82 42.24 75.88 42.26 69.93 C 42.61 63.44 36.58 57.40 30.09 57.74 C 24.14 57.76 18.19 57.76 12.24 57.75 M 57.74 70.01 C 57.76 75.93 57.75 81.85 57.75 87.77 C 72.55 84.81 84.82 72.56 87.77 57.75 C 81.82 57.75 75.88 57.76 69.94 57.74 C 63.47 57.53 57.49 63.54 57.74 70.01 Z" />
</g>
</svg>
