<?xml version="1.0" standalone="yes"?><!DOCTYPE svg PUBLIC "-//W3C//DTD SVG 1.1//EN" "http://www.w3.org/Graphics/SVG/1.1/DTD/svg11.dtd"><svg xmlns="http://www.w3.org/2000/svg" version="1.1"><polyline points="51.69627,792.5928 52.28336,799.8512 52.97657,807.8956 53.7255,816.0746 54.41498,823.24 55.21228,831.0616 56.12575,839.6656 57.02244,847.8863 57.83023,855.1703 58.72322,863.1577 59.51435,870.2094 60.41183,878.2274 61.32613,886.4521 62.06528,893.1562 62.88808,900.7028 63.80204,909.1957 64.48912,915.6594 65.34821,923.8536 66.08306,930.9923 66.76627,937.739 67.42055,944.3102 68.01631,950.4002 68.58615,956.3235 69.19054,962.7159 69.62509,967.3822 70.18633,973.4633 70.61681,978.141 71.07535,983.0989 71.48655,987.4685 71.92954,992.0397 72.33711,996.072 72.78373,1000.235 73.2112,1003.924 73.72502,1007.96 74.16592,1011.099 74.76062,1014.879 75.41333,1018.42 76.06001,1021.399 76.8315,1024.456 77.57957,1026.95 78.59776,1029.821 79.75449,1032.58 80.83603,1034.78 82.26599,1037.296 83.73828,1039.534 85.64993,1041.973 87.38593,1043.85 89.21312,1045.578 91.16162,1047.182 93.64705,1048.945 95.81442,1050.318 98.06761,1051.612 100.4109,1052.821 102.8369,1053.958 105.8241,1055.189 108.4572,1056.048 110.6729,1056.594 113.6644,1057.161 116.1181,1057.475 118.8057,1057.64 121.3584,1057.622 123.9117,1057.431 126.4591,1057.052 129.2469,1056.423 132.0176,1055.584 134.3932,1054.689 136.9989,1053.526 139.5423,1052.206 141.9062,1050.829 144.4177,1049.197 146.7575,1047.533 149.1686,1045.665 151.572,1043.647 154.4483,1041.023 156.8415,1038.667 159.3536,1036.028 161.6227,1033.505 164.067,1030.637 166.3475,1027.838 168.9451,1024.52 171.0827,1021.711 173.6845,1018.224 175.9219,1015.193 178.4121,1011.809 181.4419,1007.713 183.9522,1004.367 186.8666,1000.567 189.6826,997.0137 192.539,993.5537 195.3591,990.3018 198.236,987.1595 201.2798,984.0269 203.7704,981.6121 206.5786,979.0486 209.4401,976.6173 212.7699,974.0566 215.8507,971.9722 219.1219,970.0521 222.3098,968.4528 225.552,967.0766 228.8136,965.913 232.6957,964.7816 235.3797,964.144 238.6772,963.5089 242.6593,962.9446 245.9405,962.6265 249.2378,962.4133 252.6653,962.2748 256.0578,962.1921 259.3615,962.1392 263.4443,962.0835 266.856,962.0272 270.1241,961.9526 273.4697,961.8436 277.3348,961.6588 280.6522,961.4304 283.8581,961.1255 286.8771,960.723 289.9349,960.1408 293.162,959.2813 295.9662,958.3151 298.4836,957.2519 301.1263,955.9178 303.4051,954.5588 305.7298,952.9584 307.711,951.4156 309.7192,949.6782 311.7595,947.7238 313.5596,945.8275 315.613,943.4251 317.2248,941.3047 318.7445,939.0752 320.4561,936.2631 321.8006,933.8089 323.0864,931.2604 324.3256,928.6224 325.4811,925.9776 326.6042,923.1783 327.7433,920.0686 328.7734,916.9911 329.7455,913.7924 330.7973,909.9021 331.6384,906.3804 332.3919,902.8283 333.0706,899.2383 333.6878,895.5463 334.2337,891.6782 334.6928,887.7023 335.0906,883.4902 335.4326,878.8812 335.6689,874.5008 335.8124,870.5315 335.8967,866.0222 335.8848,860.4759 335.7812,855.9844 335.5872,851.2469 335.3012,846.367 334.9344,841.4991 334.4112,835.7944 333.8973,830.938 333.2899,825.7525 332.6262,820.4912 331.9219,815.1549 331.0805,808.9228 330.3743,803.6984 329.6673,798.4036 328.817,791.9048 328.0734,786.078 327.3618,780.3694 326.6472,774.5098 325.9387,768.5908 325.2317,762.6099 324.4148,755.6644 323.7211,749.7543 322.9355,743.0649 322.2039,736.8427 321.4663,730.5713 320.7241,724.2488 319.9796,717.8799 319.0992,710.2822 318.3708,703.9178 317.673,697.7262 316.8742,690.5045 316.1695,684.0035 315.4622,677.3488 314.7758,670.7601 314.0754,663.9034 313.3929,657.1178 312.6713,649.845 312.0432,643.4548 311.2593,635.4231 310.6879,629.5413 309.924,621.6633 309.2808,615.0259 308.5313,607.2976 307.88,600.5946 307.1558,593.1522 306.4605,586.0269 305.6787,578.0388 304.9856,570.9724 304.3473,564.4755 303.5403,556.2614 302.7921,548.6177 302.2112,542.6488 301.3972,534.21 300.6597,526.4714 299.9973,519.4431 299.2814,511.7681 298.5808,504.1868 297.8921,496.7023 297.1194,488.3124 296.5019,481.6551 295.6981,473.0893 294.9231,464.9957 294.2142,457.7666 293.4104,449.7549 292.5191,441.0817 291.8236,434.4461 290.9271,426.0083 290.1819,419.0817 289.3443,411.3651 288.5021,403.6323 287.5208,394.5954 286.6563,386.5575 285.8313,378.7588 285.0175,370.9488 284.2149,363.1201 283.405,355.0023 282.6644,347.3905 281.8619,338.9759 281.0215,330.0081 280.359,322.8716 279.5472,314.1313 278.8127,306.3026 277.9991,297.7942 277.2565,290.202 276.4276,281.9319 275.5085,272.9772 274.7944,266.1495 273.8572,257.3008 272.9539,248.8373 272.0616,240.4929 271.2851,233.2132 270.3535,224.4349 269.4679,216.0478 268.5572,207.3735 267.7182,199.363 266.7929,190.5237 266.0502,183.4407 265.0883,174.3018 264.2786,166.6517 263.2741,157.2147 262.412,149.1652 261.6399,141.9944 260.6645,132.9957 259.7874,124.9803 259.0128,117.9994 258.1044,110.0319 257.413,104.1807 256.537,97.17041 255.7744,91.49561 254.7279,84.41553 253.7789,78.84167 252.7443,73.54553 251.6495,68.60736 250.4259,63.76654 249.1646,59.42535 247.5406,54.79175 245.7364,50.45465 243.4578,45.55511 241.493,41.82538 238.9643,37.80188 236.3735,34.23523 233.6313,30.8407 230.6411,27.61957 227.6182,24.75958 224.2906,21.9317 220.8811,19.32477 216.7498,16.48773 213.712,14.57782 209.2644,12.05487 205.7763,10.29559 201.3396,8.278564 197.5413,6.732666 193.1729,5.14502 188.9922,3.806335 184.4272,2.558044 179.756,1.52887 175.4401,0.8131104 170.3461,0.2476196 165.9485,0.00378418 160.608,0 156.0865,0.2556763 150.7901,0.8504028 145.7883,1.699219 141.1795,2.707031 135.654,4.192139 130.2971,5.925537 125.1202,7.87207 120.8625,9.662537 115.479,12.14575 110.9438,14.46832 105.5702,17.48596 100.8166,20.41888 96.00583,23.72571 91.62602,27.07837 87.18762,30.74072 82.26822,35.13037 78.60893,38.66772 73.71002,43.79297 69.99309,48.05908 66.01375,52.94751 62.34708,57.76245 58.80199,62.72864 55.16759,68.18872 52.0995,73.08765 48.35095,79.57538 45.47306,85.05176 42.69434,90.86047 40.30229,96.42389 37.89741,102.7148 35.81671,108.8232 33.68202,115.8671 31.98811,122.2971 30.60132,128.392 29.17532,135.5223 28.03051,141.9166 27.03907,148.1326 26.16429,154.3702 25.3009,161.5039 24.67488,167.2703 24.18084,172.3396 23.74562,177.7361 23.39301,182.9763 23.10197,187.718 22.84398,192.8918 22.70135,197.394 22.58997,202.2502 22.5189,206.2899 22.50716,209.9985 22.55242,213.7705 22.6163,217.0533 22.71586,220.8534 22.82015,223.7679 22.94466,226.9805 23.04742,229.4902 23.14692,231.9404 23.24926,234.8803 23.30319,237.2462 23.31924,239.5945 23.27317,241.7275 23.16256,243.8066 22.99168,245.7287 22.50654,248.5921 21.90825,250.72 21.12678,252.6785 20.28268,254.3084 19.1997,256.0021 18.09881,257.3673 17.09929,258.3599 15.69672,259.5546 14.50212,260.4889 12.98267,261.6577 11.7341,262.6463 10.2234,263.9094 8.878809,265.1456 7.552984,266.5148 6.18155,268.0987 4.889318,269.8452 3.746932,271.6892 2.489889,274.0831 0,308.366 0.4064932,311.4703 0.8995986,314.9683 1.40279,318.3745 2.001525,322.3347 2.490561,325.5537 3.021019,329.0657 3.640782,333.2216 4.136069,336.5957 4.811993,341.23 5.341567,344.8696 5.981939,349.266 6.608709,353.5338 7.246494,357.8287 7.914886,362.2892 8.582748,366.7076 9.340782,371.6901 9.993952,375.9878 10.83474,381.5785 11.43067,385.6239 12.26973,391.4648 12.90037,395.9727 13.66408,401.6836 14.30478,406.8068 14.99107,412.6289 15.54249,417.5577 16.20731,423.8368 16.7398,429.1012 17.28926,434.7196 17.87701,440.8918 18.40037,446.471 18.98045,452.6981 19.51627,458.4788 20.09063,464.7198 20.60817,470.4313 21.14204,476.5063 21.66344,482.6304 22.2308,489.5302 22.66915,495.2608 23.12731,501.7659 23.6069,508.9374 23.95939,514.5825 24.35478,521.5703 24.71392,528.2786 25.05643,534.6986 25.46298,542.049 25.818,548.0157 26.25659,554.7916 26.716,561.3792 27.28682,568.7976 27.88546,575.8075 28.44253,581.929 29.21007,589.8945 29.89331,596.5293 30.60514,603.1887 31.40222,610.4563 32.15766,617.1802 32.99704,624.5146 33.81294,631.5302 34.67619,638.8125 35.50357,645.6531 36.38242,652.7581 37.30238,660.0111 38.21141,667.0505 39.16491,674.3545 40.27102,682.7788 41.14138,689.4249 42.17838,697.4315 43.09087,704.6206 44.07404,712.5732 44.90271,719.4525 45.83794,727.472 46.60432,734.2849 47.5104,742.7414 48.16527,749.2353 48.91367,757.2587 49.62791,765.6958 50.23277,773.4053 50.78952,780.76 " style="fill:none;stroke:red;stroke-width:4" /></svg>