<?xml version="1.0" standalone="yes"?><!DOCTYPE svg PUBLIC "-//W3C//DTD SVG 1.1//EN" "http://www.w3.org/Graphics/SVG/1.1/DTD/svg11.dtd"><svg xmlns="http://www.w3.org/2000/svg" version="1.1"><polyline points="40.67009,785.8281 41.51854,793.9438 42.14484,799.9857 42.83079,806.6593 43.5967,814.1716 44.37759,821.9003 45.02634,828.3853 45.87811,836.9664 46.47792,843.0405 47.24172,850.7961 48.1085,859.6053 48.8944,867.5897 49.57854,874.5253 50.30621,881.8853 51.07813,889.6714 51.83214,897.2538 52.58916,904.8423 53.13728,910.3225 53.96154,918.548 54.57639,924.6713 55.29925,931.855 55.9594,938.4068 56.83268,947.077 57.34323,952.1544 57.34323,952.1544 57.34323,952.1544 59.70242,975.8824 60.3862,982.8802 61.40786,993.5005 61.83195,997.9625 62.5738,1005.822 63.30915,1013.691 64.05766,1021.78 64.6841,1028.592 65.50215,1037.539 66.16252,1044.776 66.70447,1050.736 67.35996,1057.988 67.93563,1064.387 68.70063,1072.907 69.34888,1080.151 70.07085,1088.257 70.67628,1095.077 71.33594,1102.534 71.88009,1108.727 72.62322,1117.271 73.12034,1123.038 73.93707,1132.601 74.49985,1139.271 75.01292,1145.409 75.60249,1152.496 76.38393,1161.92 76.92812,1168.468 77.66484,1177.324 78.10354,1182.595 78.84915,1191.522 79.49684,1199.233 80.03156,1205.563 80.68229,1213.201 81.30441,1220.423 81.76527,1225.726 82.46045,1233.653 83.0602,1240.426 83.67931,1247.361 84.26405,1253.877 84.66332,1258.313 85.40199,1266.505 85.86485,1271.635 86.52608,1278.972 87.0418,1284.709 87.49523,1289.772 87.93184,1294.665 88.42972,1300.267 88.86872,1305.231 89.24218,1309.471 89.69307,1314.612 90.06121,1318.823 90.48582,1323.685 90.83814,1327.71 91.20023,1331.825 91.5684,1335.968 91.80135,1338.56 92.13351,1342.199 92.45138,1345.604 92.70976,1348.304 93.14329,1352.681 93.44951,1355.651 93.73194,1358.374 94.04486,1361.327 94.36133,1364.238 94.76057,1367.779 95.04955,1370.177 95.33486,1372.342 95.69559,1374.858 96.06738,1377.132 96.44205,1379.112 97.01337,1381.61 97.63426,1383.798 98.36392,1385.922 99.1198,1387.747 100.2002,1389.934 101.5021,1392.104 102.6012,1393.663 103.9243,1395.322 105.2561,1396.791 106.5971,1398.059 108.4512,1399.59 109.8323,1400.602 111.452,1401.657 113.7317,1402.866 115.3832,1403.522 117.3668,1404.181 119.1464,1404.683 121.1761,1405.186 122.6691,1405.539 124.4513,1405.961 126.3057,1406.42 127.6382,1406.769 129.6223,1407.354 130.7966,1407.786 132.1674,1408.381 134.0268,1409.442 135.3334,1410.337 136.1592,1410.963 137.7575,1412.365 138.5277,1413.13 139.6676,1414.427 140.7288,1415.917 141.7486,1417.736 142.3939,1419.146 142.9732,1420.695 143.4898,1422.53 143.8709,1424.46 144.0983,1426.016 144.2793,1427.739 144.3758,1429.38 144.4131,1430.987 144.3933,1433.136 144.3288,1434.834 144.2255,1436.552 144.0175,1438.948 143.7889,1440.938 143.5739,1442.508 143.1943,1444.839 142.8835,1446.516 142.4212,1448.749 142.051,1450.364 141.3619,1453.108 140.8275,1455.043 140.2082,1457.146 139.5509,1459.232 138.6578,1461.911 138.086,1463.56 136.8705,1466.965 136.1244,1469.025 135.1353,1471.758 134.2339,1474.274 133.3182,1476.878 132.1656,1480.236 131.1309,1483.336 130.0952,1486.522 128.9472,1490.167 128.265,1492.408 127.1483,1496.238 126.2794,1499.389 125.2306,1503.437 124.5481,1506.238 123.6449,1510.161 122.7126,1514.514 121.8693,1518.755 121.2952,1521.828 120.6214,1525.65 119.7952,1530.74 119.31,1533.998 118.6482,1538.874 118.0476,1543.843 117.6771,1547.249 117.2111,1551.982 116.7614,1557.183 116.4412,1561.405 116.1572,1565.68 115.8563,1571.098 115.646,1575.903 115.5096,1579.925 115.3875,1585.247 115.3305,1590.058 115.3234,1595.49 115.3644,1600.396 115.4401,1605.053 115.5626,1610.191 115.7118,1615.062 115.9678,1621.609 116.2076,1626.708 116.5742,1633.662 116.8945,1639.148 117.3158,1645.755 117.5802,1649.62 118.0818,1656.465 118.5942,1662.895 119.0717,1668.421 119.4212,1672.227 120.0482,1678.604 120.4535,1682.451 121.1688,1688.884 121.7924,1694.063 122.4844,1699.27 123.4395,1705.8 124.4732,1712.356 125.1371,1716.305 126.593,1724.229 127.3832,1728.199 128.7019,1734.33 129.7383,1738.807 131.3795,1745.428 132.7932,1750.723 134.6765,1757.339 136.3682,1762.964 138.3773,1769.25 140.1611,1774.533 141.8299,1779.317 143.9699,1785.251 145.9332,1790.352 149.1668,1798.014 151.8268,1804.013 153.9003,1808.548 157.5899,1816.109 159.656,1820.096 163.0823,1826.434 165.1951,1830.217 169.5915,1837.73 172.6765,1842.673 176.5612,1848.638 180.7891,1854.847 184.4336,1859.927 190.112,1867.428 194.4073,1872.769 198.2545,1877.301 199.9726,1879.26 216.5556,1896.523 223.1028,1902.54 229.534,1908.189 235.8378,1913.514 241.7881,1918.256 246.6421,1921.95 254.0186,1927.392 261.0764,1932.424 267.8577,1937.008 274.1625,1941.098 278.2087,1943.662 278.2087,1943.662 314.4469,1964.326 320.0358,1967.108 325.3916,1969.674 331.6484,1972.55 337.2431,1975.018 343.1745,1977.515 348.8615,1979.807 355.0366,1982.171 362.0082,1984.687 366.4915,1986.215 373.1071,1988.354 380.2257,1990.514 386.0257,1992.142 390.9386,1993.429 399.4953,1995.508 404.3188,1996.607 410.7196,1997.979 417.3256,1999.281 423.6109,2000.411 430.8004,2001.573 436.9622,2002.461 443.4959,2003.306 449.5063,2004.03 456.9463,2004.873 461.7479,2005.369 469.055,2006.04 476.1959,2006.631 481.0214,2007.006 487.4666,2007.474 493.7477,2007.887 498.0609,2008.145 506.8581,2008.622 511.7246,2008.861 519.8495,2009.228 526.5623,2009.504 532.8773,2009.747 541.0358,2010.042 549.6158,2010.336 555.3443,2010.525 560.6689,2010.697 570.1003,2010.996 577.2873,2011.225 583.6616,2011.431 591.8943,2011.704 598.4878,2011.933 604.2565,2012.144 611.8593,2012.441 621.4392,2012.853 628.4969,2013.191 634.3016,2013.488 642.2382,2013.923 648.7258,2014.3 654.7774,2014.664 660.9785,2015.048 668.6794,2015.538 675.952,2016.005 682.4284,2016.426 689.6194,2016.894 694.5045,2017.213 701.9598,2017.7 707.1045,2018.035 714.971,2018.54 720.9787,2018.92 727.1064,2019.302 732.2065,2019.612 738.3309,2019.973 743.0464,2020.24 749.2689,2020.577 753.0913,2020.775 759.4593,2021.094 763.6193,2021.295 768.6539,2021.536 773.085,2021.75 777.0763,2021.947 781.4265,2022.168 784.7875,2022.341 788.2913,2022.525 792.154,2022.732 796.0786,2022.947 799.1966,2023.127 802.8085,2023.343 805.645,2023.525 808.4526,2023.743 811.9407,2024.113 815.1955,2024.609 818.4708,2025.298 820.8298,2025.933 824.4369,2027.132 828.0602,2028.65 830.6355,2029.928 833.255,2031.427 836.2955,2033.45 839.3576,2035.916 841.9979,2038.419 844.3343,2040.951 846.2568,2043.459 847.8889,2045.849 849.3749,2048.122 851.0186,2050.717 852.5206,2053.093 853.6205,2054.807 855.5195,2057.675 856.9564,2059.741 858.2086,2061.463 859.9905,2063.775 861.7132,2065.818 863.752,2067.905 865.2702,2069.26 867.348,2070.894 869.2926,2072.232 871.688,2073.648 874.1796,2074.902 876.033,2075.729 878.3096,2076.665 880.2941,2077.423 882.8471,2078.343 885.6486,2079.302 887.5911,2079.945 890.3371,2080.829 892.0533,2081.366 894.9613,2082.25 897.2606,2082.925 899.1467,2083.459 902.2305,2084.29 904.2025,2084.793 907.3449,2085.554 910.3255,2086.233 912.782,2086.769 915.4625,2087.337 918.6396,2087.998 921.8667,2088.67 924.8827,2089.307 927.7648,2089.927 930.1284,2090.449 933.8867,2091.303 936.445,2091.905 940.2562,2092.828 943.6392,2093.672 947.7187,2094.718 951.134,2095.615 955.4869,2096.782 959.148,2097.785 963.097,2098.885 967.2289,2100.059 970.3736,2100.972 974.712,2102.263 979.347,2103.685 982.3524,2104.631 987.2151,2106.196 991.8994,2107.741 996.1426,2109.171 999.42,2110.292 1003.358,2111.656 1008.361,2113.414 1013.416,2115.217 1016.685,2116.391 1021.964,2118.292 1026.769,2120.019 1031.626,2121.748 1035.856,2123.232 1040.399,2124.811 1046.5,2126.909 1050.418,2128.246 1056.064,2130.162 1059.477,2131.315 1065.205,2133.249 1069.825,2134.809 1074.621,2136.43 1080.331,2138.362 1085.919,2140.255 1091.485,2142.14 1095.515,2143.504 1100.804,2145.289 1104.679,2146.593 1110.548,2148.555 1114.321,2149.804 1118.055,2151.023 1121.745,2152.202 1125.116,2153.25 1129.08,2154.442 1132.806,2155.514 1136.196,2156.438 1140.099,2157.423 1142.941,2158.074 1147.142,2158.898 1152.692,2159.688 1155.506,2159.955 1159.648,2160.156 1163.75,2160.143 1167.82,2159.955 1171.061,2159.684 1174.283,2159.288 1176.884,2158.878 1180.865,2158.141 1183.838,2157.512 1187.579,2156.591 1191.187,2155.534 1194.086,2154.571 1197.056,2153.478 1200.087,2152.231 1203.441,2150.661 1206.725,2148.909 1209.128,2147.465 1212.346,2145.332 1215.731,2142.843 1218.775,2140.379 1220.931,2138.47 1224.02,2135.486 1228.415,2130.819 1231.046,2127.706 1233.015,2125.152 1235.292,2121.95 1238.165,2117.448 1239.155,2115.766 1241.7,2111.076 1243.249,2107.907 1245.172,2103.551 1246.424,2100.419 1247.845,2096.529 1249.321,2091.944 1250.523,2087.602 1251.582,2083.303 1252.551,2078.927 1253.455,2074.211 1256.164,2053.897 1256.656,2048.53 1257.028,2043.664 1257.429,2037.751 1257.731,2032.763 1257.999,2027.882 1258.349,2021.227 1258.619,2015.806 1258.934,2009.456 1259.247,2003.493 1259.587,1997.473 1259.925,1991.861 1260.205,1987.435 1260.597,1981.595 1260.997,1976.021 1261.323,1971.664 1261.823,1965.392 1262.254,1960.342 1262.537,1957.171 1263.054,1951.596 1263.597,1945.998 1264.189,1940.081 1264.719,1934.864 1265.332,1928.871 1265.709,1925.163 1266.367,1918.629 1266.828,1913.908 1267.206,1909.894 1267.498,1906.656 1267.961,1901.185 1268.212,1897.903 1268.478,1894.05 1268.742,1889.5 1268.891,1886.277 1269.015,1882.23 1269.048,1877.904 1268.994,1875.184 1268.786,1871.139 1268.513,1868.159 1268.075,1864.791 1267.455,1861.253 1266.368,1856.562 1265.411,1853.427 1264.259,1850.359 1262.583,1846.616 1261.264,1844.061 1259.419,1840.85 1257.324,1837.425 1255.931,1835.253 1254.029,1832.533 1251.608,1829.682 1249.053,1826.935 1246.749,1824.52 1244.376,1822.133 1241.233,1819.275 1238.805,1817.185 1235.096,1814.076 1232.646,1812.089 1229.876,1809.927 1227.051,1807.79 1224.086,1805.601 1221.43,1803.689 1217.479,1800.955 1214.292,1798.838 1210.644,1796.486 1208.031,1794.843 1203.793,1792.281 1199.651,1789.882 1196.398,1788.051 1193.538,1786.47 1189.052,1784.046 1185.382,1782.12 1181.761,1780.27 1177.844,1778.31 1173.754,1776.288 1169.113,1774.011 1166.143,1772.559 1161.145,1770.113 1157.105,1768.128 1153.024,1766.109 1149.29,1764.247 1144.617,1761.898 1140.559,1759.845 1135.697,1757.371 1132.121,1755.542 1127.718,1753.281 1121.935,1750.302 1117.872,1748.201 1112.691,1745.515 1108.024,1743.087 1103.883,1740.926 1100.276,1739.039 1095.256,1736.402 1091.752,1734.554 1086.116,1731.569 1082.576,1729.686 1078.026,1727.255 1073.168,1724.648 1067.711,1721.704 1065.404,1720.454 1065.404,1720.454 1053.798,1714.12 1050.145,1712.112 1045.599,1709.602 1040.888,1706.989 1036.158,1704.356 1030.219,1701.034 1026.642,1699.025 1021.565,1696.161 1015.882,1692.943 1012.282,1690.894 1006.266,1687.446 1003.854,1686.055 996.6115,1681.837 990.1107,1678.003 985.7191,1675.383 980.8691,1672.457 974.8019,1668.754 968.7278,1665.007 963.5583,1661.785 958.0789,1658.334 954.2723,1655.913 948.7908,1652.39 944.0707,1649.319 937.0699,1644.7 931.5962,1641.038 926.1215,1637.331 920.044,1633.15 916.099,1630.4 910.336,1626.34 904.7292,1622.34 899.4272,1618.515 893.6733,1614.32 888.8278,1610.757 883.6784,1606.942 878.8303,1603.325 873.9813,1599.681 867.6173,1594.861 863.0703,1591.389 857.0101,1586.721 851.1062,1582.127 846.1246,1578.219 840.6946,1573.926 836.4725,1570.559 831.0511,1566.194 825.6351,1561.799 820.3714,1557.502 816.4586,1554.293 811.186,1549.955 806.2104,1545.85 800.7771,1541.354 795.3408,1536.835 789.1458,1531.66 785.0634,1528.236 778.5561,1522.761 773.1012,1518.16 767.1824,1513.158 761.5592,1508.399 757.9075,1505.304 752.424,1500.649 746.9329,1495.979 741.4376,1491.292 737.1594,1487.635 730.5866,1482.001 722.34,1474.871 716.4058,1469.665 710.7916,1464.684 704.2682,1458.87 697.8846,1453.186 693.769,1449.531 688.4182,1444.795 684.5869,1441.414 677.0547,1434.792 672.8919,1431.143 666.7104,1425.737 661.2911,1421.004 655.5552,1415.999 650.1224,1411.256 645.1515,1406.914 640.1772,1402.565 635.3558,1398.347 628.664,1392.485 623.9926,1388.389 619.0092,1384.017 613.7111,1379.367 607.7819,1374.162 601.3788,1368.543 596.5311,1364.29 591.3654,1359.762 584.6221,1353.859 580.2245,1350.015 573.9361,1344.523 568.4288,1339.718 563.8607,1335.733 558.0281,1330.648 553.7671,1326.934 547.4502,1321.432 542.39,1317.026 536.2153,1311.653 533.3636,1309.173 526.5452,1303.246 522.1055,1299.387 517.0466,1294.991 510.7997,1289.563 507.1283,1286.371 501.183,1281.2 497.0205,1277.575 491.3451,1272.625 487.8682,1269.589 483.7206,1265.961 478.7334,1261.59 474.5511,1257.917 471.2071,1254.974 467.6489,1251.84 464.2234,1248.817 460.8216,1245.824 456.947,1242.444 454.2335,1240.104 450.0106,1236.497 446.9641,1233.903 443.9493,1231.318 440.8904,1228.636 438.0822,1226.08 435.2937,1223.371 432.6475,1220.574 429.1252,1216.393 426.7194,1213.203 424.2282,1209.547 422.4763,1206.678 420.4281,1202.925 418.4268,1198.773 416.7198,1194.626 415.5066,1191.04 414.2553,1186.629 413.3369,1182.605 412.6127,1178.539 412.1225,1174.896 411.7115,1170.656 411.4992,1167.663 411.2297,1161.99 411.1502,1158.959 411.0966,1154.272 411.096,1150.974 411.1172,1146.832 411.1362,1142.785 411.1206,1138.113 411.0328,1133.527 410.8981,1130.125 410.4997,1124.255 410.1502,1120.809 409.4575,1115.88 408.5945,1111.371 407.9009,1108.377 406.8386,1104.372 405.9066,1101.249 404.4688,1096.932 402.8141,1092.598 401.2005,1088.909 400.0235,1086.461 397.5419,1081.776 396.0672,1079.232 393.6267,1075.352 391.9052,1072.828 389.3932,1069.423 386.9656,1066.394 384.2766,1063.267 381.4948,1060.21 379.1415,1057.708 376.519,1054.952 373.8972,1052.172 370.9007,1048.894 368.7506,1046.448 366.5629,1043.855 363.8119,1040.438 361.6496,1037.617 358.9714,1033.917 357.0092,1031.04 354.6319,1027.36 352.183,1023.223 349.9937,1019.186 348.2945,1015.878 346.1865,1011.421 344.4632,1007.309 343.1192,1003.861 341.4525,999.3633 340.2157,995.7994 338.7236,991.1296 337.3025,986.2379 336.0359,981.532 335.0052,977.4374 333.899,972.7281 333.1593,969.3613 331.9955,963.6791 331.3351,960.233 330.1033,953.2788 329.5332,949.7681 328.7793,944.7538 328.2418,940.89 327.5618,935.7987 326.8515,929.9197 326.2309,924.5961 325.6426,919.3777 325.0355,913.502 324.6286,909.3007 324.0498,903.0288 323.512,897.021 322.9566,890.8151 322.5653,886.4915 322.0157,880.5281 321.405,874.0397 320.9838,869.6368 320.3959,863.5697 319.7794,857.2979 319.3519,852.9841 318.7044,846.4807 318.1361,840.778 317.6839,836.2271 317.0163,829.4506 316.5529,824.6916 316.0139,819.0637 315.3566,812.0345 314.8849,806.866 314.1911,799.0745 313.7808,794.3768 313.1782,787.3901 312.4555,778.9618 312.0925,774.7287 311.3584,766.2236 310.7671,759.4603 310.2311,753.3915 309.6366,746.7553 309.0612,740.4503 308.4753,734.126 307.8475,727.4177 307.2978,721.5939 306.6548,714.8353 306.0414,708.4193 305.3893,701.6143 304.7709,695.1535 304.0641,687.7424 303.429,681.0504 302.9363,675.8304 302.2525,668.5361 301.7637,663.2823 301.0168,655.1884 300.5674,650.2802 299.9306,643.2767 299.2971,636.2501 298.7858,630.536 298.2256,624.238 297.785,619.2656 297.1266,611.8031 296.4858,604.5104 296.014,599.1279 295.2722,590.6499 294.8001,585.2401 294.1764,578.0784 293.5531,570.9017 292.9811,564.2902 292.5781,559.6147 291.7739,550.2448 291.2555,544.18 290.6702,537.3191 290.1848,531.6226 289.5648,524.3427 288.9103,516.6533 288.2551,508.9472 287.7511,503.0066 287.08,495.0718 286.4277,487.3184 285.8772,480.7472 285.3447,474.3674 284.8127,467.9761 284.2474,461.1732 283.648,453.9575 283.2141,448.7391 282.6279,441.7062 282.0041,434.2577 281.5114,428.4147 280.7894,419.9355 280.3357,414.6771 279.5901,406.1674 278.9229,398.6629 278.2857,391.5599 277.8259,386.4737 277.1563,379.1373 276.5564,372.6118 275.8038,364.4518 275.1978,357.9095 274.6819,352.3812 273.9673,344.7965 273.2051,336.7958 272.5324,329.8111 271.7503,321.7857 271.2434,316.6378 270.4448,308.5974 269.9486,303.6447 268.9449,293.7271 268.2679,287.1071 267.586,280.4808 266.7284,272.1903 266.0838,265.98 265.3551,258.9698 264.6538,252.2191 263.8316,244.2911 263.0588,236.817 262.3754,230.1827 261.5337,221.982 261.0236,217.0018 260.2122,209.0637 259.6879,203.9236 258.8242,195.4493 258.1443,188.7721 257.6461,183.8741 256.9312,176.8378 256.219,169.816 255.4708,162.4296 254.7872,155.6753 254.1866,149.7381 253.332,141.2836 252.8347,136.356 252.1235,129.3027 251.6949,125.0477 251.0458,118.6128 250.4021,112.3005 249.8975,107.4545 249.3024,101.9232 248.8925,98.26935 248.3056,93.37488 247.6751,88.59381 246.8308,82.96222 245.9802,78.18402 245.127,74.11572 243.9066,69.10809 242.4963,64.20673 241.2142,60.37177 239.7933,56.61749 237.9885,52.53302 235.9283,48.474 233.5962,44.3288 231.056,40.22699 228.6647,36.8075 226.5824,34.06604 223.6095,30.38013 220.5025,26.82111 218.5443,24.77625 215.3815,21.77423 212.1404,19.03912 208.4681,16.27844 205.6373,14.36139 201.3044,11.71436 198.4986,10.18567 194.5585,8.249817 190.7369,6.589355 186.0383,4.812988 181.7999,3.46167 178.3024,2.508972 173.5568,1.457275 169.6975,0.8080444 165.0504,0.2746582 160.4698,0.01013184 155.8459,0 151.8214,0.1987915 146.8932,0.6795044 142.7069,1.272827 138.381,2.057068 133.152,3.216187 128.8095,4.358582 124.2136,5.761902 118.6104,7.740845 114.1717,9.517822 109.2482,11.68994 105.8589,13.32233 101.1273,15.80017 95.96262,18.78339 92.20006,21.14807 88.49602,23.66968 84.52058,26.62335 80.60641,29.71301 77.43295,32.3432 72.99399,36.27521 68.66736,40.39575 64.68953,44.51434 58.07535,52.06409 54.99196,55.88849 51.26012,60.81848 47.76695,65.78467 43.89486,71.68207 40.6071,77.07953 37.47631,82.61853 34.78675,87.71521 31.94818,93.50073 29.79552,98.21912 27.23921,104.2147 25.29038,109.0818 22.97895,115.2537 21.67435,119.0098 19.65201,125.3531 17.79062,131.7831 16.57397,136.3309 14.80926,143.5563 13.38012,150.2091 12.47918,154.9081 11.36245,161.3312 10.33066,167.7797 9.42198,174.2831 8.726173,180.1407 8.003079,186.6992 7.682357,189.8198 7.001058,198.0443 6.695248,202.6095 6.275124,209.479 5.94445,215.8611 5.693358,221.5555 5.437754,227.9796 5.280812,232.2777 5.020488,240.5566 4.893242,245.2525 4.716764,252.4972 4.610866,257.5939 4.484065,265.0801 4.390594,271.4825 4.324184,276.4321 4.235596,284.916 4.197551,290.6558 4.167496,298.079 4.154564,303.6592 4.150321,309.2557 4.16822,316.7513 4.193316,321.2607 4.257772,329.5433 4.321869,335.5887 4.43229,343.1712 4.529474,348.6768 4.661803,355.3276 4.777934,360.2782 4.974525,367.5284 5.207818,375.174 5.432958,381.8802 5.694072,388.9877 5.970665,396.0977 6.183668,401.3011 6.527034,409.0331 6.818806,415.039 7.169483,421.8274 7.450035,427.0713 7.743964,432.3279 8.269426,441.1073 8.765553,448.9239 9.086302,453.8146 9.535105,460.4758 9.86193,465.1856 10.41844,472.8586 10.91013,479.3565 11.30412,484.4739 11.76407,490.3821 12.44944,498.8847 12.89407,504.2278 13.46226,510.9544 13.92314,516.3099 14.55716,523.4709 15.15333,530.0402 15.59132,534.819 16.32771,542.7932 16.77526,547.5924 17.5285,555.6 18.19068,562.6117 18.74045,568.4323 19.49892,576.4752 19.95381,581.3058 20.76891,589.9734 21.16765,594.2141 21.83413,601.2867 22.38931,607.1556 23.006,613.639 23.80302,621.9556 24.17499,625.8141 24.88466,633.1335 25.60072,640.4609 26.32325,647.7988 26.97167,654.3308 27.60527,660.6643 28.28454,667.4105 29.07283,675.1871 29.61717,680.5173 30.46298,688.7258 31.03875,694.27 32.00569,703.5225 32.65451,709.6965 33.54509,718.1447 34.08951,723.3027 34.96095,731.5625 35.48354,736.5229 36.1797,743.1428 37.04928,751.4266 37.92006,759.7214 38.53152,765.5319 39.36409,773.4247 39.97823,779.2466 " style="fill:none;stroke:red;stroke-width:4" /></svg>