<?xml version="1.0" standalone="yes"?><!DOCTYPE svg PUBLIC "-//W3C//DTD SVG 1.1//EN" "http://www.w3.org/Graphics/SVG/1.1/DTD/svg11.dtd"><svg xmlns="http://www.w3.org/2000/svg" version="1.1"><polyline points="337.0842,983.5992 342.9087,979.9669 349.0159,976.074 355.5061,971.8468 361.4092,967.9209 367.3075,963.9259 373.4915,959.6595 378.8966,955.8607 385.0623,951.4475 391.7931,946.5302 397.832,942.0165 403.7522,937.4895 408.4097,933.8443 415.4913,928.1478 421.1668,923.446 426.7338,918.7125 432.0964,914.0353 436.9998,909.6476 441.4225,905.6155 444.9812,902.3215 449.6031,897.9814 453.4968,894.2731 457.9389,889.9888 461.3618,886.6535 464.9004,883.1978 467.8239,880.3552 470.9541,877.3324 472.9954,875.3624 475.6427,872.7883 478.2894,870.1571 480.5383,867.8113 482.6315,865.4432 484.8821,862.5814 486.5863,860.0598 487.7915,857.9857 489.2863,854.9261 490.2792,852.422 491.0764,849.9843 491.8624,847.1261 492.6196,843.8269 493.0929,841.0969 493.3506,838.2908 493.3879,835.4272 493.1958,832.5123 492.7609,829.562 491.9099,825.9903 490.9774,822.985 489.9793,820.1956 488.6519,816.8457 487.4635,814.059 485.8439,810.4573 484.3074,807.1906 482.6732,803.8531 480.9538,800.4547 478.8232,796.3461 477.2568,793.3865 474.7155,788.664 472.5595,784.6869 470.602,781.0533 468.4203,776.9434 466.5741,773.4017 463.927,768.1761 461.9866,764.2164 459.7482,759.5103 457.8502,755.3864 455.6388,750.4203 453.8174,746.1924 451.7787,741.3406 449.3175,735.3549 447.5752,731.0482 445.3268,725.4404 443.3221,720.4193 441.2907,715.3336 439.2267,710.1858 437.1287,704.9819 434.9951,699.7233 432.495,693.6062 429.3126,685.8915 428.2996,683.4516 424.7386,674.9272 422.429,669.4407 420.13,664.0115 417.8143,658.5728 415.3328,652.7778 412.5089,646.2288 409.7204,639.8488 406.8767,633.4343 404.0993,627.1876 400.4622,618.8767 398.1102,613.338 395.4563,606.8757 393.0461,600.772 391.2073,595.9237 388.975,589.7958 386.2947,582.0585 384.3425,576.1093 382.3754,569.7839 380.4445,563.3002 378.6366,556.9908 376.7431,549.854 375.0538,543.1003 373.5824,537.0775 371.7319,529.4907 370.0716,522.8647 368.3276,516.2328 366.6759,510.3279 364.2302,502.2727 361.9293,495.3276 359.5565,488.6463 357.1771,482.3476 354.4385,475.5102 351.7572,469.1179 349.153,463.0903 346.0172,455.9594 343.7647,450.8578 341.1884,445.0368 338.855,439.7923 336.5567,434.6552 333.819,428.537 331.6937,423.7266 329.7775,419.2613 327.814,414.5645 325.8384,409.5282 324.4591,405.4265 323.2275,401.2293 322.1286,396.85 321.2607,392.4818 320.5907,387.7277 320.1552,382.1364 320.1174,377.7708 320.3511,373.5379 320.851,369.3696 321.5973,365.3367 322.6218,361.2227 324.0302,356.7521 325.5114,352.8342 327.5999,348.124 329.2669,344.8359 331.0986,341.57 333.891,337.1656 335.8691,334.375 338.4765,331.0363 341.3457,327.7441 343.9979,325.0223 346.8704,322.3675 350.1238,319.6757 353.1522,317.4187 356.4607,315.2076 360.1167,313.0276 363.2722,311.3563 367.3064,309.4745 371.0553,307.9779 374.8535,306.6931 379.3439,305.4582 383.3441,304.6165 386.3949,304.1361 390.5699,303.6903 394.3055,303.4719 398.3183,303.4167 402.6295,303.5323 406.6172,303.7783 410.605,304.1545 414.2348,304.6143 418.4696,305.2733 421.5426,305.7811 424.4173,306.2243 427.8028,306.6249 430.6208,306.7987 433.2718,306.8016 436.4387,306.588 439.3092,306.1746 442.4445,305.4656 445.348,304.5288 448.2175,303.356 451.1309,301.9368 453.6716,300.5247 456.6181,298.6325 458.668,297.0903 460.9182,295.1655 462.9191,293.2511 465.025,291.0146 467.1595,288.5306 469.1876,285.9693 471.5303,282.7788 473.4001,280.1593 475.2909,277.4875 477.5255,274.2789 479.469,271.373 480.9221,269.1021 482.8644,265.931 485.1037,262.0376 486.8324,258.7258 488.5034,255.1116 490.067,251.3242 491.7753,246.8099 492.9532,243.434 494.3032,239.3596 495.7355,234.8522 497.2447,229.9693 498.9537,224.3788 500.3088,219.9504 501.7217,215.3716 503.2341,210.5319 504.8003,205.5535 506.3363,200.6973 507.9285,195.7131 509.69,190.2374 511.5084,184.5941 513.1622,179.4737 514.8621,174.2236 516.6119,168.826 518.2315,163.8321 519.8222,158.9064 521.2975,154.3105 522.6894,149.9513 524.3055,144.8696 525.6117,140.7569 526.8131,136.9767 527.9938,133.2628 529.0929,129.7936 530.1134,126.5394 530.8558,124.1229 531.7657,121.043 532.5714,118.1341 533.2565,115.3333 533.853,112.5453 534.4029,109.3254 534.65,107.2509 534.775,105.247 534.7887,103.0837 534.6395,100.732 534.2947,98.44031 533.8478,96.45926 533.4484,95.11343 532.7983,93.36325 532.072,91.81744 531.1616,90.35077 529.9674,88.89426 528.6383,87.63907 527.2601,86.61783 525.454,85.53665 523.8215,84.76306 522.075,84.12122 520.2286,83.59921 518.0974,83.20355 515.8701,82.98035 513.5552,82.94757 511.2478,83.07846 508.8494,83.383 506.2814,83.89166 503.8206,84.52124 500.7125,85.49954 498.0324,86.46823 495.2622,87.52802 492.5767,88.56866 489.4743,89.76147 485.583,91.22018 482.9543,92.17889 479.6069,93.37082 475.2339,94.80618 471.5812,95.86267 468.7061,96.63129 464.186,97.75626 460.4255,98.60516 456.8658,99.34946 453.5326,100.0076 449.8464,100.6935 447.0228,101.1874 444.5038,101.5947 442.0186,101.9614 439.6733,102.2707 437.4029,102.5196 435.3084,102.6906 432.8554,102.7832 430.7101,102.6957 428.4519,102.3927 426.7647,102.0096 425.1733,101.4917 423.7914,100.8617 422.5286,100.0864 421.113,99.00235 420.1629,98.15121 419.2674,97.22501 418.2508,95.91464 417.5964,94.68823 417.1392,93.42065 416.9196,92.14059 416.9446,91.00729 417.2294,89.74365 417.6544,88.73499 418.3034,87.62625 419.2247,86.43832 420.1804,85.53217 421.376,84.6492 423.0326,83.71524 424.5265,83.09677 425.8543,82.673 427.5153,82.26724 429.4074,81.96005 431.1449,81.80347 432.8998,81.73456 434.9157,81.74954 436.876,81.85257 438.8493,82.03412 440.9528,82.29999 443.2103,82.63736 445.5067,82.99179 447.9372,83.33987 450.4691,83.65726 452.5814,83.87851 456.2942,84.11935 458.5202,84.14926 461.4063,84.04886 464.2371,83.77377 466.9595,83.30865 469.6143,82.64981 471.9138,81.87582 474.0603,80.91776 476.3247,79.62643 478.3757,78.15845 480.1445,76.60895 481.7545,74.89304 483.4391,72.62177 484.5155,70.76474 485.4355,68.72897 486.3487,65.84241 486.803,63.50986 487.0297,61.23602 487.0482,58.57883 486.8719,56.07367 486.5886,53.6333 486.2318,51.11472 485.8623,48.7359 485.3555,45.64777 484.8928,43.00574 484.3809,40.29538 483.6879,37.03842 482.9774,34.12289 482.2367,31.37335 481.3915,28.47678 480.4709,25.61462 479.4814,22.8313 478.1016,19.45035 476.9524,16.99725 475.6578,14.55185 474.2295,12.21072 472.6498,9.970123 471.1696,8.136414 469.5776,6.444397 467.5193,4.656982 465.7556,3.394806 463.8701,2.290619 461.6392,1.244293 459.7965,0.6342468 457.8675,0.2189941 455.6267,0 453.7129,0.02230835 451.1274,0.3394165 449.4584,0.7063904 446.6585,1.558594 444.5756,2.358337 442.5069,3.274689 440.6729,4.188843 438.2762,5.497864 436.5863,6.49823 434.0473,8.098572 432.087,9.405823 429.9698,10.87152 427.7611,12.4502 425.4807,14.11072 423.1128,15.85162 420.0085,18.14594 417.3132,20.14435 414.687,22.09778 412.011,24.09695 409.0934,26.29688 405.207,29.26892 402.5847,31.30511 399.4944,33.73502 396.3335,36.2493 392.4433,39.37567 389.1196,42.06824 386.4067,44.27859 382.1335,47.78369 378.0568,51.15762 374.5638,54.0777 370.5822,57.44504 366.9878,60.52234 363.2377,63.77481 359.4456,67.11053 355.6173,70.53458 351.762,74.05191 347.8894,77.67102 343.6882,81.71741 339.4299,85.96786 335.8345,89.69528 331.7006,94.15256 327.1732,99.2677 323.4517,103.666 319.9111,108.0179 316.743,112.0523 313.2302,116.6775 309.006,122.4582 305.6019,127.2946 302.3106,132.1356 299.0681,137.0663 294.8625,143.7138 291.9419,148.516 288.971,153.5681 285.9528,158.8854 282.105,165.9892 279.3515,171.3205 276.4799,177.122 273.705,183.0209 270.8499,189.5346 268.2766,195.9796 265.9001,202.6629 263.9497,208.9424 262.2935,215.1073 260.8297,221.4674 259.4201,228.7984 258.347,235.6511 257.4059,243.126 256.7804,249.6249 256.2816,256.8568 255.981,264.0181 255.8559,270.9851 255.8871,278.2189 256.1238,286.7759 256.4783,293.8376 256.8939,299.8566 257.6461,308.2598 258.5527,316.2088 259.2181,321.1979 260.4155,329.1671 261.9032,337.9857 263.2036,345.1531 264.5682,352.3396 265.702,358.1024 267.4922,366.8874 269.1293,374.6133 270.4,380.4204 272.5093,389.7565 274.132,396.6841 275.7235,403.2585 277.5191,410.4517 279.7944,419.2329 281.7685,426.5604 283.8129,433.8507 285.923,441.0585 288.4112,449.1406 290.2074,454.739 292.4657,461.6754 294.6061,468.1404 296.7158,474.237 298.8991,480.0924 301.3961,486.4301 303.5623,491.7292 305.8462,497.2322 307.9288,502.1459 309.8391,506.4551 311.8066,510.6689 314.6432,516.3628 316.4521,519.7711 318.2603,523.0194 320.1258,526.2088 321.9522,529.2337 323.4871,531.7789 325.1224,534.544 326.5916,537.1464 327.9669,539.773 329.0707,542.1536 330.3068,545.4346 331.0684,548.123 331.6763,551.0424 331.9552,553.2796 332.0386,555.8079 331.8662,558.3179 331.4482,560.8148 330.8445,563.0634 330.1238,565.2468 329.2993,567.8422 328.7548,569.981 328.3909,572.1003 328.2002,574.4085 328.241,576.9902 328.3542,579.0251 328.5509,581.2915 328.8584,583.414 329.3314,585.5255 329.9819,587.631 330.8226,589.7939 331.8622,591.8431 333.2525,594.0116 334.804,596.0432 336.4771,597.9538 338.2838,599.8516 340.3694,602.005 341.9922,603.71 344.3148,606.2506 346.2829,608.5166 348.265,610.9384 350.2543,613.5212 352.2572,616.2569 354.2802,619.1324 356.3066,622.1073 358.7432,625.814 360.7755,629.0225 362.661,632.0955 364.847,635.7731 366.884,639.3104 368.9259,642.956 371.0094,646.7722 373.1381,650.7561 375.8039,655.8482 377.625,659.3711 379.7204,663.446 381.9229,667.7411 384.1276,672.0447 386.3641,676.4123 388.6671,680.9092 391.3523,686.153 393.4161,690.1837 396.1001,695.4292 398.9042,700.9158 401.3367,705.6898 403.8752,710.691 406.3568,715.5964 408.8651,720.5632 411.5724,725.9279 414.1411,731.0167 416.7372,736.1565 419.4745,741.5685 422.177,746.9042 424.6181,751.7183 427.2085,756.8282 429.5156,761.3878 431.7677,765.8585 433.4024,769.1246 435.4051,773.168 437.528,777.5319 439.3113,781.3464 441.0239,785.2871 442.8185,789.9946 443.9313,793.4938 444.8866,797.2086 445.7488,801.8147 446.1835,805.5099 446.4003,809.243 446.4139,813.0054 446.2474,816.6445 445.8472,820.7281 445.3076,824.2422 444.5813,827.7255 443.7586,830.8857 442.4348,835.0573 441.1508,838.5027 439.7169,841.9272 438.1449,845.3326 436.335,848.92 434.5846,852.1329 431.99,856.5193 429.7366,860.0459 427.2375,863.7054 424.6569,867.2513 422.5576,869.9945 419.3411,873.9889 416.4231,877.4242 412.9131,881.3593 409.5245,884.986 405.8959,888.7012 402.0566,892.4606 398.3823,895.8945 394.5802,899.2814 390.3044,902.9187 386.1068,906.2983 382.6052,908.9429 379.1611,911.3505 375.2525,913.8158 371.8113,915.7452 368.0775,917.5809 364.8475,918.954 360.4238,920.5387 356.7191,921.6364 352.9845,922.5568 349.0905,923.3209 345.0986,923.9189 341.2655,924.3359 337.4655,924.6138 333.8297,924.7835 329.1089,924.9446 325.1292,925.1035 321.1697,925.3324 317.8438,925.5951 312.6108,926.1462 308.269,926.7228 303.8557,927.421 299.945,928.1401 295.6242,929.0409 291.245,930.0729 285.8222,931.5334 281.3377,932.8977 276.9829,934.3495 271.344,936.3943 266.6014,938.2372 262.1627,940.0441 257.6113,941.9637 252.8982,944.0121 248.616,945.9186 243.1162,948.4274 239.0147,950.3401 234.7164,952.3857 231.2781,954.0461 227.8837,955.7115 223.8996,957.6963 220.6742,959.3334 217.6414,960.9099 214.794,962.4481 212.0448,963.993 209.3603,965.5778 206.8784,967.1342 204.7157,968.62 202.5567,970.2726 200.5293,972.0914 198.7985,973.9221 197.1647,975.9786 195.7848,978.0166 194.5237,980.184 193.5336,982.0745 192.4453,984.3612 191.4604,986.5787 190.4401,988.9807 189.542,991.0724 188.4597,993.4819 187.1359,996.2134 185.9279,998.5062 184.5834,1000.851 183.0229,1003.322 181.3455,1005.692 180.0045,1007.428 177.8943,1009.741 175.0912,1012.278 173.168,1013.823 170.0743,1015.956 167.2585,1017.591 164.387,1019.056 161.3146,1020.439 158.0788,1021.721 154.5943,1022.938 151.2409,1024.005 147.4211,1025.116 143.4773,1026.169 139.4108,1027.17 135.4883,1028.073 131.1873,1029.003 126.6985,1029.91 122.0843,1030.764 117.3459,1031.535 113.915,1032.006 107.9545,1032.611 103.3312,1032.862 98.3788,1032.918 93.3437,1032.749 88.60484,1032.395 83.46371,1031.791 77.94446,1030.905 73.31071,1029.973 69.03571,1028.974 64.91632,1027.899 61.01752,1026.794 56.44185,1025.402 52.83836,1024.234 49.24472,1023.01 45.97859,1021.849 43.0361,1020.772 39.84193,1019.577 36.99283,1018.505 34.31934,1017.508 32.0368,1016.68 29.53473,1015.829 27.26633,1015.141 25.0358,1014.573 23.24962,1014.214 20.90399,1013.898 18.43076,1013.773 16.25974,1013.845 14.17619,1014.104 12.18391,1014.564 10.35243,1015.2 8.554886,1016.047 6.853302,1017.119 5.410568,1018.294 4.084854,1019.664 2.897598,1021.207 1.92067,1022.875 1.161682,1024.622 0.605423,1026.415 0.221817,1028.292 0.008773804,1030.335 0,1032.475 0.1318359,1034.328 0.4056702,1036.398 0.8264618,1038.711 1.307007,1040.835 2.026443,1043.534 2.749527,1045.936 3.55513,1048.347 4.469955,1050.867 4.76387,1051.637 6.774658,1056.445 8.096359,1059.248 9.647964,1062.29 11.21532,1065.138 13.00363,1068.181 14.30927,1070.266 15.97375,1072.679 17.99423,1075.191 20.26895,1077.521 22.66817,1079.557 25.08638,1081.227 27.45052,1082.551 29.99521,1083.717 31.79028,1084.416 34.45425,1085.295 36.758,1085.911 39.05276,1086.35 41.87022,1086.646 44.2634,1086.672 47.01122,1086.476 49.00856,1086.174 51.55022,1085.618 54.07649,1084.938 56.69115,1084.164 59.7251,1083.234 62.41606,1082.42 65.35022,1081.577 68.71165,1080.683 71.63661,1079.995 74.85658,1079.327 78.37968,1078.663 81.87193,1078.05 85.44237,1077.448 89.84651,1076.713 93.61707,1076.078 97.48236,1075.413 101.3744,1074.726 105.4894,1073.981 109.6275,1073.213 113.8555,1072.407 118.3183,1071.531 123.4647,1070.489 127.0595,1069.739 132.7033,1068.517 137.4429,1067.447 142.4966,1066.256 146.7099,1065.216 151.6306,1063.943 157.4113,1062.38 161.9137,1061.11 167.3792,1059.502 172.4437,1057.956 178.0285,1056.199 183.4886,1054.434 187.9575,1052.959 193.813,1050.99 198.9272,1049.24 204.7667,1047.199 210.4778,1045.156 215.9622,1043.153 221.7668,1040.984 228.1491,1038.536 233.9175,1036.257 240.4645,1033.586 244.9707,1031.69 251.2825,1028.963 257.2431,1026.303 263.1267,1023.594 268.8374,1020.895 273.4185,1018.681 280.3095,1015.265 286.4523,1012.138 293.2885,1008.577 299.0822,1005.489 304.599,1002.492 310.5141,999.2122 316.6346,995.7479 322.5684,992.3159 329.7729,988.0476 " style="fill:none;stroke:red;stroke-width:4" /></svg>