<?xml version="1.0" standalone="yes"?><!DOCTYPE svg PUBLIC "-//W3C//DTD SVG 1.1//EN" "http://www.w3.org/Graphics/SVG/1.1/DTD/svg11.dtd"><svg xmlns="http://www.w3.org/2000/svg" version="1.1"><polyline points="177.3633,3022.676 171.0437,3024.226 164.687,3025.512 157.2478,3026.699 151.1287,3027.513 145.4829,3028.208 139.7563,3028.899 132.4849,3029.8 126.502,3030.574 119.2913,3031.55 113.033,3032.421 106.9941,3033.266 99.89844,3034.244 93.18018,3035.138 87.51416,3035.855 80.41235,3036.689 74.61133,3037.292 69.1438,3037.777 62.1582,3038.271 56.69336,3038.544 50.40259,3038.703 45.19507,3038.726 40.58057,3038.659 35.72192,3038.48 32.17798,3038.288 28.10181,3038.011 24.90527,3037.75 21.5625,3037.428 18.86743,3037.139 16.51685,3036.861 14.62939,3036.621 12.82959,3036.378 11.49072,3036.188 10.17188,3035.992 9.262939,3035.853 8.225342,3035.689 7.288818,3035.539 6.375732,3035.387 5.33252,3035.208 4.477539,3035.057 3.723145,3034.922 2.735352,3034.741 1.991455,3034.601 1.100342,3034.431 0.3718262,3034.295 0,3034.249 0.005371094,3034.247 0.00390625,3034.246 0.003662109,3034.246 0.004150391,3034.247 0.004150391,3034.247 0.003662109,3034.246 0.005126953,3034.247 0.005126953,3034.247 0.003417969,3034.246 0.005615234,3034.247 0.005371094,3034.247 0.004394531,3034.247 0.00390625,3034.247 0.003417969,3034.246 0.003417969,3034.246 0.003173828,3034.246 0.005126953,3034.247 0.004882813,3034.247 0.004394531,3034.247 0.003173828,3034.246 0.003173828,3034.246 0.004638672,3034.247 0.002929688,3034.246 0.004638672,3034.247 0.004638672,3034.247 0.004638672,3034.247 0.002685547,3034.246 0.004638672,3034.247 0.00390625,3034.247 0.00390625,3034.247 0.003662109,3034.247 0.003173828,3034.247 0.003173828,3034.247 0.002685547,3034.247 0.003173828,3034.247 0.002685547,3034.247 0.004394531,3034.246 0.002685547,3034.247 0.004394531,3034.246 0.004394531,3034.246 0.004394531,3034.246 0.002929688,3034.247 0.003662109,3034.247 0.004150391,3034.246 0.002685547,3034.247 0.004150391,3034.246 0.004150391,3034.246 0.002685547,3034.247 0.004150391,3034.246 0.003173828,3034.247 0.002441406,3034.247 0.002929688,3034.247 0.003662109,3034.246 0.00390625,3034.246 0.002441406,3034.247 0.002929688,3034.247 0.00390625,3034.246 0.004150391,3034.246 0.002441406,3034.247 0.002441406,3034.247 0.003173828,3034.246 0.002197266,3034.246 0.002197266,3034.246 0.003662109,3034.246 0.002197266,3034.246 0.002197266,3034.246 0.002197266,3034.246 0.004150391,3034.246 0.002197266,3034.246 0.003173828,3034.246 0.004150391,3034.246 0.002197266,3034.246 0.003662109,3034.246 0.002197266,3034.246 0.003417969,3034.246 0.002929688,3034.247 0.002441406,3034.247 0.002929688,3034.247 0.004150391,3034.246 0.002441406,3034.247 0.002929688,3034.247 0.00390625,3034.246 0.003662109,3034.246 0.00390625,3034.246 0.002441406,3034.247 0.003417969,3034.246 0.00390625,3034.246 0.002197266,3034.246 0.003417969,3034.246 0.002197266,3034.246 0.003417969,3034.246 0.002197266,3034.246 0.00390625,3034.246 0.002685547,3034.247 0.003417969,3034.246 0.002197266,3034.247 0.002197266,3034.247 0.00390625,3034.246 0.003417969,3034.246 0.002441406,3034.247 0.002441406,3034.247 0.002441406,3034.247 0.002929688,3034.247 0.003662109,3034.246 0.003417969,3034.246 0.003417969,3034.246 0.003662109,3034.246 0.003662109,3034.246 0.002441406,3034.247 0.00390625,3034.246 0.00390625,3034.246 0.002685547,3034.247 0.002685547,3034.247 0.002685547,3034.247 0.00390625,3034.246 0.002685547,3034.247 0.003417969,3034.246 0.00390625,3034.246 0.002685547,3034.247 0.00390625,3034.246 0.002929688,3034.247 0.00390625,3034.246 0.002441406,3034.247 0.003417969,3034.246 0.00390625,3034.246 0.003662109,3034.246 0.002929688,3034.247 0.003417969,3034.246 0.00390625,3034.246 0.00390625,3034.246 0.00390625,3034.246 0.003662109,3034.246 0.003662109,3034.246 0.00390625,3034.246 0.002929688,3034.247 0.003662109,3034.246 0.002685547,3034.247 0.002685547,3034.247 0.00390625,3034.246 0.003662109,3034.246 0.002685547,3034.247 0.00390625,3034.246 0.002685547,3034.247 0.002685547,3034.247 0.003662109,3034.246 0.002441406,3034.247 0.003173828,3034.246 0.002441406,3034.247 0.00390625,3034.246 0.003173828,3034.246 0.002929688,3034.247 0.002441406,3034.247 0.003662109,3034.246 0.003417969,3034.246 0.003173828,3034.246 0.00390625,3034.246 0.003662109,3034.246 0.002197266,3034.247 0.002197266,3034.247 0.003173828,3034.246 0.003662109,3034.246 0.00390625,3034.246 0.00390625,3034.246 0.003662109,3034.246 0.002197266,3034.247 0.003417969,3034.246 0.002197266,3034.247 0.00390625,3034.246 0.002197266,3034.247 0.003662109,3034.246 0.002441406,3034.247 0.003173828,3034.246 0.002441406,3034.247 0.002441406,3034.247 0.00390625,3034.246 0.003662109,3034.246 0.002929688,3034.247 0.00390625,3034.246 0.00390625,3034.246 0.002929688,3034.247 0.00390625,3034.246 0.00390625,3034.246 0.002685547,3034.247 0.00390625,3034.246 0.002685547,3034.247 0.002685547,3034.247 0.002685547,3034.247 0.002685547,3034.247 0.002685547,3034.247 0.002685547,3034.247 0.002685547,3034.247 0.002441406,3034.247 0.003662109,3034.246 0.00390625,3034.246 0.002441406,3034.247 0.002441406,3034.247 0.00390625,3034.246 0.002441406,3034.247 0.002441406,3034.247 0.00390625,3034.246 0.00390625,3034.246 0.002441406,3034.247 0.002685547,3034.247 0.002929688,3034.247 0.00390625,3034.246 0.00390625,3034.246 0.00390625,3034.246 0.003417969,3034.246 0.002929688,3034.247 0.002685547,3034.247 0.003662109,3034.246 0.003662109,3034.246 0.002685547,3034.247 0.002441406,3034.247 0.002441406,3034.247 0.002929688,3034.247 0.00390625,3034.246 0.002441406,3034.247 0.003173828,3034.246 0.00390625,3034.246 0.002441406,3034.247 0.003417969,3034.246 0.00390625,3034.246 0.002441406,3034.247 0.00390625,3034.246 0.00390625,3034.246 0.002685547,3034.247 0.00390625,3034.246 0.00390625,3034.246 0.00390625,3034.246 0.002929688,3034.247 0.002685547,3034.247 0.003662109,3034.246 0.002685547,3034.247 0.00390625,3034.246 0.00390625,3034.246 0.00390625,3034.246 0.002441406,3034.247 0.002685547,3034.247 0.002929688,3034.247 0.002441406,3034.247 0.00390625,3034.246 0.00390625,3034.246 0.003173828,3034.246 0.00390625,3034.246 0.002685547,3034.247 0.00390625,3034.246 0.00390625,3034.246 0.00390625,3034.246 0.003662109,3034.246 0.002929688,3034.247 0.00390625,3034.246 0.002929688,3034.247 0.00390625,3034.246 0.002929688,3034.247 0.002929688,3034.247 0.002441406,3034.247 0.00390625,3034.246 0.00390625,3034.246 0.003662109,3034.246 0.00390625,3034.246 0.00390625,3034.246 0.00390625,3034.246 0.00390625,3034.246 0.003662109,3034.246 0.003173828,3034.247 0.002685547,3034.247 0.00390625,3034.246 0.00390625,3034.246 0.003417969,3034.246 0.002685547,3034.247 0.00390625,3034.246 0.002685547,3034.247 0.00390625,3034.246 0.003417969,3034.246 0.003173828,3034.246 0.003417969,3034.246 0.003662109,3034.246 0.00390625,3034.246 0.00390625,3034.246 0.00390625,3034.246 0.00390625,3034.246 0.002441406,3034.247 0.002441406,3034.247 0.002441406,3034.247 0.002441406,3034.247 0.00390625,3034.246 0.002685547,3034.247 0.003662109,3034.246 0.002685547,3034.247 0.00390625,3034.246 0.002685547,3034.247 0.003173828,3034.247 0.00390625,3034.246 0.00390625,3034.246 0.002685547,3034.247 0.00390625,3034.246 0.002441406,3034.247 0.00390625,3034.246 0.002929688,3034.247 0.002441406,3034.247 0.00390625,3034.246 0.002441406,3034.247 0.003173828,3034.246 0.002441406,3034.247 0.003662109,3034.246 0.00390625,3034.246 0.002685547,3034.247 0.003662109,3034.246 0.002685547,3034.247 0.00390625,3034.246 0.003173828,3034.247 0.002685547,3034.247 0.00390625,3034.246 0.002685547,3034.247 0.00390625,3034.246 0.00390625,3034.246 0.002929688,3034.247 0.002441406,3034.247 0.00390625,3034.246 0.003417969,3034.246 0.002929688,3034.247 0.002441406,3034.247 0.003662109,3034.246 0.002441406,3034.247 0.00390625,3034.246 0.003173828,3034.246 0.002685547,3034.247 0.003417969,3034.246 0.00390625,3034.246 0.002685547,3034.247 0.002685547,3034.247 0.00390625,3034.246 0.00390625,3034.246 0.00390625,3034.246 0.00390625,3034.246 0.002685547,3034.247 0.002685547,3034.247 0.002929688,3034.247 0.002929688,3034.247 0.00390625,3034.246 0.002441406,3034.247 0.003173828,3034.246 0.003417969,3034.246 0.003662109,3034.246 0.002441406,3034.247 0.00390625,3034.246 0.002441406,3034.247 0.00390625,3034.246 0.002685547,3034.247 0.00390625,3034.246 0.00390625,3034.246 0.002685547,3034.247 0.002685547,3034.247 0.00390625,3034.246 0.00390625,3034.246 0.003417969,3034.246 0.002929688,3034.247 0.003173828,3034.247 0.002685547,3034.247 0.002441406,3034.247 0.00390625,3034.246 0.002929688,3034.247 0.00390625,3034.246 0.003662109,3034.246 0.002441406,3034.247 0.00390625,3034.246 0.002441406,3034.247 0.00390625,3034.246 0.002929688,3034.247 0.003173828,3034.247 0.00390625,3034.246 0.003417969,3034.246 0.002929688,3034.247 0.002441406,3034.247 0.002441406,3034.247 0.002441406,3034.247 0.002441406,3034.247 0.002929688,3034.247 0.00390625,3034.246 0.00390625,3034.246 0.00390625,3034.246 0.002929688,3034.247 0.002441406,3034.247 0.00390625,3034.246 0.00390625,3034.246 0.003662109,3034.246 0.003417969,3034.246 0.003173828,3034.247 0.002685547,3034.247 0.003662109,3034.246 0.002685547,3034.247 0.00390625,3034.246 0.003173828,3034.247 0.00390625,3034.246 0.00390625,3034.246 0.002685547,3034.247 0.00390625,3034.246 0.003417969,3034.246 0.002441406,3034.247 0.002441406,3034.247 0.002441406,3034.247 0.00390625,3034.246 0.00390625,3034.246 0.003173828,3034.246 0.002441406,3034.247 0.00390625,3034.246 0.003417969,3034.246 0.002441406,3034.247 0.002685547,3034.247 0.002929688,3034.247 0.002929688,3034.247 0.002929688,3034.247 0.003417969,3034.246 0.00390625,3034.246 0.00390625,3034.246 0.002441406,3034.247 0.00390625,3034.246 0.00390625,3034.246 0.002929688,3034.247 0.002441406,3034.247 0.002441406,3034.247 0.00390625,3034.246 0.00390625,3034.246 0.003173828,3034.246 0.002441406,3034.247 0.003662109,3034.246 0.002685547,3034.247 0.003662109,3034.246 0.00390625,3034.246 0.002685547,3034.247 0.003417969,3034.246 0.00390625,3034.246 0.00390625,3034.246 0.002685547,3034.247 0.00390625,3034.246 0.003417969,3034.246 0.003662109,3034.246 0.00390625,3034.246 0.002441406,3034.247 0.002929688,3034.247 0.00390625,3034.246 0.002441406,3034.247 0.00390625,3034.246 0.002441406,3034.247 0.002441406,3034.247 0.003417969,3034.246 0.002441406,3034.247 0.002441406,3034.247 0.002929688,3034.247 0.002441406,3034.247 0.00390625,3034.246 0.003417969,3034.246 0.00390625,3034.246 0.00390625,3034.246 0.003173828,3034.247 0.002441406,3034.247 0.00390625,3034.246 0.002929688,3034.247 0.002441406,3034.247 0.00390625,3034.246 0.002441406,3034.247 0.002441406,3034.247 0.003417969,3034.246 0.003173828,3034.246 0.002441406,3034.247 0.003417969,3034.246 0.002441406,3034.247 0.00390625,3034.246 0.002685547,3034.247 0.003417969,3034.246 0.003417969,3034.246 0.002685547,3034.247 0.00390625,3034.246 0.002929688,3034.247 0.00390625,3034.246 0.002685547,3034.247 0.00390625,3034.246 0.002685547,3034.247 0.002441406,3034.247 0.002441406,3034.247 0.002441406,3034.247 0.002441406,3034.247 0.00390625,3034.246 0.002441406,3034.247 0.00390625,3034.246 0.00390625,3034.246 0.003662109,3034.246 0.002685547,3034.247 0.00390625,3034.246 0.00390625,3034.246 0.002441406,3034.247 0.002441406,3034.247 0.002685547,3034.247 0.003173828,3034.247 0.00390625,3034.246 0.00390625,3034.246 0.003173828,3034.247 0.00390625,3034.246 0.00390625,3034.246 0.00390625,3034.246 0.003662109,3034.246 0.00390625,3034.246 0.002441406,3034.247 0.002441406,3034.247 0.002441406,3034.247 0.002929688,3034.247 0.003417969,3034.246 0.00390625,3034.246 0.003662109,3034.246 0.003173828,3034.247 0.002929688,3034.247 0.002685547,3034.247 0.002685547,3034.247 0.00390625,3034.246 0.002685547,3034.247 0.002685547,3034.247 0.002685547,3034.247 0.00390625,3034.246 0.003173828,3034.246 0.003173828,3034.246 0.002929688,3034.247 0.00390625,3034.246 0.00390625,3034.246 0.002441406,3034.247 0.002441406,3034.247 0.002929688,3034.247 0.00390625,3034.246 0.003417969,3034.246 0.003173828,3034.246 0.002685547,3034.247 0.002441406,3034.247 0.00390625,3034.246 0.00390625,3034.246 0.002929688,3034.247 0.00390625,3034.246 0.002441406,3034.247 0.003662109,3034.246 0.002441406,3034.247 0.002929688,3034.247 0.003417969,3034.246 0.003662109,3034.246 0.00390625,3034.246 0.002441406,3034.247 0.003417969,3034.246 0.00390625,3034.246 0.00390625,3034.246 0.002685547,3034.247 0.003173828,3034.246 0.002685547,3034.247 0.002929688,3034.247 0.00390625,3034.246 0.003662109,3034.246 0.00390625,3034.246 0.003662109,3034.246 0.00390625,3034.246 0.00390625,3034.246 0.00390625,3034.246 0.003173828,3034.247 0.002685547,3034.247 0.00390625,3034.246 0.00390625,3034.246 0.00390625,3034.246 0.003662109,3034.246 0.00390625,3034.246 0.00390625,3034.246 0.00390625,3034.246 0.002441406,3034.247 0.002441406,3034.247 0.002441406,3034.247 0.002441406,3034.247 0.002685547,3034.247 0.002685547,3034.247 0.00390625,3034.246 0.003417969,3034.246 0.003662109,3034.246 0.00390625,3034.246 0.002441406,3034.247 0.00390625,3034.246 0.002441406,3034.247 0.00390625,3034.246 0.002441406,3034.247 0.003417969,3034.246 0.00390625,3034.246 0.00390625,3034.246 0.002441406,3034.247 0.00390625,3034.246 0.002929688,3034.247 0.002441406,3034.247 0.00390625,3034.246 0.002441406,3034.247 0.00390625,3034.246 0.002929688,3034.247 0.002441406,3034.247 0.00390625,3034.246 0.002441406,3034.247 0.00390625,3034.246 0.002441406,3034.247 0.00390625,3034.246 0.003662109,3034.246 0.002441406,3034.247 0.002441406,3034.247 0.002441406,3034.247 0.002685547,3034.247 0.00390625,3034.246 0.002441406,3034.247 0.003662109,3034.246 0.00390625,3034.246 0.002685547,3034.247 0.00390625,3034.246 0.002441406,3034.247 0.00390625,3034.246 0.00390625,3034.246 0.00390625,3034.246 0.002929688,3034.247 0.002441406,3034.247 0.00390625,3034.246 0.00390625,3034.246 0.002441406,3034.247 0.003662109,3034.246 0.00390625,3034.246 0.003417969,3034.246 0.00390625,3034.246 0.002929688,3034.247 0.003173828,3034.246 0.003417969,3034.246 0.002441406,3034.247 0.00390625,3034.246 0.00390625,3034.246 0.003173828,3034.246 0.002685547,3034.247 0.00390625,3034.246 0.00390625,3034.246 0.002929688,3034.247 0.002685547,3034.247 0.002685547,3034.247 0.002929688,3034.247 0.003662109,3034.246 0.003417969,3034.246 0.002441406,3034.247 0.003417969,3034.246 0.003173828,3034.246 0.002929688,3034.247 0.003173828,3034.246 0.00390625,3034.246 0.003173828,3034.246 0.002441406,3034.247 0.00390625,3034.246 0.003417969,3034.246 0.002441406,3034.247 0.003417969,3034.246 0.003417969,3034.246 0.002929688,3034.247 0.002685547,3034.247 0.002685547,3034.247 0.003662109,3034.246 0.002685547,3034.247 0.002685547,3034.247 0.002929688,3034.247 0.00390625,3034.246 0.00390625,3034.246 0.002441406,3034.247 0.003662109,3034.246 0.002685547,3034.247 0.00390625,3034.246 0.002929688,3034.247 0.00390625,3034.246 0.00390625,3034.246 0.002441406,3034.247 0.00390625,3034.246 0.002441406,3034.247 0.00390625,3034.246 0.003417969,3034.246 0.003173828,3034.247 0.002685547,3034.247 0.00390625,3034.246 0.002685547,3034.247 0.002685547,3034.247 0.003662109,3034.246 0.003173828,3034.247 0.002685547,3034.247 0.003173828,3034.247 0.003173828,3034.246 0.00390625,3034.246 0.002441406,3034.247 0.003417969,3034.246 0.00390625,3034.246 0.002441406,3034.247 0.002441406,3034.247 0.00390625,3034.246 0.002441406,3034.247 0.003662109,3034.246 0.00390625,3034.246 0.00390625,3034.246 0.002441406,3034.247 0.00390625,3034.246 0.002441406,3034.247 0.00390625,3034.246 0.00390625,3034.246 0.00390625,3034.246 0.00390625,3034.246 0.00390625,3034.246 0.00390625,3034.246 0.002929688,3034.247 0.002441406,3034.247 0.002441406,3034.247 0.00390625,3034.246 0.00390625,3034.246 0.003173828,3034.246 0.00390625,3034.246 0.003662109,3034.246 0.002685547,3034.247 0.00390625,3034.246 0.00390625,3034.246 0.00390625,3034.246 0.002441406,3034.247 0.002929688,3034.247 0.003173828,3034.247 0.00390625,3034.246 0.00390625,3034.246 0.003417969,3034.246 0.00390625,3034.246 0.00390625,3034.246 0.00390625,3034.246 0.003662109,3034.246 0.00390625,3034.246 0.00390625,3034.246 0.00390625,3034.246 0.00390625,3034.246 0.00390625,3034.246 0.00390625,3034.246 0.003173828,3034.246 0.002929688,3034.247 0.00390625,3034.246 0.00390625,3034.246 0.00390625,3034.246 0.003662109,3034.246 0.003662109,3034.246 0.002685547,3034.247 0.002685547,3034.247 0.00390625,3034.246 0.002685547,3034.247 0.00390625,3034.246 0.00390625,3034.246 0.00390625,3034.246 0.002441406,3034.247 0.002441406,3034.247 0.002441406,3034.247 0.002441406,3034.247 0.00390625,3034.246 0.00390625,3034.246 0.00390625,3034.246 0.00390625,3034.246 0.00390625,3034.246 0.002929688,3034.247 0.002685547,3034.247 0.00390625,3034.246 0.00390625,3034.246 0.00390625,3034.246 0.003417969,3034.246 0.003173828,3034.247 0.002929688,3034.247 0.002685547,3034.247 0.00390625,3034.246 0.003417969,3034.246 0.003662109,3034.246 0.002441406,3034.247 0.00390625,3034.246 0.00390625,3034.246 0.002441406,3034.247 0.00390625,3034.246 0.002929688,3034.247 0.002441406,3034.247 0.00390625,3034.246 0.00390625,3034.246 0.002685547,3034.247 0.002929688,3034.247 0.003662109,3034.246 0.00390625,3034.246 0.00390625,3034.246 0.00390625,3034.246 0.00390625,3034.246 0.002929688,3034.247 0.00390625,3034.246 0.002441406,3034.247 0.00390625,3034.246 0.002441406,3034.247 0.003662109,3034.246 0.002441406,3034.247 0.00390625,3034.246 0.003417969,3034.246 0.002685547,3034.247 0.00390625,3034.246 0.00390625,3034.246 0.002929688,3034.247 0.00390625,3034.246 0.00390625,3034.246 0.003417969,3034.246 0.00390625,3034.246 0.002685547,3034.247 0.002685547,3034.247 0.002929688,3034.247 0.00390625,3034.246 0.002685547,3034.247 0.002685547,3034.247 0.003417969,3034.246 0.00390625,3034.246 0.00390625,3034.246 0.003417969,3034.246 0.003173828,3034.246 0.003417969,3034.246 0.002685547,3034.247 0.002441406,3034.247 0.00390625,3034.246 0.002929688,3034.247 0.00390625,3034.246 0.002929688,3034.247 0.003662109,3034.246 0.002685547,3034.247 0.002685547,3034.247 0.00390625,3034.246 0.003417969,3034.246 0.002685547,3034.247 0.002685547,3034.247 0.002929688,3034.247 0.002685547,3034.247 0.003662109,3034.246 0.002929688,3034.247 0.002929688,3034.247 0.002441406,3034.247 0.00390625,3034.246 0.003662109,3034.246 0.002929688,3034.247 0.00390625,3034.246 0.00390625,3034.246 0.002441406,3034.247 0.00390625,3034.246 0.00390625,3034.246 0.003173828,3034.247 0.003417969,3034.246 0.00390625,3034.246 0.00390625,3034.246 0.00390625,3034.246 0.002685547,3034.247 0.003662109,3034.246 0.002685547,3034.247 0.002685547,3034.247 0.002929688,3034.247 0.00390625,3034.246 0.003662109,3034.246 0.002441406,3034.247 0.002441406,3034.247 0.002441406,3034.247 0.003417969,3034.246 0.002441406,3034.247 0.002685547,3034.247 0.002441406,3034.247 0.00390625,3034.246 0.002685547,3034.247 0.003173828,3034.247 0.00390625,3034.246 0.002685547,3034.247 0.002929688,3034.247 0.003662109,3034.246 0.00390625,3034.246 0.00390625,3034.246 0.00390625,3034.246 0.00390625,3034.246 0.00390625,3034.246 0.002441406,3034.247 0.003173828,3034.246 0.00390625,3034.246 0.00390625,3034.246 0.00390625,3034.246 0.00390625,3034.246 0.00390625,3034.246 0.00390625,3034.246 0.00390625,3034.246 0.00390625,3034.246 0.00390625,3034.246 0.002685547,3034.247 0.00390625,3034.246 0.002929688,3034.247 0.00390625,3034.246 0.003662109,3034.246 0.00390625,3034.246 0.002685547,3034.247 0.00390625,3034.246 0.00390625,3034.246 0.00390625,3034.246 0.003417969,3034.246 0.00390625,3034.246 0.002441406,3034.247 0.002685547,3034.247 0.003173828,3034.246 0.003662109,3034.246 0.002929688,3034.247 0.003662109,3034.246 0.00390625,3034.246 0.002441406,3034.247 0.002929688,3034.247 0.003173828,3034.247 0.002685547,3034.247 0.002685547,3034.247 0.002685547,3034.247 0.003417969,3034.246 0.00390625,3034.246 0.00390625,3034.246 0.002685547,3034.247 0.002685547,3034.247 0.002929688,3034.247 0.003417969,3034.246 0.003662109,3034.246 0.00390625,3034.246 0.002441406,3034.247 0.002441406,3034.247 0.003662109,3034.246 0.00390625,3034.246 0.002929688,3034.247 0.00390625,3034.246 0.00390625,3034.246 0.002929688,3034.247 0.002685547,3034.247 0.00390625,3034.246 0.002685547,3034.247 0.00390625,3034.246 0.003662109,3034.246 0.002685547,3034.247 0.002685547,3034.247 0.002685547,3034.247 0.002685547,3034.247 0.002685547,3034.247 0.002441406,3034.247 0.002929688,3034.247 0.003662109,3034.246 0.002441406,3034.247 0.002929688,3034.247 0.003173828,3034.246 0.002441406,3034.247 0.003417969,3034.246 0.00390625,3034.246 0.002441406,3034.247 0.002929688,3034.247 0.003173828,3034.247 0.003173828,3034.247 0.003173828,3034.247 0.003173828,3034.247 0.002929688,3034.247 0.002685547,3034.247 0.002685547,3034.247 0.003417969,3034.246 0.00390625,3034.246 0.003662109,3034.246 0.00390625,3034.246 0.002441406,3034.247 0.003662109,3034.246 0.002441406,3034.247 0.002441406,3034.247 0.00390625,3034.246 0.002441406,3034.247 0.003417969,3034.246 0.00390625,3034.246 0.003417969,3034.246 0.002441406,3034.247 0.003173828,3034.247 0.002685547,3034.247 0.003662109,3034.246 0.00390625,3034.246 0.002685547,3034.247 0.002685547,3034.247 0.002929688,3034.247 0.002685547,3034.247 0.002685547,3034.247 0.002685547,3034.247 0.002441406,3034.247 0.003662109,3034.246 0.00390625,3034.246 0.00390625,3034.246 0.00390625,3034.246 0.002441406,3034.247 0.00390625,3034.246 0.002441406,3034.247 0.003662109,3034.246 0.002441406,3034.247 0.00390625,3034.246 0.003173828,3034.247 0.003662109,3034.246 0.003417969,3034.246 0.003417969,3034.246 0.00390625,3034.246 0.002685547,3034.247 0.002685547,3034.247 0.00390625,3034.246 0.003417969,3034.246 0.003417969,3034.246 0.002929688,3034.247 0.003173828,3034.246 0.00390625,3034.246 0.002441406,3034.247 0.003173828,3034.246 0.002441406,3034.247 0.003173828,3034.246 0.002441406,3034.247 0.003662109,3034.246 0.002441406,3034.247 0.002441406,3034.247 0.002929688,3034.247 0.003173828,3034.247 0.002685547,3034.247 0.00390625,3034.246 0.002685547,3034.247 0.003173828,3034.247 0.00390625,3034.246 0.00390625,3034.246 0.003173828,3034.247 0.003417969,3034.246 0.003662109,3034.246 0.002929688,3034.247 0.002441406,3034.247 0.003662109,3034.246 0.002441406,3034.247 0.003417969,3034.246 0.00390625,3034.246 0.002685547,3034.247 0.00390625,3034.246 0.002441406,3034.247 0.003662109,3034.246 0.002685547,3034.247 0.003417969,3034.246 0.002685547,3034.247 0.002929688,3034.247 0.002685547,3034.247 0.00390625,3034.246 0.002929688,3034.247 0.002685547,3034.247 0.002685547,3034.247 0.00390625,3034.246 0.003417969,3034.246 0.003173828,3034.246 0.003662109,3034.246 0.003417969,3034.246 0.00390625,3034.246 0.003662109,3034.246 0.00390625,3034.246 0.003662109,3034.246 0.002685547,3034.247 0.002685547,3034.247 0.003662109,3034.246 0.00390625,3034.246 0.003173828,3034.247 0.002685547,3034.247 0.003662109,3034.246 0.002685547,3034.247 0.003417969,3034.246 0.00390625,3034.246 0.002685547,3034.247 0.002685547,3034.247 0.00390625,3034.246 0.00390625,3034.246 0.002929688,3034.247 0.002929688,3034.247 0.002685547,3034.247 0.002441406,3034.247 0.003173828,3034.246 0.003173828,3034.246 0.003662109,3034.246 0.00390625,3034.246 0.002441406,3034.247 0.003173828,3034.246 0.002441406,3034.247 0.00390625,3034.246 0.002929688,3034.247 0.002685547,3034.247 0.00390625,3034.246 0.00390625,3034.246 0.003173828,3034.247 0.002685547,3034.247 0.00390625,3034.246 0.002685547,3034.247 0.00390625,3034.246 0.00390625,3034.246 0.003173828,3034.246 0.002441406,3034.247 0.00390625,3034.246 0.00390625,3034.246 0.00390625,3034.246 0.00390625,3034.246 0.00390625,3034.246 0.003662109,3034.246 0.00390625,3034.246 0.002441406,3034.247 0.002441406,3034.247 0.002441406,3034.247 0.002929688,3034.247 0.002929688,3034.247 0.00390625,3034.246 0.00390625,3034.246 0.002441406,3034.247 0.003662109,3034.246 0.003662109,3034.246 0.002929688,3034.247 0.002441406,3034.247 0.002441406,3034.247 0.003173828,3034.246 0.002441406,3034.247 0.00390625,3034.246 0.002929688,3034.247 0.003662109,3034.246 0.002441406,3034.247 0.00390625,3034.246 0.00390625,3034.246 0.002441406,3034.247 0.00390625,3034.246 0.002685547,3034.247 0.002929688,3034.247 0.002441406,3034.247 0.003173828,3034.247 0.003662109,3034.246 0.00390625,3034.246 0.003173828,3034.246 0.002441406,3034.247 0.003662109,3034.246 0.002441406,3034.247 0.003417969,3034.246 0.002441406,3034.247 0.002441406,3034.247 0.002441406,3034.247 0.00390625,3034.246 0.003173828,3034.246 0.002441406,3034.247 0.00390625,3034.246 0.002441406,3034.247 0.002441406,3034.247 0.00390625,3034.246 0.00390625,3034.246 0.00390625,3034.246 0.003662109,3034.246 0.002441406,3034.247 0.00390625,3034.246 0.002441406,3034.247 0.00390625,3034.246 0.00390625,3034.246 0.003173828,3034.246 0.002685547,3034.247 0.00390625,3034.246 0.003417969,3034.246 0.00390625,3034.246 0.003173828,3034.246 0.002929688,3034.247 0.00390625,3034.246 0.003662109,3034.246 0.00390625,3034.246 0.00390625,3034.246 0.00390625,3034.246 0.00390625,3034.246 0.002441406,3034.247 0.00390625,3034.246 0.00390625,3034.246 0.002441406,3034.247 0.002441406,3034.247 0.00390625,3034.246 0.003662109,3034.246 0.002929688,3034.247 0.002441406,3034.247 0.003417969,3034.246 0.002929688,3034.247 0.00390625,3034.246 0.003662109,3034.246 0.002441406,3034.247 0.00390625,3034.246 0.002685547,3034.247 0.002685547,3034.247 0.00390625,3034.246 0.002685547,3034.247 0.002685547,3034.247 0.003417969,3034.246 0.003662109,3034.246 0.00390625,3034.246 0.002929688,3034.247 0.00390625,3034.246 0.002441406,3034.247 0.00390625,3034.246 0.00390625,3034.246 0.00390625,3034.246 0.00390625,3034.246 0.002441406,3034.247 0.002441406,3034.247 0.002441406,3034.247 0.00390625,3034.246 0.00390625,3034.246 0.00390625,3034.246 0.002685547,3034.247 0.002685547,3034.247 0.00390625,3034.246 0.002685547,3034.247 0.003417969,3034.246 0.00390625,3034.246 0.00390625,3034.246 0.002929688,3034.247 0.00390625,3034.246 0.002685547,3034.247 0.00390625,3034.246 0.003417969,3034.246 0.002929688,3034.247 0.002441406,3034.247 0.003173828,3034.246 0.002441406,3034.247 0.002441406,3034.247 0.002441406,3034.247 0.00390625,3034.246 0.00390625,3034.246 0.002685547,3034.247 0.002929688,3034.247 0.00390625,3034.246 0.002685547,3034.247 0.003662109,3034.246 0.002685547,3034.247 0.003662109,3034.246 0.002685547,3034.247 0.002929688,3034.247 0.00390625,3034.246 0.002685547,3034.247 0.00390625,3034.246 0.00390625,3034.246 0.003417969,3034.246 0.002929688,3034.247 0.00390625,3034.246 0.002929688,3034.247 0.002441406,3034.247 0.00390625,3034.246 0.003662109,3034.246 0.003173828,3034.247 0.00390625,3034.246 0.002685547,3034.247 0.003417969,3034.246 0.002685547,3034.247 0.003417969,3034.246 0.00390625,3034.246 0.002685547,3034.247 0.003662109,3034.246 0.00390625,3034.246 0.003173828,3034.246 0.002441406,3034.247 0.00390625,3034.246 0.002441406,3034.247 0.002441406,3034.247 0.00390625,3034.246 0.003662109,3034.246 0.00390625,3034.246 0.002685547,3034.247 0.003173828,3034.246 0.002929688,3034.247 0.00390625,3034.246 0.002929688,3034.247 0.002685547,3034.247 0.00390625,3034.246 0.00390625,3034.246 0.002685547,3034.247 0.00390625,3034.246 0.003173828,3034.247 0.002929688,3034.247 0.002685547,3034.247 0.002929688,3034.247 0.003173828,3034.246 0.00390625,3034.246 0.002929688,3034.247 0.00390625,3034.246 0.002441406,3034.247 0.002685547,3034.247 0.003417969,3034.246 0.002441406,3034.247 0.002441406,3034.247 0.00390625,3034.246 0.003662109,3034.246 0.002685547,3034.247 0.00390625,3034.246 0.003173828,3034.247 0.002685547,3034.247 0.00390625,3034.246 0.003173828,3034.247 0.002929688,3034.247 0.002685547,3034.247 0.00390625,3034.246 0.002441406,3034.247 0.002441406,3034.247 0.002929688,3034.247 0.00390625,3034.246 0.00390625,3034.246 0.00390625,3034.246 0.002441406,3034.247 0.002441406,3034.247 0.003417969,3034.246 0.00390625,3034.246 0.003417969,3034.246 0.003417969,3034.246 0.002685547,3034.247 0.003417969,3034.246 0.003173828,3034.247 0.003173828,3034.247 0.00390625,3034.246 0.003662109,3034.246 0.002929688,3034.247 0.00390625,3034.246 0.002441406,3034.247 0.002441406,3034.247 0.002441406,3034.247 0.002441406,3034.247 0.002441406,3034.247 0.00390625,3034.246 0.002441406,3034.247 0.00390625,3034.246 0.002685547,3034.247 0.002685547,3034.247 0.003662109,3034.246 0.00390625,3034.246 0.00390625,3034.246 0.003173828,3034.247 0.002685547,3034.247 0.00390625,3034.246 0.003173828,3034.247 0.00390625,3034.246 0.002929688,3034.247 0.002685547,3034.247 0.00390625,3034.246 0.002441406,3034.247 0.002441406,3034.247 0.003662109,3034.246 0.00390625,3034.246 0.00390625,3034.246 0.003662109,3034.246 0.003662109,3034.246 0.002685547,3034.247 0.002441406,3034.247 0.002929688,3034.247 0.002929688,3034.247 0.00390625,3034.246 0.003173828,3034.247 0.002685547,3034.247 0.00390625,3034.246 0.00390625,3034.246 0.003173828,3034.247 0.002685547,3034.247 0.00390625,3034.246 0.00390625,3034.246 0.00390625,3034.246 0.00390625,3034.246 0.003417969,3034.246 0.002441406,3034.247 0.00390625,3034.246 0.00390625,3034.246 0.002441406,3034.247 0.00390625,3034.246 0.002929688,3034.247 0.003417969,3034.246 0.003173828,3034.246 0.002929688,3034.247 0.003662109,3034.246 0.003173828,3034.247 0.00390625,3034.246 0.002929688,3034.247 0.00390625,3034.246 0.002929688,3034.247 0.00390625,3034.246 0.00390625,3034.246 0.00390625,3034.246 0.003662109,3034.246 0.002685547,3034.247 0.00390625,3034.246 0.002441406,3034.247 0.002441406,3034.247 0.00390625,3034.246 0.003417969,3034.246 0.003417969,3034.246 0.00390625,3034.246 0.00390625,3034.246 0.003417969,3034.246 0.002441406,3034.247 0.003662109,3034.246 0.002685547,3034.247 0.002685547,3034.247 0.003662109,3034.246 0.002685547,3034.247 0.003417969,3034.246 0.002685547,3034.247 0.003417969,3034.246 0.002685547,3034.247 0.002685547,3034.247 0.002685547,3034.247 0.00390625,3034.246 0.002441406,3034.247 0.002929688,3034.247 0.002441406,3034.247 0.002441406,3034.247 0.002441406,3034.247 0.00390625,3034.246 0.00390625,3034.246 0.003662109,3034.246 0.003173828,3034.246 0.00390625,3034.246 0.003417969,3034.246 0.002685547,3034.247 0.002929688,3034.247 0.00390625,3034.246 0.00390625,3034.246 0.002441406,3034.247 0.002441406,3034.247 0.00390625,3034.246 0.003662109,3034.246 0.00390625,3034.246 0.002685547,3034.247 0.00390625,3034.246 0.002685547,3034.247 0.00390625,3034.246 0.002685547,3034.247 0.002929688,3034.247 0.00390625,3034.246 0.002685547,3034.247 0.002685547,3034.247 0.002685547,3034.247 0.002929688,3034.247 0.003662109,3034.246 0.00390625,3034.246 0.00390625,3034.246 0.00390625,3034.246 0.003662109,3034.246 0.002685547,3034.247 0.00390625,3034.246 0.002685547,3034.247 0.002685547,3034.247 0.00390625,3034.246 0.002685547,3034.247 0.002441406,3034.247 0.00390625,3034.246 0.00390625,3034.246 0.002441406,3034.247 0.00390625,3034.246 0.00390625,3034.246 0.00390625,3034.246 0.002929688,3034.247 0.00390625,3034.246 0.002441406,3034.247 0.003417969,3034.246 0.00390625,3034.246 0.003173828,3034.247 0.00390625,3034.246 0.00390625,3034.246 0.00390625,3034.246 0.003173828,3034.247 0.003417969,3034.246 0.003173828,3034.247 0.002685547,3034.247 0.003417969,3034.246 0.003173828,3034.247 0.002685547,3034.247 0.002441406,3034.247 0.00390625,3034.246 0.003417969,3034.246 0.00390625,3034.246 0.003662109,3034.246 0.002441406,3034.247 0.00390625,3034.246 0.003417969,3034.246 0.003173828,3034.246 0.002441406,3034.247 0.002929688,3034.247 0.002441406,3034.247 0.002685547,3034.247 0.002685547,3034.247 0.002685547,3034.247 0.003173828,3034.247 0.003417969,3034.246 0.00390625,3034.246 0.002685547,3034.247 0.002685547,3034.247 0.003417969,3034.246 0.00390625,3034.246 0.00390625,3034.246 0.00390625,3034.246 0.003417969,3034.246 0.002929688,3034.247 0.002441406,3034.247 0.002929688,3034.247 0.002441406,3034.247 0.002441406,3034.247 0.002441406,3034.247 0.002441406,3034.247 0.002929688,3034.247 0.003662109,3034.246 0.003173828,3034.247 0.002685547,3034.247 0.003662109,3034.246 0.002929688,3034.247 0.003417969,3034.246 0.00390625,3034.246 0.003417969,3034.246 0.002685547,3034.247 0.003173828,3034.247 0.002685547,3034.247 0.002685547,3034.247 0.002441406,3034.247 0.002441406,3034.247 0.003417969,3034.246 0.002441406,3034.247 0.002929688,3034.247 0.002441406,3034.247 0.002685547,3034.247 0.003662109,3034.246 0.00390625,3034.246 0.003173828,3034.246 0.002685547,3034.247 0.00390625,3034.246 0.00390625,3034.246 0.003173828,3034.247 0.002685547,3034.247 0.00390625,3034.246 0.003662109,3034.246 0.002685547,3034.247 0.00390625,3034.246 0.003662109,3034.246 0.003662109,3034.246 0.003173828,3034.246 0.002441406,3034.247 0.002441406,3034.247 0.00390625,3034.246 0.00390625,3034.246 0.00390625,3034.246 0.00390625,3034.246 0.00390625,3034.246 0.002441406,3034.247 0.00390625,3034.246 0.00390625,3034.246 0.00390625,3034.246 0.00390625,3034.246 0.00390625,3034.246 0.002685547,3034.247 0.002685547,3034.247 0.003662109,3034.246 0.002685547,3034.247 0.003662109,3034.246 0.00390625,3034.246 0.002685547,3034.247 0.00390625,3034.246 0.003662109,3034.246 0.002441406,3034.247 0.00390625,3034.246 0.002441406,3034.247 0.002685547,3034.247 0.00390625,3034.246 0.002685547,3034.247 0.00390625,3034.246 0.002441406,3034.247 0.00390625,3034.246 0.002929688,3034.247 0.00390625,3034.246 0.003173828,3034.247 0.002685547,3034.247 0.00390625,3034.246 0.00390625,3034.246 0.003417969,3034.246 0.003662109,3034.246 0.00390625,3034.246 0.00390625,3034.246 0.002685547,3034.247 0.002685547,3034.247 0.00390625,3034.246 0.002685547,3034.247 0.003417969,3034.246 0.00390625,3034.246 0.003662109,3034.246 0.003173828,3034.247 0.00390625,3034.246 0.002685547,3034.247 0.002685547,3034.247 0.003417969,3034.246 0.003662109,3034.246 0.00390625,3034.246 0.00390625,3034.246 0.00390625,3034.246 0.003662109,3034.246 0.003173828,3034.246 0.002441406,3034.247 0.00390625,3034.246 0.003662109,3034.246 0.002441406,3034.247 0.002685547,3034.247 0.002685547,3034.247 0.003173828,3034.247 0.002685547,3034.247 0.003173828,3034.247 0.00390625,3034.246 0.002685547,3034.247 0.00390625,3034.246 0.002685547,3034.247 0.002685547,3034.247 0.00390625,3034.246 0.00390625,3034.246 0.003662109,3034.246 0.003662109,3034.246 0.002441406,3034.247 0.00390625,3034.246 0.003173828,3034.246 0.002685547,3034.247 0.002441406,3034.247 0.00390625,3034.246 0.002929688,3034.247 0.00390625,3034.246 0.002685547,3034.247 0.00390625,3034.246 0.00390625,3034.246 0.00390625,3034.246 0.00390625,3034.246 0.003662109,3034.246 0.002685547,3034.247 0.002685547,3034.247 0.002929688,3034.247 0.00390625,3034.246 0.002441406,3034.247 0.003662109,3034.246 0.002441406,3034.247 0.003662109,3034.246 0.002441406,3034.247 0.00390625,3034.246 0.003173828,3034.246 0.00390625,3034.246 0.002685547,3034.247 0.00390625,3034.246 0.00390625,3034.246 0.002929688,3034.247 0.003173828,3034.247 0.002685547,3034.247 0.003173828,3034.247 0.00390625,3034.246 0.002685547,3034.247 0.00390625,3034.246 0.002685547,3034.247 0.00390625,3034.246 0.002685547,3034.247 0.003417969,3034.246 0.00390625,3034.246 0.002929688,3034.247 0.002441406,3034.247 0.00390625,3034.246 0.00390625,3034.246 0.002441406,3034.247 0.002685547,3034.247 0.00390625,3034.246 0.002929688,3034.247 0.003417969,3034.246 0.003173828,3034.246 0.002685547,3034.247 0.003662109,3034.246 0.00390625,3034.246 0.002685547,3034.247 0.002685547,3034.247 0.002685547,3034.247 0.003417969,3034.246 0.002929688,3034.247 0.00390625,3034.246 0.002685547,3034.247 0.002685547,3034.247 0.002685547,3034.247 0.00390625,3034.246 0.003417969,3034.246 0.00390625,3034.246 0.002441406,3034.247 0.00390625,3034.246 0.002441406,3034.247 0.003173828,3034.246 0.002441406,3034.247 0.00390625,3034.246 0.00390625,3034.246 0.00390625,3034.246 0.002685547,3034.247 0.003417969,3034.246 0.00390625,3034.246 0.003173828,3034.247 0.002685547,3034.247 0.002929688,3034.247 0.00390625,3034.246 0.00390625,3034.246 0.002929688,3034.247 0.002685547,3034.247 0.002441406,3034.247 0.00390625,3034.246 0.00390625,3034.246 0.002929688,3034.247 0.002441406,3034.247 0.00390625,3034.246 0.00390625,3034.246 0.003662109,3034.246 0.003173828,3034.246 0.002929688,3034.247 0.00390625,3034.246 0.00390625,3034.246 0.00390625,3034.246 0.002685547,3034.247 0.00390625,3034.246 0.002685547,3034.247 0.00390625,3034.246 0.002685547,3034.247 0.00390625,3034.246 0.002685547,3034.247 0.00390625,3034.246 0.002441406,3034.247 0.00390625,3034.246 0.00390625,3034.246 0.003662109,3034.246 0.00390625,3034.246 0.002441406,3034.247 0.002441406,3034.247 0.003417969,3034.246 0.002441406,3034.247 0.00390625,3034.246 0.002929688,3034.247 0.00390625,3034.246 0.002685547,3034.247 0.002685547,3034.247 0.00390625,3034.246 0.002685547,3034.247 0.002685547,3034.247 0.00390625,3034.246 0.003173828,3034.247 0.002685547,3034.247 0.00390625,3034.246 0.002441406,3034.247 0.00390625,3034.246 0.002441406,3034.247 0.003417969,3034.246 0.003662109,3034.246 0.00390625,3034.246 0.002441406,3034.247 0.002929688,3034.247 0.002441406,3034.247 0.002441406,3034.247 0.003173828,3034.247 0.002685547,3034.247 0.00390625,3034.246 0.002929688,3034.247 0.002685547,3034.247 0.003662109,3034.246 0.002685547,3034.247 0.00390625,3034.246 0.00390625,3034.246 0.00390625,3034.246 0.00390625,3034.246 0.00390625,3034.246 0.00390625,3034.246 0.002685547,3034.247 0.002685547,3034.247 0.003417969,3034.246 0.00390625,3034.246 0.003417969,3034.246 0.00390625,3034.246 0.002929688,3034.247 0.00390625,3034.246 0.00390625,3034.246 0.002685547,3034.247 0.00390625,3034.246 0.002685547,3034.247 0.002685547,3034.247 0.002685547,3034.247 0.002929688,3034.247 0.003173828,3034.247 0.002685547,3034.247 0.002685547,3034.247 0.00390625,3034.246 0.00390625,3034.246 0.002441406,3034.247 0.00390625,3034.246 0.00390625,3034.246 0.002929688,3034.247 0.00390625,3034.246 0.002441406,3034.247 0.002929688,3034.247 0.00390625,3034.246 0.003662109,3034.246 0.00390625,3034.246 0.00390625,3034.246 0.002685547,3034.247 0.00390625,3034.246 0.00390625,3034.246 0.003417969,3034.246 0.00390625,3034.246 0.00390625,3034.246 0.00390625,3034.246 0.00390625,3034.246 0.003173828,3034.247 0.003662109,3034.246 0.003662109,3034.246 0.002929688,3034.247 0.003173828,3034.246 0.00390625,3034.246 0.003417969,3034.246 0.002441406,3034.247 0.002929688,3034.247 0.003662109,3034.246 0.002441406,3034.247 0.003417969,3034.246 0.00390625,3034.246 0.003417969,3034.246 0.003417969,3034.246 0.002685547,3034.247 0.00390625,3034.246 0.00390625,3034.246 0.00390625,3034.246 0.00390625,3034.246 0.00390625,3034.246 0.003173828,3034.247 0.00390625,3034.246 0.003417969,3034.246 0.00390625,3034.246 0.002929688,3034.247 0.003173828,3034.246 0.003173828,3034.246 0.003417969,3034.246 0.002441406,3034.247 0.002441406,3034.247 0.002441406,3034.247 0.003173828,3034.246 0.002929688,3034.247 0.002685547,3034.247 0.002685547,3034.247 0.002685547,3034.247 0.002685547,3034.247 0.00390625,3034.246 0.00390625,3034.246 0.003662109,3034.246 0.002685547,3034.247 0.00390625,3034.246 0.002685547,3034.247 0.002441406,3034.247 0.00390625,3034.246 0.00390625,3034.246 0.002929688,3034.247 0.00390625,3034.246 0.00390625,3034.246 0.003417969,3034.246 0.002441406,3034.247 0.003662109,3034.246 0.002441406,3034.247 0.00390625,3034.246 0.002441406,3034.247 0.002685547,3034.247 0.00390625,3034.246 0.00390625,3034.246 0.002929688,3034.247 0.002685547,3034.247 0.00390625,3034.246 0.003417969,3034.246 0.002929688,3034.247 0.002685547,3034.247 0.003417969,3034.246 0.002685547,3034.247 0.00390625,3034.246 0.00390625,3034.246 0.003417969,3034.246 0.002441406,3034.247 0.00390625,3034.246 0.002685547,3034.247 0.00390625,3034.246 0.00390625,3034.246 0.002685547,3034.247 0.00390625,3034.246 0.002685547,3034.247 0.002685547,3034.247 0.003417969,3034.246 0.00390625,3034.246 0.003417969,3034.246 0.002685547,3034.247 0.00390625,3034.246 0.002685547,3034.247 0.002685547,3034.247 0.002685547,3034.247 0.003173828,3034.247 0.003662109,3034.246 0.00390625,3034.246 0.002685547,3034.247 0.003417969,3034.246 0.002441406,3034.247 0.002441406,3034.247 0.003662109,3034.246 0.003417969,3034.246 0.00390625,3034.246 0.002441406,3034.247 0.00390625,3034.246 0.002685547,3034.247 0.00390625,3034.246 0.00390625,3034.246 0.002685547,3034.247 0.00390625,3034.246 0.002685547,3034.247 0.003417969,3034.246 0.003662109,3034.246 0.002685547,3034.247 0.00390625,3034.246 0.002929688,3034.247 0.003417969,3034.246 0.003662109,3034.246 0.003662109,3034.246 0.003173828,3034.246 0.003662109,3034.246 0.00390625,3034.246 0.003417969,3034.246 0.00390625,3034.246 0.00390625,3034.246 0.00390625,3034.246 0.002929688,3034.247 0.00390625,3034.246 0.003417969,3034.246 0.002929688,3034.247 0.00390625,3034.246 0.003662109,3034.246 0.00390625,3034.246 0.00390625,3034.246 0.002685547,3034.247 0.00390625,3034.246 0.00390625,3034.246 0.002441406,3034.247 0.002441406,3034.247 0.002929688,3034.247 0.003417969,3034.246 0.003662109,3034.246 0.002929688,3034.247 0.00390625,3034.246 0.002441406,3034.247 0.003417969,3034.246 0.002685547,3034.247 0.003417969,3034.246 0.002685547,3034.247 0.003417969,3034.246 0.00390625,3034.246 0.002929688,3034.247 0.00390625,3034.246 0.002685547,3034.247 0.00390625,3034.246 0.002441406,3034.247 0.00390625,3034.246 0.002441406,3034.247 0.00390625,3034.246 0.002441406,3034.247 0.00390625,3034.246 0.00390625,3034.246 0.00390625,3034.246 0.00390625,3034.246 0.002441406,3034.247 0.002441406,3034.247 0.002685547,3034.247 0.00390625,3034.246 0.002685547,3034.247 0.002685547,3034.247 0.002685547,3034.247 0.002685547,3034.247 0.002929688,3034.247 0.002929688,3034.247 0.003662109,3034.246 0.00390625,3034.246 0.00390625,3034.246 0.002685547,3034.247 0.00390625,3034.246 0.002441406,3034.247 0.00390625,3034.246 0.002441406,3034.247 0.003662109,3034.246 0.002441406,3034.247 0.003662109,3034.246 0.002441406,3034.247 0.00390625,3034.246 0.002929688,3034.247 0.00390625,3034.246 0.00390625,3034.246 0.002685547,3034.247 0.00390625,3034.246 0.002685547,3034.247 0.00390625,3034.246 0.002685547,3034.247 0.00390625,3034.246 0.002685547,3034.247 0.00390625,3034.246 0.003662109,3034.246 0.00390625,3034.246 0.002441406,3034.247 0.002441406,3034.247 0.002929688,3034.247 0.003173828,3034.246 0.003173828,3034.246 0.002441406,3034.247 0.003662109,3034.246 0.00390625,3034.246 0.002929688,3034.247 0.002685547,3034.247 0.003417969,3034.246 0.00390625,3034.246 0.002929688,3034.247 0.003173828,3034.247 0.00390625,3034.246 0.00390625,3034.246 0.002929688,3034.247 0.003662109,3034.246 0.003662109,3034.246 0.003173828,3034.246 0.002441406,3034.247 0.002929688,3034.247 0.00390625,3034.246 0.002929688,3034.247 0.00390625,3034.246 0.00390625,3034.246 0.002685547,3034.247 0.00390625,3034.246 0.003662109,3034.246 0.00390625,3034.246 0.003173828,3034.247 0.00390625,3034.246 0.00390625,3034.246 0.002685547,3034.247 0.003173828,3034.247 0.002685547,3034.247 0.002685547,3034.247 0.003662109,3034.246 0.003662109,3034.246 0.002929688,3034.247 0.002685547,3034.247 0.002441406,3034.247 0.002929688,3034.247 0.003662109,3034.246 0.00390625,3034.246 0.002441406,3034.247 0.00390625,3034.246 0.003662109,3034.246 0.002441406,3034.247 0.003417969,3034.246 0.002441406,3034.247 0.00390625,3034.246 0.003173828,3034.247 0.00390625,3034.246 0.00390625,3034.246 0.002685547,3034.247 0.00390625,3034.246 0.002685547,3034.247 0.002929688,3034.247 0.003662109,3034.246 0.002685547,3034.247 0.00390625,3034.246 0.002441406,3034.247 0.002685547,3034.247 0.002685547,3034.247 0.002441406,3034.247 0.00390625,3034.246 0.00390625,3034.246 0.003417969,3034.246 0.003173828,3034.246 0.002441406,3034.247 0.002685547,3034.247 0.002441406,3034.247 0.002685547,3034.247 0.00390625,3034.246 0.00390625,3034.246 0.002685547,3034.247 0.00390625,3034.246 0.00390625,3034.246 0.002685547,3034.247 0.002929688,3034.247 0.00390625,3034.246 0.00390625,3034.246 0.002929688,3034.247 0.002441406,3034.247 0.00390625,3034.246 0.002441406,3034.247 0.00390625,3034.246 0.002441406,3034.247 0.002441406,3034.247 0.002441406,3034.247 0.002685547,3034.247 0.002929688,3034.247 0.003173828,3034.246 0.002685547,3034.247 0.002685547,3034.247 0.00390625,3034.246 0.003417969,3034.246 0.003417969,3034.246 0.002685547,3034.247 0.002929688,3034.247 0.002685547,3034.247 0.00390625,3034.246 0.002929688,3034.247 0.002685547,3034.247 0.00390625,3034.246 0.003417969,3034.246 0.003173828,3034.246 0.00390625,3034.246 0.00390625,3034.246 0.00390625,3034.246 0.002685547,3034.247 0.002441406,3034.247 0.003417969,3034.246 0.003173828,3034.246 0.003173828,3034.247 0.00390625,3034.246 0.003662109,3034.246 0.003173828,3034.247 0.002685547,3034.247 0.002929688,3034.247 0.002685547,3034.247 0.002685547,3034.247 0.00390625,3034.246 0.002685547,3034.247 0.00390625,3034.246 0.00390625,3034.246 0.003417969,3034.246 0.002929688,3034.247 0.002441406,3034.247 0.002441406,3034.247 0.002441406,3034.247 0.00390625,3034.246 0.00390625,3034.246 0.00390625,3034.246 0.00390625,3034.246 0.00390625,3034.246 0.003417969,3034.246 0.002685547,3034.247 0.00390625,3034.246 0.003662109,3034.246 0.002685547,3034.247 0.003662109,3034.246 0.003173828,3034.247 0.002685547,3034.247 0.003662109,3034.246 0.00390625,3034.246 0.003417969,3034.246 0.003417969,3034.246 0.002441406,3034.247 0.002441406,3034.247 0.00390625,3034.246 0.002441406,3034.247 0.002441406,3034.247 0.00390625,3034.246 0.002441406,3034.247 0.003662109,3034.246 0.002441406,3034.247 0.003662109,3034.246 0.002685547,3034.247 0.003662109,3034.246 0.002685547,3034.247 0.00390625,3034.246 0.002685547,3034.247 0.00390625,3034.246 0.002685547,3034.247 0.00390625,3034.246 0.002685547,3034.247 0.00390625,3034.246 0.00390625,3034.246 0.00390625,3034.246 0.00390625,3034.246 0.00390625,3034.246 0.00390625,3034.246 0.00390625,3034.246 0.003662109,3034.246 0.00390625,3034.246 0.002929688,3034.247 0.002441406,3034.247 0.00390625,3034.246 0.003417969,3034.246 0.002685547,3034.247 0.002929688,3034.247 0.00390625,3034.246 0.002685547,3034.247 0.003662109,3034.246 0.002929688,3034.247 0.002685547,3034.247 0.00390625,3034.246 0.002685547,3034.247 0.002685547,3034.247 0.002929688,3034.247 0.002685547,3034.247 0.003173828,3034.246 0.002441406,3034.247 0.002441406,3034.247 0.002441406,3034.247 0.002441406,3034.247 0.002685547,3034.247 0.002441406,3034.247 0.002685547,3034.247 0.002685547,3034.247 0.00390625,3034.246 0.00390625,3034.246 0.003662109,3034.246 0.002685547,3034.247 0.002685547,3034.247 0.002685547,3034.247 0.00390625,3034.246 0.002929688,3034.247 0.00390625,3034.246 0.003173828,3034.246 0.002929688,3034.247 0.003173828,3034.246 0.00390625,3034.246 0.00390625,3034.246 0.002929688,3034.247 0.00390625,3034.246 0.003662109,3034.246 0.00390625,3034.246 0.002441406,3034.247 0.002929688,3034.247 0.002685547,3034.247 0.00390625,3034.246 0.002685547,3034.247 0.00390625,3034.246 0.003417969,3034.246 0.003417969,3034.246 0.002685547,3034.247 0.00390625,3034.246 0.003417969,3034.246 0.002685547,3034.247 0.00390625,3034.246 0.002441406,3034.247 0.002441406,3034.247 0.002441406,3034.247 0.002441406,3034.247 0.002441406,3034.247 0.002685547,3034.247 0.00390625,3034.246 0.002441406,3034.247 0.002685547,3034.247 0.00390625,3034.246 0.003662109,3034.246 0.003173828,3034.247 0.00390625,3034.246 0.002685547,3034.247 0.002929688,3034.247 0.00390625,3034.246 0.002685547,3034.247 0.003173828,3034.247 0.00390625,3034.246 0.003417969,3034.246 0.002441406,3034.247 0.00390625,3034.246 0.00390625,3034.246 0.002441406,3034.247 0.00390625,3034.246 0.002441406,3034.247 0.003173828,3034.246 0.002441406,3034.247 0.00390625,3034.246 0.002441406,3034.247 0.00390625,3034.246 0.002685547,3034.247 0.003417969,3034.246 0.00390625,3034.246 0.00390625,3034.246 0.002685547,3034.247 0.003662109,3034.246 0.00390625,3034.246 0.002685547,3034.247 0.002685547,3034.247 0.00390625,3034.246 0.002441406,3034.247 0.002441406,3034.247 0.00390625,3034.246 0.00390625,3034.246 0.002441406,3034.247 0.00390625,3034.246 0.003662109,3034.246 0.003173828,3034.246 0.002441406,3034.247 0.00390625,3034.246 0.003662109,3034.246 0.002685547,3034.247 0.00390625,3034.246 0.002685547,3034.247 0.003173828,3034.247 0.002685547,3034.247 0.00390625,3034.246 0.002685547,3034.247 0.002685547,3034.247 0.003173828,3034.247 0.002685547,3034.247 0.003662109,3034.246 0.002441406,3034.247 0.00390625,3034.246 0.00390625,3034.246 0.003417969,3034.246 0.002441406,3034.247 0.003173828,3034.246 0.003173828,3034.246 0.002441406,3034.247 0.00390625,3034.246 0.00390625,3034.246 0.00390625,3034.246 0.003173828,3034.247 0.003173828,3034.247 0.002929688,3034.247 0.002441406,3034.247 0.002441406,3034.247 0.002441406,3034.247 0.002441406,3034.247 0.003662109,3034.246 0.002685547,3034.247 0.00390625,3034.246 0.002441406,3034.247 0.002441406,3034.247 0.00390625,3034.246 0.002685547,3034.247 0.00390625,3034.246 0.002929688,3034.247 0.003662109,3034.246 0.002929688,3034.247 0.00390625,3034.246 0.002685547,3034.247 0.003417969,3034.246 0.003662109,3034.246 0.002685547,3034.247 0.002685547,3034.247 0.00390625,3034.246 0.00390625,3034.246 0.002685547,3034.247 0.00390625,3034.246 0.002685547,3034.247 0.00390625,3034.246 0.002441406,3034.247 0.00390625,3034.246 0.00390625,3034.246 0.00390625,3034.246 0.003173828,3034.246 0.002441406,3034.247 0.00390625,3034.246 0.003417969,3034.246 0.003662109,3034.246 0.002685547,3034.247 0.002441406,3034.247 0.00390625,3034.246 0.002441406,3034.247 0.00390625,3034.246 0.003173828,3034.246 0.00390625,3034.246 0.00390625,3034.246 0.00390625,3034.246 0.003662109,3034.246 0.002685547,3034.247 0.002685547,3034.247 0.00390625,3034.246 0.00390625,3034.246 0.002685547,3034.247 0.002685547,3034.247 0.002929688,3034.247 0.00390625,3034.246 0.00390625,3034.246 0.002685547,3034.247 0.002685547,3034.247 0.003662109,3034.246 0.002441406,3034.247 0.003173828,3034.246 0.00390625,3034.246 0.002441406,3034.247 0.003173828,3034.246 0.002441406,3034.247 0.002929688,3034.247 0.002441406,3034.247 0.002441406,3034.247 0.00390625,3034.246 0.00390625,3034.246 0.002685547,3034.247 0.002685547,3034.247 0.002685547,3034.247 0.003417969,3034.246 0.003662109,3034.246 0.00390625,3034.246 0.003662109,3034.246 0.002685547,3034.247 0.003173828,3034.246 0.00390625,3034.246 0.002441406,3034.247 0.002685547,3034.247 0.003662109,3034.246 0.00390625,3034.246 0.00390625,3034.246 0.00390625,3034.246 0.00390625,3034.246 0.00390625,3034.246 0.002441406,3034.247 0.003173828,3034.247 0.00390625,3034.246 0.003662109,3034.246 0.003662109,3034.246 0.00390625,3034.246 0.003662109,3034.246 0.00390625,3034.246 0.00390625,3034.246 0.00390625,3034.246 0.003173828,3034.247 0.00390625,3034.246 0.002441406,3034.247 0.002929688,3034.247 0.003662109,3034.246 0.002441406,3034.247 0.00390625,3034.246 0.00390625,3034.246 0.003662109,3034.246 0.002441406,3034.247 0.003173828,3034.246 0.00390625,3034.246 0.003173828,3034.247 0.00390625,3034.246 0.00390625,3034.246 0.00390625,3034.246 0.002685547,3034.247 0.003173828,3034.247 0.00390625,3034.246 0.002685547,3034.247 0.002685547,3034.247 0.002685547,3034.247 0.003662109,3034.246 0.00390625,3034.246 0.002441406,3034.247 0.003662109,3034.246 0.002441406,3034.247 0.003662109,3034.246 0.00390625,3034.246 0.00390625,3034.246 0.002441406,3034.247 0.003662109,3034.246 0.002685547,3034.247 0.002685547,3034.247 0.002685547,3034.247 0.00390625,3034.246 0.00390625,3034.246 0.00390625,3034.246 0.003662109,3034.246 0.00390625,3034.246 0.00390625,3034.246 0.002685547,3034.247 0.002685547,3034.247 0.003662109,3034.246 0.00390625,3034.246 0.002441406,3034.247 0.003417969,3034.246 0.003662109,3034.246 0.002441406,3034.247 0.00390625,3034.246 0.003417969,3034.246 0.00390625,3034.246 0.002441406,3034.247 0.00390625,3034.246 0.003662109,3034.246 0.00390625,3034.246 0.002685547,3034.247 0.00390625,3034.246 0.003173828,3034.247 0.002929688,3034.247 0.00390625,3034.246 0.002685547,3034.247 0.00390625,3034.246 0.003173828,3034.247 0.00390625,3034.246 0.002441406,3034.247 0.00390625,3034.246 0.002685547,3034.247 0.002441406,3034.247 0.00390625,3034.246 0.00390625,3034.246 0.002441406,3034.247 0.002685547,3034.247 0.00390625,3034.246 0.003417969,3034.246 0.00390625,3034.246 0.003662109,3034.246 0.00390625,3034.246 0.002929688,3034.247 0.002685547,3034.247 0.003173828,3034.247 0.002929688,3034.247 0.002685547,3034.247 0.003173828,3034.247 0.00390625,3034.246 0.003662109,3034.246 0.002929688,3034.247 0.002441406,3034.247 0.002441406,3034.247 0.002441406,3034.247 0.002441406,3034.247 0.002441406,3034.247 0.003173828,3034.246 0.003662109,3034.246 0.002441406,3034.247 0.00390625,3034.246 0.002929688,3034.247 0.002441406,3034.247 0.00390625,3034.246 0.002929688,3034.247 0.002441406,3034.247 0.003417969,3034.246 0.002441406,3034.247 0.002929688,3034.247 0.00390625,3034.246 0.002441406,3034.247 0.002441406,3034.247 0.002441406,3034.247 0.003173828,3034.246 0.00390625,3034.246 0.00390625,3034.246 0.002441406,3034.247 0.00390625,3034.246 0.00390625,3034.246 0.002441406,3034.247 0.00390625,3034.246 0.00390625,3034.246 0.002685547,3034.247 0.00390625,3034.246 0.00390625,3034.246 0.002685547,3034.247 0.002685547,3034.247 0.002685547,3034.247 0.003173828,3034.247 0.00390625,3034.246 0.002929688,3034.247 0.003662109,3034.246 0.00390625,3034.246 0.003417969,3034.246 0.00390625,3034.246 0.00390625,3034.246 0.002685547,3034.247 0.00390625,3034.246 0.002441406,3034.247 0.00390625,3034.246 0.00390625,3034.246 0.003417969,3034.246 0.002929688,3034.247 0.003417969,3034.246 0.003662109,3034.246 0.00390625,3034.246 0.00390625,3034.246 0.002685547,3034.247 0.002929688,3034.247 0.002685547,3034.247 0.00390625,3034.246 0.002685547,3034.247 0.00390625,3034.246 0.002441406,3034.247 0.002929688,3034.247 0.002441406,3034.247 0.002441406,3034.247 0.002441406,3034.247 0.00390625,3034.246 0.00390625,3034.246 0.002441406,3034.247 0.003173828,3034.247 0.00390625,3034.246 0.00390625,3034.246 0.002685547,3034.247 0.003417969,3034.246 0.00390625,3034.246 0.00390625,3034.246 0.00390625,3034.246 0.00390625,3034.246 0.00390625,3034.246 0.002929688,3034.247 0.00390625,3034.246 0.003173828,3034.246 0.00390625,3034.246 0.00390625,3034.246 0.00390625,3034.246 0.003662109,3034.246 0.00390625,3034.246 0.002441406,3034.247 0.00390625,3034.246 0.00390625,3034.246 0.002685547,3034.247 0.002685547,3034.247 0.002685547,3034.247 0.00390625,3034.246 0.003417969,3034.246 0.002929688,3034.247 0.00390625,3034.246 0.002685547,3034.247 0.00390625,3034.246 0.002685547,3034.247 0.00390625,3034.246 0.00390625,3034.246 0.00390625,3034.246 0.003662109,3034.246 0.002441406,3034.247 0.002929688,3034.247 0.003662109,3034.246 0.002441406,3034.247 0.002441406,3034.247 0.002441406,3034.247 0.00390625,3034.246 0.00390625,3034.246 0.002929688,3034.247 0.002685547,3034.247 0.002685547,3034.247 0.002929688,3034.247 0.002685547,3034.247 0.003662109,3034.246 0.002685547,3034.247 0.00390625,3034.246 0.00390625,3034.246 0.00390625,3034.246 0.00390625,3034.246 0.002441406,3034.247 0.00390625,3034.246 0.002441406,3034.247 0.003662109,3034.246 0.002441406,3034.247 0.00390625,3034.246 0.002929688,3034.247 0.002441406,3034.247 0.002929688,3034.247 0.002685547,3034.247 0.00390625,3034.246 0.003173828,3034.247 0.00390625,3034.246 0.00390625,3034.246 0.002685547,3034.247 0.002685547,3034.247 0.002929688,3034.247 0.002685547,3034.247 0.003173828,3034.247 0.00390625,3034.246 0.002685547,3034.247 0.00390625,3034.246 0.003417969,3034.246 0.003173828,3034.246 0.002441406,3034.247 0.003662109,3034.246 0.002441406,3034.247 0.00390625,3034.246 0.002441406,3034.247 0.002929688,3034.247 0.002441406,3034.247 0.00390625,3034.246 0.003173828,3034.247 0.00390625,3034.246 0.002685547,3034.247 0.003662109,3034.246 0.002929688,3034.247 0.002929688,3034.247 0.00390625,3034.246 0.00390625,3034.246 0.002685547,3034.247 0.002685547,3034.247 0.002441406,3034.247 0.003417969,3034.246 0.002441406,3034.247 0.00390625,3034.246 0.00390625,3034.246 0.00390625,3034.246 0.002441406,3034.247 0.00390625,3034.246 0.003173828,3034.246 0.002441406,3034.247 0.00390625,3034.246 0.00390625,3034.246 0.00390625,3034.246 0.003662109,3034.246 0.00390625,3034.246 0.003173828,3034.247 0.00390625,3034.246 0.002929688,3034.247 0.003417969,3034.246 0.002685547,3034.247 0.003173828,3034.247 0.00390625,3034.246 0.002441406,3034.247 0.002929688,3034.247 0.002441406,3034.247 0.003417969,3034.246 0.002441406,3034.247 0.002685547,3034.247 0.00390625,3034.246 0.002441406,3034.247 0.003417969,3034.246 0.00390625,3034.246 0.002685547,3034.247 0.00390625,3034.246 0.002685547,3034.247 0.002685547,3034.247 0.00390625,3034.246 0.003173828,3034.247 0.00390625,3034.246 0.002685547,3034.247 0.003662109,3034.246 0.00390625,3034.246 0.002685547,3034.247 0.00390625,3034.246 0.002685547,3034.247 0.002441406,3034.247 0.00390625,3034.246 0.002441406,3034.247 0.002441406,3034.247 0.00390625,3034.246 0.002685547,3034.247 0.002441406,3034.247 0.00390625,3034.246 0.002685547,3034.247 0.002929688,3034.247 0.00390625,3034.246 0.002929688,3034.247 0.00390625,3034.246 0.003173828,3034.247 0.00390625,3034.246 0.003417969,3034.246 0.00390625,3034.246 0.00390625,3034.246 0.00390625,3034.246 0.002441406,3034.247 0.00390625,3034.246 0.003662109,3034.246 0.002441406,3034.247 0.003417969,3034.246 0.002441406,3034.247 0.003662109,3034.246 0.002441406,3034.247 0.00390625,3034.246 0.002441406,3034.247 0.002441406,3034.247 0.00390625,3034.246 0.00390625,3034.246 0.002929688,3034.247 0.00390625,3034.246 0.002441406,3034.247 0.003662109,3034.246 0.002441406,3034.247 0.00390625,3034.246 0.00390625,3034.246 0.002929688,3034.247 0.00390625,3034.246 0.002441406,3034.247 0.002685547,3034.247 0.002685547,3034.247 0.003173828,3034.246 0.00390625,3034.246 0.002929688,3034.247 0.00390625,3034.246 0.002441406,3034.247 0.00390625,3034.246 0.002441406,3034.247 0.002929688,3034.247 0.003662109,3034.246 0.002441406,3034.247 0.003173828,3034.246 0.00390625,3034.246 0.00390625,3034.246 0.002441406,3034.247 0.00390625,3034.246 0.00390625,3034.246 0.002685547,3034.247 0.00390625,3034.246 0.00390625,3034.246 0.002685547,3034.247 0.00390625,3034.246 0.002685547,3034.247 0.002929688,3034.247 0.00390625,3034.246 0.002685547,3034.247 0.00390625,3034.246 0.002929688,3034.247 0.00390625,3034.246 0.002441406,3034.247 0.00390625,3034.246 0.003662109,3034.246 0.002441406,3034.247 0.00390625,3034.246 0.00390625,3034.246 0.003662109,3034.246 0.003417969,3034.246 0.002685547,3034.247 0.003417969,3034.246 0.002685547,3034.247 0.00390625,3034.246 0.002685547,3034.247 0.003417969,3034.246 0.002685547,3034.247 0.003417969,3034.246 0.002685547,3034.247 0.003173828,3034.247 0.002685547,3034.247 0.00390625,3034.246 0.003417969,3034.246 0.003173828,3034.246 0.003173828,3034.246 0.00390625,3034.246 0.00390625,3034.246 0.002441406,3034.247 0.00390625,3034.246 0.00390625,3034.246 0.00390625,3034.246 0.003417969,3034.246 0.002685547,3034.247 0.002685547,3034.247 0.00390625,3034.246 0.003662109,3034.246 0.002685547,3034.247 0.00390625,3034.246 0.003173828,3034.247 0.003417969,3034.246 0.002685547,3034.247 0.00390625,3034.246 0.003173828,3034.246 0.002441406,3034.247 0.00390625,3034.246 0.00390625,3034.246 0.002441406,3034.247 0.002441406,3034.247 0.002685547,3034.247 0.002441406,3034.247 0.002441406,3034.247 0.003173828,3034.247 0.00390625,3034.246 0.00390625,3034.246 0.003417969,3034.246 0.002685547,3034.247 0.00390625,3034.246 0.003662109,3034.246 0.003173828,3034.247 0.002929688,3034.247 0.00390625,3034.246 0.00390625,3034.246 0.002685547,3034.247 0.002929688,3034.247 0.002929688,3034.247 0.002441406,3034.247 0.003417969,3034.246 0.002441406,3034.247 0.002441406,3034.247 0.00390625,3034.246 0.00390625,3034.246 0.003417969,3034.246 0.002441406,3034.247 0.00390625,3034.246 0.00390625,3034.246 0.002441406,3034.247 0.00390625,3034.246 0.002441406,3034.247 0.00390625,3034.246 0.003417969,3034.246 0.00390625,3034.246 0.003173828,3034.246 0.00390625,3034.246 0.003173828,3034.247 0.003173828,3034.247 0.002685547,3034.247 0.002685547,3034.247 0.002685547,3034.247 0.00390625,3034.246 0.003417969,3034.246 0.003173828,3034.247 0.002685547,3034.247 0.002685547,3034.247 0.002441406,3034.247 0.00390625,3034.246 0.00390625,3034.246 0.00390625,3034.246 0.00390625,3034.246 0.00390625,3034.246 0.00390625,3034.246 0.00390625,3034.246 0.00390625,3034.246 0.002929688,3034.247 0.002441406,3034.247 0.00390625,3034.246 0.00390625,3034.246 0.002441406,3034.247 0.002441406,3034.247 0.003417969,3034.246 0.002441406,3034.247 0.00390625,3034.246 0.00390625,3034.246 0.00390625,3034.246 0.00390625,3034.246 0.002441406,3034.247 0.002441406,3034.247 0.002441406,3034.247 0.00390625,3034.246 0.003662109,3034.246 0.00390625,3034.246 0.00390625,3034.246 0.00390625,3034.246 0.002685547,3034.247 0.003417969,3034.246 0.002685547,3034.247 0.002685547,3034.247 0.002685547,3034.247 0.002685547,3034.247 0.00390625,3034.246 0.002685547,3034.247 0.002685547,3034.247 0.00390625,3034.246 0.002929688,3034.247 0.002441406,3034.247 0.002441406,3034.247 0.002441406,3034.247 0.002441406,3034.247 0.002441406,3034.247 0.002441406,3034.247 0.002441406,3034.247 0.002441406,3034.247 0.002441406,3034.247 0.002441406,3034.247 0.002441406,3034.247 0.002441406,3034.247 0.00390625,3034.246 0.003417969,3034.246 0.002929688,3034.247 0.003417969,3034.246 0.002929688,3034.247 0.002441406,3034.247 0.003173828,3034.246 0.002441406,3034.247 0.003173828,3034.246 0.00390625,3034.246 0.002441406,3034.247 0.002929688,3034.247 0.00390625,3034.246 0.002441406,3034.247 0.002929688,3034.247 0.003662109,3034.246 0.002685547,3034.247 0.00390625,3034.246 0.00390625,3034.246 " style="fill:none;stroke:red;stroke-width:4" /></svg>