<?xml version="1.0" standalone="yes"?><!DOCTYPE svg PUBLIC "-//W3C//DTD SVG 1.1//EN" "http://www.w3.org/Graphics/SVG/1.1/DTD/svg11.dtd"><svg xmlns="http://www.w3.org/2000/svg" version="1.1"><polyline points="795.4724,2137.12 789.985,2137.181 782.6232,2137.275 775.6505,2137.372 769.8439,2137.457 762.7952,2137.562 756.1501,2137.66 749.1423,2137.759 741.7559,2137.854 735.4474,2137.921 728.8916,2137.979 722.0909,2138.032 715.2657,2138.078 708.4122,2138.12 701.5378,2138.167 694.6682,2138.222 686.6721,2138.303 680.0607,2138.379 673.9457,2138.453 667.9115,2138.525 662.2595,2138.588 656.8856,2138.644 651.8662,2138.689 646.9551,2138.739 642.4791,2138.792 638.1223,2138.851 633.5664,2138.881 630.2445,2138.865 625.928,2138.757 622.782,2138.588 618.6582,2138.167 614.8658,2137.526 612.088,2136.885 608.0552,2135.64 605.4756,2134.617 602.2677,2133.112 598.9984,2131.332 596.1643,2129.568 593.1165,2127.412 590.7291,2125.545 588.2673,2123.474 585.8937,2121.316 583.688,2118.986 581.7667,2116.408 579.7224,2113.195 578.4144,2110.911 577.0204,2107.999 575.6237,2104.372 574.6912,2101.591 573.7103,2098.109 572.9768,2094.873 572.3556,2091.581 571.8423,2088.231 571.3973,2084.305 571.1218,2080.832 570.927,2077.181 570.8229,2073.52 570.791,2070.1 570.7988,2066.122 570.8369,2062.312 570.8997,2058.609 571.0001,2054.408 571.1219,2050.313 571.2578,2046.195 571.4044,2041.914 571.549,2037.463 571.6951,2032.391 571.793,2028.436 571.9042,2022.924 571.9755,2018.333 572.0232,2014.146 572.0626,2008.343 572.0715,2003.375 572.0593,1998.416 572.0258,1993.298 571.9688,1987.502 571.8999,1981.97 571.8246,1976.72 571.7407,1971.313 571.6548,1966.023 571.572,1961.044 571.4612,1954.414 571.3751,1949.221 571.2792,1943.301 571.2007,1938.288 571.0958,1931.273 571.0118,1925.373 570.9464,1920.626 570.8504,1913.544 570.7668,1907.401 570.6632,1900.39 570.566,1894.651 570.4569,1888.975 570.3211,1882.736 570.1696,1876.45 569.9705,1868.847 569.8054,1862.888 569.6095,1856.029 569.4243,1849.668 569.2308,1843.057 569.0082,1835.427 568.8506,1829.948 568.6415,1822.35 568.4819,1816.04 568.3203,1808.809 568.1907,1801.989 568.0745,1794.574 567.9977,1788.593 567.9251,1781.68 567.867,1774.851 567.8187,1767.994 567.7729,1760.318 567.7346,1752.963 567.7047,1746.621 567.6719,1738.983 567.6452,1732.016 567.6209,1725.025 567.5981,1717.778 567.5768,1710.624 567.557,1703.918 567.5347,1696.602 567.5114,1689.145 567.4899,1682.614 567.4624,1674.516 567.4352,1666.87 567.4089,1659.8 567.3831,1652.952 567.3538,1645.36 567.3258,1637.989 567.3005,1630.719 567.2776,1623.429 567.2559,1615.144 567.2429,1608.792 567.2324,1600.343 567.2301,1594.082 567.2336,1586.699 567.2433,1579.298 567.2617,1570.518 567.2805,1563.451 567.3038,1555.621 567.3258,1548.521 567.3481,1540.66 567.3641,1533.157 567.3715,1524.511 567.3674,1517.984 567.3497,1510.439 567.3173,1502.88 567.2607,1494.172 567.1935,1486.333 567.1182,1479.114 567.0249,1471.376 566.917,1463.372 566.8055,1455.736 566.6774,1447.45 566.5641,1440.427 566.4196,1431.748 566.2881,1424.079 566.1526,1416.396 566.0142,1408.7 565.8704,1400.864 565.7319,1393.4 565.6052,1386.569 565.4451,1377.787 565.3082,1369.886 565.1758,1361.7 565.0613,1354.024 564.9501,1346.202 564.8413,1338.366 564.7313,1330.387 564.6238,1322.531 564.5182,1314.795 564.3948,1305.734 564.2849,1297.71 564.1706,1289.418 564.0593,1281.513 563.9542,1274.125 563.8409,1266.202 563.7178,1257.743 563.5984,1249.805 563.4834,1242.526 563.3113,1232.458 563.1809,1225.167 563.0273,1216.549 562.9163,1210.049 562.764,1200.5 562.6495,1192.678 562.5408,1184.595 562.4401,1176.652 562.3434,1168.718 562.2488,1160.805 562.1618,1152.977 562.0804,1144.901 561.9897,1135.393 561.9293,1127.83 561.8802,1119.876 561.8365,1111.535 561.8005,1103.626 561.7673,1095.88 561.7355,1087.422 561.7166,1081.234 561.6993,1073.732 561.6593,1066.993 561.5618,1060.452 561.3719,1054.411 561.0355,1048.76 560.5382,1043.75 559.7826,1038.546 558.7097,1033.478 557.292,1028.668 555.3246,1023.607 553.5131,1019.755 550.8008,1014.789 548.7566,1011.494 545.6676,1006.855 542.9176,1002.946 539.9989,999.2773 537.2157,996.1333 533.6185,992.4703 530.2554,989.6035 526.3357,986.7012 522.4677,984.1108 517.6777,981.3489 514.2397,979.6693 509.0294,977.4974 504.8597,976.0452 500.1964,974.7527 495.5845,973.8185 490.4984,973.0839 484.931,972.5735 480.0285,972.3239 474.8163,972.2542 470.1322,972.4032 464.7383,972.7781 459.6404,973.3046 454.5949,973.9836 449.3495,974.8319 444.1612,975.7946 438.1631,977.0626 432.9186,978.3022 427.4693,979.7131 422.6128,981.0962 416.772,982.9264 411.4489,984.7297 406.1113,986.671 400.5883,988.8108 394.8742,991.1176 390.0474,993.1284 383.9524,995.7247 378.2675,998.1621 372.7147,1000.54 366.6559,1003.118 361.6537,1005.228 355.2988,1007.881 349.737,1010.179 344.2273,1012.437 338.4848,1014.778 332.4122,1017.244 326.5902,1019.604 320.7326,1021.98 314.1502,1024.653 308.7173,1026.863 302.5676,1029.369 295.6924,1032.172 289.3839,1034.739 283.648,1037.06 277.2739,1039.611 271.7776,1041.773 265.3242,1044.257 258.8217,1046.686 252.6866,1048.903 246.3132,1051.129 239.3234,1053.477 234.1722,1055.135 227.6355,1057.142 222.9985,1058.516 214.5567,1060.886 209.7263,1062.148 204.0314,1063.511 199.1058,1064.548 194.2827,1065.395 189.9675,1065.958 184.2211,1066.352 179.5131,1066.328 174.7232,1066.039 169.6193,1065.489 165.4927,1064.867 160.5204,1063.872 155.6309,1062.629 151.7608,1061.495 146.9108,1059.973 143.0284,1058.693 138.3192,1057.064 134.3928,1055.623 129.948,1053.853 125.718,1051.991 122.0466,1050.207 118.5789,1048.349 115.777,1046.66 112.4081,1044.32 109.5187,1042.014 107.0644,1039.803 104.6442,1037.37 102.6191,1035.054 100.85,1032.668 99.1524,1029.99 97.87268,1027.67 96.64801,1025.091 95.42365,1022.019 94.5592,1019.425 93.88684,1016.89 93.41815,1014.221 93.19098,1011.377 93.24213,1008.328 93.5611,1005.551 94.12274,1002.88 94.93469,1000.103 95.86755,997.4823 97.02509,994.7064 98.05444,992.5674 99.64813,989.6279 101.2811,986.9257 103.0012,984.3232 104.7058,981.9424 106.8112,979.243 108.9356,976.7317 111.5142,973.9008 113.6099,971.7433 116.509,968.9451 119.3676,966.3464 121.5876,964.4044 124.8693,961.6033 127.9609,959.0138 130.771,956.6726 133.4633,954.4088 137.1179,951.296 140.5099,948.3452 143.5115,945.6794 146.6824,942.7811 149.7429,939.8718 153.3098,936.329 156.0187,933.5135 159.6974,929.4124 162.6186,925.8707 165.5399,922.0385 168.2702,918.1984 170.9088,914.1918 173.3835,910.0565 175.8885,905.3813 177.5967,901.8162 179.4186,897.4792 181.1365,892.713 182.3854,888.7708 183.7908,883.6831 184.8767,879.0648 185.7693,874.5551 186.5159,869.9283 187.1707,864.7258 187.5772,860.7185 187.978,856.0626 188.3824,850.6642 188.6591,846.6411 188.9636,841.8669 189.2446,837.0535 189.4847,832.1799 189.6924,826.358 189.7825,821.3948 189.7859,816.6404 189.712,811.2524 189.5493,806.142 189.2962,800.9871 188.9693,795.7848 188.5557,790.0149 188.1771,785.2495 187.7019,779.9207 187.0395,773.8344 186.2696,768.4324 185.2713,763.0225 184.1551,758.1864 182.5571,752.6206 180.8047,747.5377 179.0131,742.9358 176.9732,738.3254 174.8872,734.1934 172.7589,730.4248 170.2743,726.4235 167.7954,722.7526 165.1906,719.2068 162.4955,715.8572 159.5863,712.5258 156.1672,708.8977 153.5048,706.2576 150.4083,703.3458 146.5811,699.9542 143.3862,697.257 139.8544,694.3849 136.4478,691.6831 133.0113,688.9919 129.5276,686.3024 126.0378,683.6674 122.3795,680.9492 118.7521,678.2473 115.1201,675.4802 111.1413,672.3346 107.6077,669.4097 103.8798,666.141 100.2073,662.719 97.04376,659.6086 93.35388,655.7932 89.9317,652.0852 86.58801,648.3356 83.30957,644.5591 79.98199,640.6332 76.823,636.8253 73.27917,632.4635 70.00818,628.3684 66.61163,624.0682 63.24695,619.781 59.91138,615.514 56.26617,610.8257 52.9494,606.5166 49.12433,601.4501 46.18195,597.4386 42.41516,592.054 39.01721,586.8105 36.56543,582.7793 33.33307,577.1339 30.31866,571.4897 27.85791,566.4991 25.24487,560.868 22.87128,555.5837 20.62732,550.3688 18.4137,544.9513 16.08722,538.8721 14.13293,533.1731 12.7439,528.7002 11.1571,523.1842 9.476379,516.8849 8.257935,512.0363 6.740112,505.6545 5.436829,499.5852 4.312439,493.8572 3.269104,487.8796 2.257141,481.3723 1.571838,476.3691 0.9265137,470.4316 0.4673462,464.4445 0.1644287,458.4243 0,451.3547 0.2024536,445.3488 0.6516113,438.9235 1.194214,433.2139 2.076477,426.7566 3.261963,420.2313 4.357422,415.0785 5.766846,409.2529 7.492798,403.0873 9.182373,397.6844 11.13812,392.0355 13.36591,386.4746 15.46143,381.9385 18.15875,376.4965 20.75568,371.6549 23.49524,367.0276 26.43103,362.4354 29.97247,357.2816 32.76324,353.4901 36.42877,348.7753 39.9491,344.403 43.01703,340.6982 47.13702,335.8403 50.414,332.0343 54.31787,327.5289 58.73376,322.4414 61.83557,318.865 66.05927,313.9938 70.25873,309.1531 73.87225,304.9918 77.26434,301.0887 81.06012,296.7241 84.89026,292.324 88.75079,287.9009 92.97223,283.0837 96.98816,278.5354 101.1779,273.825 105.4319,269.0935 109.5397,264.5841 114.4797,259.2393 118.7034,254.7345 122.2177,251.042 127.3546,245.7109 131.4038,241.571 136.1302,236.8546 140.6752,232.4875 145.3955,228.1069 150.9718,223.166 155.3721,219.6072 160.9858,215.6138 167.3132,211.6456 172.8141,208.5917 179.496,205.3405 185.322,202.8108 191.8895,200.2332 198.2605,197.991 205.3867,195.7628 211.301,194.1198 217.9341,192.4459 224.6217,190.9502 231.2852,189.7747 238.2529,188.9855 246.0682,188.4229 253.1186,188.1563 260.0823,188.1598 267.4108,188.399 274.4039,188.8181 281.4072,189.4485 288.414,190.2543 295.431,191.2328 302.4497,192.3702 309.4771,193.5826 317.9368,195.103 324.8952,196.3956 333.0591,197.9265 340.1855,199.2615 347.5779,200.6483 353.5577,201.7764 361.4725,203.2823 368.6919,204.6646 376.6494,206.1935 383.1287,207.4353 390.4124,208.8235 397.6404,210.1879 404.1209,211.397 410.3193,212.5374 417.0175,213.7472 422.4667,214.7067 428.0376,215.6613 433.0391,216.4951 438.1137,217.3054 442.595,217.9751 447.4665,218.6566 450.9218,219.1152 455.9811,219.7411 460.4965,220.2025 464.8362,220.5281 468.6555,220.7463 472.8017,220.9209 477.6776,220.9417 481.444,220.7847 485.6781,220.4347 489.9682,219.9036 494.0475,219.2622 497.9184,218.5338 502.1937,217.572 506.3191,216.4762 510.8394,215.106 514.2285,213.9764 518.7585,212.3433 522.5161,210.9176 526.1021,209.5406 529.7778,208.1482 532.8855,207.0118 537.1955,205.5559 540.8479,204.4745 544.5959,203.5562 548.326,202.8503 552.0321,202.3616 555.8313,202.0515 559.4653,201.8939 563.8987,201.8778 568.0469,202.0278 571.7712,202.2734 575.3277,202.6155 579.8427,203.21 583.3232,203.7568 587.9218,204.5869 591.5073,205.2726 596.1612,206.1569 599.891,206.8474 603.278,207.4406 607.1156,208.0361 610.6918,208.4885 614.7165,208.8934 618.1239,209.153 621.7913,209.2799 625.3644,209.1776 628.7653,208.7252 631.6988,208.0551 635.165,207.042 638.4921,205.8772 641.5521,204.5636 644.8329,202.8418 647.302,201.3577 650.1659,199.4513 652.8513,197.4531 655.4684,195.3376 658.5092,192.7231 660.575,190.8739 663.0359,188.5674 665.8306,185.7074 668.0547,183.2635 670.127,180.9314 672.2605,178.5521 674.8047,175.7559 677.0736,173.3193 679.0264,171.4231 681.6806,169.3983 683.9671,167.9384 686.6179,166.5459 689.4559,165.5626 692.8898,164.9061 695.7938,164.6218 698.8892,164.5265 702.1678,164.5844 705.4727,164.7437 708.6481,164.9449 711.8542,165.1464 715.0842,165.3156 718.3118,165.3992 721.524,165.3507 724.739,165.1982 728.3805,164.929 731.5899,164.5016 734.999,163.827 737.5337,163.2028 741.2296,162.0751 744.3323,160.8662 747.3323,159.5138 750.3007,158.0454 753.2449,156.4705 756.5674,154.5745 759.1123,153.0609 762.6012,150.9231 765.1243,149.3455 768.0145,147.5026 771.634,145.13 774.6792,143.0911 778.0721,140.7809 780.8397,138.8749 784.0311,136.6781 787.2975,134.453 790.7136,132.1678 794.5298,129.6818 797.7545,127.6455 801.4529,125.3932 805.2711,123.1642 809.819,120.6439 813.7051,118.6108 818.3462,116.3209 822.4019,114.438 827.1722,112.3634 831.2908,110.6943 836.3696,108.7755 841.2423,107.04 846.1253,105.3661 850.9981,103.7421 855.8755,102.1637 861.0042,100.5399 867.1206,98.59436 871.5263,97.14124 876.5015,95.36169 882.006,93.1676 886.7485,91.10486 891.4293,88.85449 896.0988,86.35022 900.1042,83.97498 904.26,81.28003 908.5754,78.26086 912.9186,75.01575 916.7559,71.92468 920.0815,68.98938 923.5608,65.6123 927.4673,61.49719 930.322,58.30273 933.9061,54.13306 937.2772,50.15125 940.1919,46.68555 942.8861,43.42529 945.8458,39.74988 949.2565,35.44458 951.9771,31.9021 954.5231,28.54028 956.9901,25.2771 959.5984,21.86401 961.8026,19.06445 963.7126,16.74731 966.2862,14.00366 968.5305,11.92017 971.5669,9.496582 974.2149,7.729492 977.2443,5.984131 980.2037,4.521729 983.3828,3.212402 986.4612,2.169678 989.5692,1.309814 992.7067,0.6569824 995.8622,0.2226563 999.433,0 1002.581,0.1162109 1005.321,0.5124512 1008.189,1.226318 1011.524,2.47168 1014.225,3.93042 1016.557,5.542236 1019.104,7.58252 1021.362,9.673096 1023.523,11.96753 1025.631,14.41919 1027.907,17.25317 1029.7,19.62231 1031.607,22.28345 1033.728,25.38892 1035.32,27.83081 1037.446,31.27197 1039.058,34.02271 1040.955,37.42651 1042.615,40.56885 1044.286,43.922 1045.862,47.34546 1047.28,50.72266 1048.933,54.95618 1050.257,58.50623 1051.824,62.81885 1053.075,66.30981 1054.539,70.42834 1056.25,75.27466 1057.814,79.72949 1059.197,83.6842 1060.95,88.67993 1062.563,93.23779 1064.21,97.85803 1065.862,102.4542 1067.445,106.7931 1069.599,112.5425 1071.249,116.8224 1073.208,121.7982 1075.454,127.4122 1077.192,131.762 1079.389,137.366 1081.158,142.0283 1083.324,148.0026 1085.268,153.6387 1087.086,159.1902 1088.716,164.4619 1090.367,170.1925 1091.826,175.7126 1093.217,181.5125 1094.486,187.3966 1095.645,193.3595 1096.756,199.6963 1097.846,206.7255 1098.557,211.9856 1099.379,219.1857 1099.937,224.6537 1100.538,231.0001 1101.125,238.2758 1101.554,244.8688 1101.854,250.4211 1102.19,258.3303 1102.376,264.4255 1102.528,271.2332 1102.642,278.4187 1102.714,284.8392 1102.758,292.6644 1102.768,299.5121 1102.76,306.6282 1102.74,313.3248 1102.714,319.5951 1102.679,327.5339 1102.653,335.051 1102.637,341.6655 1102.622,348.896 1102.602,356.4155 1102.575,363.2623 1102.537,370.743 1102.493,378.1337 1102.43,386.5428 1102.365,393.8898 1102.288,401.5126 1102.206,408.9219 1102.115,416.4875 1102.03,423.5836 1101.939,431.4576 1101.858,438.9878 1101.788,446.0415 1101.714,454.1265 1101.647,461.7295 1101.581,469.3579 1101.513,477.0084 1101.44,484.678 1101.345,493.7819 1101.261,500.973 1101.167,508.0482 1101.054,515.5282 1100.892,524.8363 1100.739,532.6132 1100.566,540.5369 1100.384,548.2202 1100.189,555.9185 1099.999,563.1088 1099.764,571.6267 1099.531,579.899 1099.278,588.7164 1099.078,595.7051 1098.827,604.4243 1098.589,612.7632 1098.374,620.3213 1098.157,628.0242 1097.913,636.8043 1097.708,644.3986 1097.484,653.0719 1097.295,660.8231 1097.113,668.8523 1096.941,676.8912 1096.782,684.8035 1096.624,692.9934 1096.474,701.0565 1096.303,710.3335 1096.15,718.6754 1096.031,725.2734 1095.861,734.9724 1095.729,743.0587 1095.63,749.5316 1095.495,759.2452 1095.395,767.3439 1095.294,776.3871 1095.222,783.5496 1095.142,792.4768 1095.08,800.8735 1095.037,807.924 1095,816.0671 1094.973,825.304 1094.963,832.3781 1094.961,842.1832 1094.966,849.6805 1094.975,858.8248 1094.981,866.7518 1094.984,874.9598 1094.979,883.1765 1094.964,891.4031 1094.94,899.0878 1094.899,908.0162 1094.85,916.1318 1094.788,924.3937 1094.7,934.3177 1094.623,942.1831 1094.551,949.2295 1094.45,959.1864 1094.372,967.3547 1094.286,977.3357 1094.227,985.2467 1094.172,993.7216 1094.12,1002.484 1094.076,1010.7 1094.03,1019.203 1093.982,1027.576 1093.926,1035.958 1093.863,1044.067 1093.779,1053.724 1093.696,1062.271 1093.621,1069.563 1093.515,1079.247 1093.432,1086.411 1093.329,1094.846 1093.203,1104.413 1093.076,1113.426 1092.935,1123.01 1092.827,1130.205 1092.673,1140.37 1092.55,1148.423 1092.41,1157.475 1092.282,1165.401 1092.124,1174.469 1091.966,1182.975 1091.805,1191.628 1091.658,1200.005 1091.515,1209.807 1091.428,1218.052 1091.377,1225.592 1091.367,1235.7 1091.412,1242.679 1091.537,1251.225 1091.775,1259.771 1092.267,1270.02 1092.859,1278.548 1093.675,1287.626 1094.536,1295.557 1095.612,1304.035 1096.842,1312.492 1098.259,1321.066 1099.939,1330.457 1101.417,1338.421 1103.224,1347.634 1104.956,1355.71 1106.579,1362.792 1108.791,1371.927 1111.136,1381.036 1113.389,1389.285 1115.739,1397.508 1118.173,1405.712 1120.691,1413.898 1123.783,1423.558 1126.256,1431.019 1128.733,1438.331 1131.514,1446.428 1134.826,1456.03 1137.232,1463.056 1140.034,1471.356 1142.417,1478.604 1144.624,1485.478 1146.701,1492.093 1148.845,1499.073 1150.901,1505.862 1152.676,1511.748 1154.389,1517.453 1156.025,1522.869 1157.514,1527.756 1158.977,1532.556 1160.336,1537.105 1161.574,1541.41 1162.719,1545.632 1163.647,1549.452 1164.537,1554.084 1165.021,1557.845 1165.251,1561.332 1165.204,1565.148 1164.791,1569.578 1164.191,1573.045 1163.269,1576.573 1162.119,1579.987 1160.756,1583.551 1159.368,1586.846 1157.754,1590.031 1155.644,1593.176 1153.627,1595.802 1151.371,1598.556 1149.049,1601.122 1146.035,1604.215 1143.558,1606.683 1140.925,1609.23 1138.142,1611.771 1135.312,1614.235 1132.469,1616.66 1129.94,1618.831 1126.334,1622.048 1123.634,1624.609 1120.875,1627.384 1118.012,1630.44 1115.112,1633.76 1112.433,1637.112 1109.887,1640.578 1107.079,1644.685 1104.444,1648.848 1102.234,1652.655 1100.102,1656.673 1097.891,1661.268 1095.949,1665.81 1094.104,1670.881 1092.744,1675.313 1091.396,1680.415 1090.368,1685.055 1089.436,1690.122 1088.626,1695.448 1087.892,1701.568 1087.496,1706.006 1087.162,1711.307 1086.955,1717.775 1086.917,1723.029 1086.987,1729.651 1087.082,1734.457 1087.211,1740.264 1087.329,1746.034 1087.417,1751.863 1087.471,1758.536 1087.483,1763.887 1087.472,1770.862 1087.453,1776.589 1087.432,1782.968 1087.417,1789.092 1087.409,1795.467 1087.411,1801.475 1087.427,1808.676 1087.453,1815.195 1087.489,1821.226 1087.541,1828.039 1087.595,1833.723 1087.677,1840.955 1087.759,1847.474 1087.849,1854.037 1087.945,1860.526 1088.049,1866.947 1088.173,1873.961 1088.311,1880.91 1088.449,1887.446 1088.619,1895.156 1088.769,1902.001 1088.944,1910.019 1089.095,1916.808 1089.24,1923.051 1089.434,1931.068 1089.585,1937.138 1089.759,1944.17 1089.922,1950.88 1090.111,1959.278 1090.233,1965.457 1090.361,1973.929 1090.416,1980.162 1090.435,1988.468 1090.408,1995.232 1090.343,2002.957 1090.257,2009.967 1090.155,2016.97 1090.052,2023.459 1089.937,2030.493 1089.839,2036.494 1089.742,2042.507 1089.653,2048.215 1089.576,2053.372 1089.507,2058.179 1089.443,2062.875 1089.386,2067.224 1089.332,2071.316 1089.277,2075.077 1089.221,2078.702 1089.135,2082.027 1089.009,2085.206 1088.76,2089.058 1088.43,2092.446 1087.943,2095.679 1087.279,2098.643 1086.473,2101.337 1085.344,2104.322 1084.088,2107.032 1082.448,2109.998 1081.047,2112.185 1078.88,2115.074 1077.033,2117.274 1074.881,2119.568 1072.653,2121.682 1070.381,2123.558 1067.618,2125.448 1064.83,2126.971 1061.926,2128.338 1058.902,2129.528 1055.759,2130.512 1052.533,2131.356 1049.233,2132.104 1045.171,2132.889 1041.711,2133.477 1038.571,2133.964 1034.571,2134.528 1030.941,2134.975 1027.224,2135.355 1023.212,2135.676 1019.253,2135.91 1015.206,2136.066 1010.467,2136.158 1006.086,2136.186 1002.565,2136.181 997.6228,2136.154 993.1182,2136.124 988.2603,2136.097 983.5622,2136.078 978.3245,2136.063 973.2974,2136.058 968.3481,2136.063 963.6729,2136.071 958.537,2136.079 953.415,2136.086 948.3148,2136.093 942.6364,2136.1 937.2328,2136.108 931.8544,2136.121 926.5075,2136.138 921.0966,2136.159 915.633,2136.184 909.9217,2136.213 904.3423,2136.243 898.9841,2136.271 893.0083,2136.304 887.1602,2136.336 881.3566,2136.369 875.4968,2136.404 869.5826,2136.442 863.3419,2136.487 857.6494,2136.53 851.6132,2136.58 844.8207,2136.641 838.3826,2136.702 832.6192,2136.759 826.1952,2136.824 819.6215,2136.889 813.2116,2136.95 806.0157,2137.016 800.5848,2137.068 " style="fill:none;stroke:red;stroke-width:4" /></svg>