<?xml version="1.0" standalone="yes"?><!DOCTYPE svg PUBLIC "-//W3C//DTD SVG 1.1//EN" "http://www.w3.org/Graphics/SVG/1.1/DTD/svg11.dtd"><svg xmlns="http://www.w3.org/2000/svg" version="1.1"><polyline points="1311.836,973.8163 1313.91,973.8613 1316.391,973.8913 1318.54,973.9011 1320.651,973.9 1323.317,973.8881 1325.502,973.873 1327.665,973.8557 1329.952,973.8366 1331.706,973.8226 1333.52,973.8089 1335.529,973.7958 1337.002,973.7878 1338.521,973.7805 1339.845,973.7758 1341.021,973.7721 1342.334,973.7673 1343.397,973.7317 1344.468,973.619 1345.55,973.3339 1346.34,972.9944 1347.095,972.5886 1347.929,972.0259 1348.637,971.4314 1349.383,970.7297 1349.994,970.1984 1350.811,969.5676 1351.447,969.138 1352.326,968.6319 1353.01,968.2971 1353.829,967.9567 1354.433,967.7401 1355.163,967.5122 1355.825,967.332 1356.411,967.1921 1357.027,967.0623 1357.573,966.9594 1358.128,966.8653 1358.288,966.5493 1358.267,966.3889 1358.252,966.1406 1358.25,966.1404 1358.251,966.1423 1358.251,966.1436 1358.251,966.1444 1358.251,966.1458 1358.251,966.1467 1358.251,966.1476 1358.251,966.1486 1358.251,966.1493 1358.251,966.15 1358.251,966.1504 1358.251,966.151 1358.251,966.1515 1358.251,966.1519 1358.251,966.1522 1358.251,966.1526 1358.251,966.1528 1358.251,966.1531 1358.251,966.1533 1358.251,966.1536 1358.251,966.1537 1358.251,966.1539 1358.251,966.1541 1358.251,966.1542 1358.251,966.1543 1358.251,966.1544 1358.251,966.1545 1358.251,966.1546 1358.251,966.1547 1358.251,966.1547 1358.251,966.1548 1358.251,966.1548 1358.251,966.1549 1358.251,966.155 1358.251,966.155 1358.251,966.155 1358.251,966.1551 1358.251,966.1551 1358.251,966.1551 1358.251,966.1552 1358.251,966.1552 1358.251,966.1552 1358.251,966.1552 1358.251,966.1552 1358.251,966.1552 1358.251,966.1552 1358.251,966.1552 1358.251,966.1553 1358.251,966.1553 1358.251,966.1553 1358.251,966.1553 1358.251,966.1553 1358.251,966.1553 1358.251,966.1553 1358.251,966.1553 1358.252,966.1548 1358.251,966.1519 1358.252,966.1497 1358.257,966.1481 1358.3,966.1508 1358.424,966.1713 1358.579,966.2007 1358.806,966.2475 1359.184,966.3364 1359.502,966.4244 1360.039,966.5986 1360.598,966.8177 1361.194,967.0948 1361.861,967.4669 1362.667,967.9863 1363.405,968.4499 1364.24,968.9448 1365.341,969.5469 1366.483,970.1098 1367.754,970.6666 1369.238,971.2311 1370.717,971.7131 1372.601,972.2256 1374.628,972.6772 1376.681,973.0345 1379.004,973.3365 1381.328,973.5445 1383.704,973.6721 1385.449,973.731 1387.48,973.7752 1390.294,973.8088 1392.246,973.8195 1394.698,973.8248 1397.129,973.8245 1399.413,973.8218 1401.507,973.8188 1403.719,973.8162 1405.605,973.8148 1408.01,973.8144 1410.303,973.8151 1412.892,973.8171 1415.221,973.8193 1417.329,973.8215 1419.806,973.824 1421.914,973.8262 1424.133,973.8282 1426.389,973.8297 1428.571,973.8302 1430.827,973.8297 1433.009,973.8279 1435.635,973.8242 1437.891,973.8192 1440.073,973.8129 1442.292,973.8048 1444.622,973.7948 1446.767,973.7842 1449.06,973.7719 1451.205,973.7595 1453.425,973.7464 1455.754,973.7325 1457.863,973.7202 1460.266,973.7068 1462.301,973.6962 1464.519,973.6852 1466.735,973.6749 1469.559,973.6624 1471.899,973.6528 1474.037,973.6444 1476.175,973.6367 1478.474,973.6291 1481.056,973.6213 1483.153,973.6154 1485.372,973.6093 1487.591,973.6032 1490.108,973.5966 1492.068,973.5918 1494.25,973.5867 1496.469,973.5819 1498.687,973.5775 1501.238,973.5729 1503.383,973.5694 1505.417,973.5664 1508.005,973.563 1509.78,973.561 1511.995,973.5585 1514.375,973.5558 1516.957,973.553 1519.095,973.5506 1521.475,973.5482 1523.896,973.5458 1525.751,973.5441 1528.455,973.5422 1530.633,973.541 1532.853,973.5402 1534.829,973.5397 1537.294,973.5398 1539.513,973.5404 1541.658,973.5417 1544.136,973.5441 1546.175,973.547 1548.416,973.5513 1550.685,973.5571 1553.186,973.5652 1555.425,973.5743 1557.755,973.5858 1560.544,973.6022 1563.05,973.6198 1565.855,973.6426 1568.586,973.6686 1571.708,973.7031 1574.308,973.7368 1577.589,973.7863 1580.83,973.8443 1583.786,973.9064 1587.392,973.9951 1590.763,974.0919 1594.19,974.2062 1597.923,974.3499 1601.689,974.5165 1605.415,974.7028 1609.75,974.947 1612.525,975.1173 1617.313,975.4341 1621.811,975.7563 1626.554,976.1169 1630.493,976.4307 1634.754,976.7827 1639.342,977.1738 1644.44,977.6221 1649.472,978.0782 1654.859,978.5807 1659.726,979.0481 1664.639,979.5329 1669.715,980.0482 1673.754,980.4684 1679.894,981.1237 1684.998,981.6808 1688.76,982.0962 1694.51,982.7316 1699.528,983.2778 1705.875,983.9407 1711.253,984.4564 1717.326,984.9473 1722.173,985.2301 1728.035,985.3959 1732.565,985.3521 1738.124,985.0846 1743.377,984.6192 1747.724,984.0474 1752.588,983.1443 1756.55,982.1971 1761.787,980.6197 1765.751,979.1718 1770.547,977.0881 1774.419,975.1237 1778.921,972.5123 1782.073,970.45 1786.054,967.5513 1789.554,964.7186 1792.408,962.2222 1795.92,958.8963 1798.944,955.761 1801.017,953.429 1804.576,949.0933 1807.057,945.8608 1810.018,941.7961 1812.474,938.226 1815.059,934.2376 1817.625,929.9662 1820.054,925.5602 1822.203,921.3082 1824.164,917.0215 1825.915,912.704 1827.45,908.3621 1828.74,904.0829 1829.932,899.24 1830.708,895.193 1831.406,890.1174 1831.73,886.0812 1831.843,881.0815 1831.728,877.4802 1831.417,873.5714 1830.79,868.8782 1830.015,864.8585 1828.996,860.761 1827.584,856.2055 1826.311,852.7703 1824.39,848.3248 1822.359,844.3031 1820.214,840.5647 1818.221,837.4501 1815.613,833.8027 1813.164,830.7116 1810.179,827.2999 1807.419,824.4139 1803.945,821.0807 1800.742,818.2446 1797.413,815.4962 1794.202,813.0065 1790.89,810.5842 1787.543,808.2667 1783.783,805.799 1779.039,802.8827 1775.296,800.7338 1770.667,798.2482 1766.408,796.1127 1762.851,794.4459 1758.304,792.4575 1753.458,790.51 1747.864,788.4785 1742.935,786.8666 1737.901,785.3765 1731.53,783.7075 1726.165,782.463 1720.002,781.2052 1713.212,780.0027 1706.816,778.9741 1702.177,778.2752 1696.446,777.4594 1690.55,776.6644 1684.807,775.9163 1677.921,775.0493 1672.669,774.4014 1665.778,773.5497 1659.945,772.8192 1653.662,771.9889 1648.257,771.1966 1641.74,770.1489 1634.221,768.8167 1628.923,767.7584 1622.376,766.2946 1616.048,764.7416 1609.143,762.9033 1602.912,761.097 1596.682,759.1571 1590.226,757.017 1583.995,754.8295 1578.331,752.7417 1571.771,750.2189 1565.409,747.6802 1558.035,744.6472 1551.772,742.0087 1545.492,739.3192 1539.2,736.5896 1532.899,733.8258 1526.58,731.027 1520.243,728.1935 1513.76,725.2676 1506.494,721.9557 1500.766,719.3198 1493.427,715.912 1487.004,712.9016 1481.501,710.3049 1474.105,706.7923 1467.983,703.868 1460.307,700.1851 1454.62,697.448 1448.09,694.2972 1440.813,690.7754 1434.726,687.8204 1428.129,684.6089 1420.59,680.9176 1413.832,677.5886 1407.594,674.5011 1401.472,671.4565 1393.868,667.6547 1386.515,663.9615 1379.678,660.5154 1373.362,657.322 1365.953,653.5667 1360.281,650.686 1353.105,647.038 1346.352,643.6038 1339.435,640.0935 1331.758,636.2091 1324.925,632.7659 1316.816,628.7057 1311.436,626.0266 1304.156,622.4202 1297.228,619.0084 1290.531,615.7299 1283.429,612.2769 1277.831,609.5743 1272.09,606.8215 1263.359,602.6665 1254.591,598.5298 1247.782,595.3349 1239.108,591.2742 1230.987,587.4688 1224.018,584.1889 1216.587,580.6656 1208.866,576.9685 1202.27,573.7752 1195.469,570.4506 1188.991,567.2575 1183.273,564.4238 1177.723,561.6647 1172.982,559.3018 1167.861,556.7427 1163.497,554.5508 1158.286,551.9001 1154.231,549.7837 1151.174,548.1365 1147.581,546.1141 1144.881,544.5042 1141.421,542.2684 1138,539.8101 1135.054,537.4374 1132.12,534.7876 1129.333,531.9277 1126.741,528.9071 1124.327,525.7507 1121.967,522.2863 1120.073,519.2009 1118.576,516.5436 1116.768,513.0166 1115.31,509.8706 1113.911,506.5092 1112.76,503.3592 1111.593,499.6281 1110.741,496.3372 1110.035,492.9014 1109.578,489.9626 1109.176,486.1819 1109.018,483.1424 1109.052,479.23 1109.275,476.2586 1109.869,472.4559 1110.62,469.2138 1111.379,466.5796 1112.418,463.5496 1113.902,459.9745 1115.358,457.0176 1116.989,454.1498 1118.828,451.3329 1120.745,448.725 1122.843,446.1628 1125.294,443.4475 1127.399,441.2969 1130.012,438.7975 1132.753,436.3096 1134.954,434.3819 1138.066,431.7252 1140.751,429.4677 1143.478,427.186 1146.6,424.5699 1149.052,422.5054 1152.162,419.8687 1155.165,417.3004 1157.733,415.0853 1160.728,412.4786 1164.082,409.5321 1166.875,407.0561 1170.563,403.7563 1173.349,401.2392 1177.155,397.7625 1180.378,394.7657 1183.451,391.8408 1186.8,388.5364 1189.594,385.636 1192.828,382.0411 1195.897,378.3001 1198.37,374.9544 1200.438,371.8499 1202.67,368.0417 1204.436,364.5519 1206.129,360.7522 1207.517,357.23 1208.798,353.5257 1209.928,349.7759 1211.097,345.1462 1212.016,340.5197 1212.592,336.6952 1212.932,333.5436 1213.173,330.238 1213.306,326.4174 1213.281,322.6357 1213.082,318.8255 1212.606,314.3083 1212,310.5838 1211.202,306.9008 1210.116,302.9777 1208.777,299.0643 1207.01,294.785 1205.365,291.3524 1202.855,286.803 1201.139,284.0281 1198.048,279.5259 1195.661,276.383 1192.084,272.0767 1189.306,268.9946 1185.752,265.2993 1182.427,262.0414 1179.239,259.0622 1175.692,255.8786 1172.7,253.2769 1169.282,250.3815 1165.696,247.4139 1161.425,243.95 1157.927,241.157 1153.887,237.9682 1150.016,234.9432 1146.303,232.069 1142.032,228.7949 1138.002,225.7416 1133.713,222.5334 1128.884,218.9799 1125.076,216.213 1120.622,213.0247 1115.756,209.5927 1111.485,206.6051 1105.866,202.6945 1101.29,199.5143 1096.317,196.0535 1091.929,192.9897 1086.615,189.2625 1081.715,185.8069 1076.575,182.1613 1070.799,178.0402 1066.69,175.0919 1060.74,170.801 1056.477,167.7119 1050.551,163.402 1045.82,159.9495 1040.227,155.8606 1035.115,152.1194 1029.546,148.0424 1024.042,144.0124 1019.151,140.4313 1013.19,136.0648 1007.306,131.7492 1001.994,127.8513 995.9188,123.3848 990.9073,119.6927 984.5258,114.9803 978.7395,110.6955 974.2897,107.3907 968.7076,103.232 962.1077,98.29675 956.3573,93.98126 950.9622,89.91925 945.0304,85.43958 939.3424,81.13214 933.4047,76.62531 927.9015,72.44122 921.5712,67.62146 915.2124,62.77533 909.4089,58.3493 903.6157,53.9295 897.9084,49.57623 891.4184,44.63446 886.1591,40.64496 881.9124,37.44067 876.699,33.53552 871.5502,29.71954 867.7589,26.94391 863.5007,23.86963 858.8477,20.58185 854.9827,17.93787 851.5501,15.67908 848.1136,13.52576 844.2457,11.27734 840.7458,9.442505 837.4296,7.892273 833.2242,6.177307 829.3511,4.844116 826.4754,3.986389 822.8619,3.042175 818.5012,2.057068 814.8436,1.349304 810.7123,0.7064819 807.4366,0.3370972 802.9308,0.04803467 799.1724,0 795.4371,0.1313477 791.6465,0.4474487 788.2189,0.8811035 784.3427,1.544128 780.6907,2.338684 776.7313,3.367615 773.4584,4.390686 769.3397,5.989868 766.4984,7.300537 763.7001,8.746826 760.1641,10.81323 756.7845,13.07739 752.6924,16.28259 749.2444,19.44696 746.4688,22.33771 743.6031,25.66901 740.9786,29.06952 738.5626,32.49219 736.1436,36.1991 733.5428,40.50482 731.64,43.97351 729.2764,48.71588 727.4695,52.68134 725.5339,57.28143 723.9886,61.23999 722.1404,66.28351 720.5338,70.927 718.7129,76.48792 717.2299,81.2912 716.0973,85.17181 714.8228,89.81128 713.6143,94.58618 712.6968,98.5885 711.9398,102.3058 711.3947,105.4655 710.8531,109.5768 710.5659,113.1242 710.4556,116.6415 710.4965,119.4278 710.7706,123.5552 711.1216,126.5084 711.764,130.3401 712.368,133.1317 713.2081,136.3402 714.4427,140.2101 715.6677,143.5106 717.1403,147.0093 718.8641,150.6398 720.4582,153.6564 722.6527,157.3502 724.5389,160.1339 726.9356,163.2601 729.7951,166.5207 732.491,169.27 735.3778,171.9194 738.0239,174.1271 741.5254,176.8326 744.4096,178.919 747.8042,181.2233 751.7735,183.7078 755.7334,185.997 759.3221,187.9445 763.5045,190.0681 767.2003,191.836 770.9268,193.5376 775.2364,195.4376 780.3564,197.6461 784.7849,199.557 789.1415,201.4705 793.2345,203.3231 797.0051,205.0959 800.4105,206.767 803.7267,208.4772 807.0719,210.3041 810.6151,212.3827 814.2606,214.7132 817.8506,217.2462 820.6865,219.4634 822.9513,221.3985 825.921,224.2119 828.9551,227.4765 831.1652,230.1774 833.1971,232.974 835.4065,236.4683 836.6072,238.6359 838.4254,242.4194 839.7865,245.8177 840.8783,249.1002 841.7776,252.4399 842.5757,256.343 842.9875,259.1453 843.3434,263.1461 843.4158,266.0345 843.295,269.7281 843.0068,272.8585 842.5846,275.7902 841.8695,279.393 841.0452,282.5462 840.0266,285.6608 838.8085,288.7201 837.3878,291.7112 835.6342,294.8354 833.599,297.9503 831.6085,300.6222 829.4318,303.2501 827.2239,305.6965 824.854,308.1133 822.3697,310.452 819.7775,312.7164 817.0698,314.9081 814.252,317.0125 811.3185,319.03 808.2665,320.9557 804.5063,323.1075 801.3786,324.7299 797.8923,326.3771 794.2184,327.9454 790.6873,329.3023 787.8107,330.306 783.366,331.6923 778.5253,332.9872 774.3697,333.9319 770.1771,334.7462 765.0672,335.577 760.5377,336.1837 755.5239,336.7416 751.1596,337.1556 745.3473,337.6347 741.4221,337.9307 735.7342,338.3429 730.8605,338.6957 725.1756,339.1185 719.7402,339.5422 714.5173,339.9701 709.2321,340.4257 703.7861,340.9205 697.8745,341.4857 692.7081,342.001 685.9454,342.6998 681.0758,343.2142 674.4799,343.9153 668.6793,344.5276 662.9058,345.1246 657.2584,345.6911 651.8533,346.2112 646.7228,346.6784 641.7758,347.0939 637.274,347.4307 632.858,347.702 628.6897,347.8843 624.9982,347.9631 621.2108,347.9232 617.3847,347.7168 613.8315,347.3426 610.2156,346.7654 606.0684,345.8309 602.6188,344.8065 599.7545,343.7859 596.1573,342.3138 593.2636,340.9659 590.3069,339.4429 587.4772,337.8413 584.5946,336.0388 582.0904,334.3025 579.4396,332.2515 576.6807,329.8383 574.5723,327.7725 572.1784,325.1455 570.1624,322.6976 567.72,319.418 566.0333,316.9896 563.8735,313.6765 562.1259,310.7004 560.5228,307.4199 559.1661,304.1321 557.9357,300.5812 556.9576,296.9608 556.0817,292.4598 555.6646,289.3862 555.3198,285.1989 555.1974,281.7417 555.1985,277.9597 555.3313,274.2598 555.5634,270.9135 555.8905,267.4367 556.292,263.8932 556.7997,259.8669 557.2657,256.2011 557.6884,252.5059 557.9813,249.31 558.1942,245.9482 558.2828,242.3506 558.1796,238.0887 557.8396,233.8279 557.3771,230.328 556.6814,226.7015 555.631,222.7206 554.5109,219.369 553.2267,216.1905 551.8279,213.2442 550.1747,210.231 548.2673,207.2155 545.9738,204.0757 544.0562,201.7534 541.6848,199.1826 539.3271,196.9047 536.8389,194.7384 533.9771,192.5084 531.4789,190.758 528.0165,188.6185 525.1713,187.0608 522.2471,185.6197 519.3007,184.3209 515.6964,182.9363 512.608,181.9066 509.0139,180.887 505.4362,180.0502 501.5685,179.3389 498.5677,178.9169 494.6464,178.5499 491.4416,178.4048 487.3569,178.4337 483.2037,178.7186 479.0644,179.2524 473.9512,180.2439 470.4391,181.1277 465.4954,182.6254 461.6296,183.9672 457.4289,185.577 452.3405,187.7599 448.3641,189.6486 444.1584,191.8092 439.9737,194.1172 434.7716,197.2039 430.6015,199.8317 425.9,202.9337 421.3505,206.0408 416.4093,209.4902 411.944,212.6353 407.1365,216.0073 402.7982,219.0103 397.6185,222.5223 392.3291,226.0253 387.428,229.2026 382.4498,232.3747 376.4,236.1671 371.2887,239.3254 365.7375,242.7119 360.7881,245.6954 354.6256,249.367 349.8563,252.1807 343.5692,255.8705 338.319,258.9481 332.8328,262.1689 326.4716,265.9158 321.1888,269.0381 316.1559,272.0222 309.4982,275.9848 304.5955,278.9184 298.4368,282.6237 292.3395,286.3121 287.7446,289.1022 281.9734,292.6157 276.171,296.1556 269.8146,300.0394 264.4968,303.2938 258.624,306.8958 252.7267,310.5243 245.8367,314.7836 239.5681,318.6794 233.7102,322.3365 227.0684,326.4995 221.4928,330.0032 214.4648,334.4257 207.6215,338.7314 202.2883,342.0845 196.4702,345.7413 190.011,349.801 183.8323,353.6849 178.8704,356.8036 172.9552,360.5186 166.3872,364.6382 161.3617,367.7848 155.0531,371.7261 148.7146,375.6754 142.9839,379.2349 136.8883,383.0088 130.8124,386.7567 123.061,391.5159 116.0958,395.771 108.0518,400.6595 102.2925,404.142 94.72815,408.6962 88.67822,412.3235 83.28809,415.5472 79.50464,417.8074 73.04272,421.6708 67.91565,424.7454 63.02563,427.6924 58.83447,430.2335 53.11401,433.7303 48.67114,436.4788 44.65747,438.9997 41.46558,441.0468 37.1604,443.9037 33.27661,446.6463 29.96118,449.1944 27.25439,451.4728 24.20605,454.3137 21.79089,456.8115 19.4884,459.4482 17.3429,462.1799 14.96094,465.5886 12.77356,469.1237 11.32861,471.7129 9.525635,475.2695 7.802246,479.1008 6.484375,482.3695 5.096924,486.2193 3.805664,490.3317 3.127319,492.7787 2.322632,496.036 1.507568,499.967 0.9199219,503.4857 0.3848877,507.9013 0.1245117,511.3687 0,515.7396 0.114624,519.9908 0.3686523,523.3676 0.9291992,527.7506 1.473755,530.6799 2.458008,534.7185 3.40918,537.8679 4.906616,541.9569 6.201294,544.9343 8.177734,548.856 10.22693,552.3403 12.19373,555.2936 14.94092,558.9012 17.40588,561.7426 20.08069,564.475 23.3739,567.4484 25.88037,569.458 29.38196,571.9845 32.90955,574.2621 35.83936,575.9703 39.23389,577.7439 43.25134,579.5941 46.40552,580.8674 50.42053,582.2985 54.60779,583.5869 57.92114,584.4645 62.16455,585.4366 66.71021,586.3054 70.72852,586.9385 74.96851,587.4712 79.29126,587.8871 84.43701,588.2366 88.1792,588.405 93.05249,588.5259 98.33472,588.5366 103.0913,588.4341 107.614,588.2386 113.2653,587.8593 117.8291,587.4382 122.8737,586.85 128.324,586.0734 134.1813,585.105 138.3676,584.3499 144.7194,583.1306 149.8818,582.085 155.4943,580.9025 160.2695,579.8676 166.5051,578.4912 173.0227,577.0342 178.8884,575.7186 183.6613,574.6514 190.3596,573.1659 195.4872,572.0437 202.0012,570.6416 207.7832,569.4224 213.8073,568.179 219.7772,566.9756 225.6898,565.8132 232.048,564.5967 237.929,563.5033 243.8794,562.4319 250.6818,561.254 255.5959,560.4379 261.6821,559.475 267.0648,558.6758 271.9821,557.9986 276.4578,557.4354 280.8331,556.9457 285.0891,556.5439 288.6787,556.2751 292.1823,556.1031 295.8792,556.0413 299.7336,556.1349 303.4594,556.3962 306.7157,556.7848 309.5995,557.2648 313.2407,558.0658 316.6827,559.0734 319.6641,560.1707 323.0763,561.6497 326.3616,563.261 329.1147,564.7443 332.2953,566.6082 335.4241,568.5999 338.3878,570.6501 341.1936,572.7742 343.7753,574.9076 346.2859,577.1555 348.578,579.3959 350.8875,581.8914 352.9396,584.4123 354.9097,587.1956 356.8655,590.1879 358.28,592.4852 360.0442,595.6772 361.2646,598.3663 362.5432,601.8427 363.5338,605.149 364.2145,608.1045 364.7832,611.6686 365.1187,614.7275 365.376,618.4471 365.4825,621.7587 365.494,625.2267 365.4329,629.1517 365.3562,632.3604 365.2562,636.5861 365.1985,640.3993 365.1946,643.9023 365.2738,647.8518 365.4688,651.7834 365.8173,655.7522 366.359,659.9603 366.889,663.1002 367.6547,666.718 368.5565,670.2516 369.5913,673.7028 370.9617,677.4872 372.4639,680.9309 373.9635,683.91 375.7976,687.0997 377.7211,690.025 379.7942,692.8508 382.0183,695.5709 384.4448,698.2131 387.3278,700.9255 389.6973,702.9036 392.6816,705.1929 395.4841,707.1691 399.187,709.4969 402.2902,711.2383 405.7171,712.9766 409.1519,714.5224 412.4562,715.8438 416.4147,717.2142 420.123,718.2909 423.9921,719.2441 428.4837,720.2103 432.0649,720.9027 436.6887,721.7302 440.7075,722.4113 445.5264,723.1998 449.6331,723.8522 454.4104,724.5891 458.6647,725.2217 463.7676,725.9443 468.3293,726.5509 473.0451,727.1309 478.4752,727.7318 482.9012,728.164 488.8873,728.6582 493.27,728.9509 498.0429,729.2042 503.825,729.4176 508.4514,729.522 514.6312,729.5809 521.2472,729.5641 526.3098,729.5093 532.1536,729.4138 537.7808,729.2982 543.2753,729.1718 549.1051,729.0299 554.6088,728.8959 561.0276,728.7474 566.1505,728.6398 572.4873,728.5265 578.773,728.4392 585.0933,728.3793 591.8606,728.3464 597.4735,728.3451 604.1336,728.3729 609.8221,728.4214 616.3651,728.5029 622.6416,728.605 629.061,728.7306 634.7886,728.8573 641.3876,729.0183 648.2374,729.2004 654.0667,729.3668 661.5284,729.597 667.5319,729.7994 674.5375,730.0599 679.8446,730.2784 687.6827,730.6398 694.2499,730.9803 700.8485,731.3574 708.0318,731.8054 714.1387,732.2125 721.0537,732.6992 727.552,733.1759 735.5449,733.7798 742.4463,734.3074 749.2482,734.8289 755.9393,735.344 762.9162,735.8844 769.7949,736.4186 777.5811,737.0203 783.6331,737.4832 791.7333,738.095 798.2134,738.5794 805.9941,739.1567 812.6514,739.6474 820.1048,740.1931 827.3276,740.7175 834.3285,741.2207 841.5921,741.7363 848.8822,742.2463 856.3047,742.7584 861.5688,743.117 868.659,743.5919 875.5292,744.0453 882.1202,744.4783 887.7981,744.8538 893.2448,745.2207 899.329,745.6457 905.6015,746.1115 911.7772,746.6196 916.5389,747.0646 922.1597,747.6791 926.7155,748.2773 930.7623,748.9185 935.5789,749.877 939.172,750.7925 942.6636,751.8799 946.8226,753.4592 950.1572,754.9932 953.1384,756.605 956.3272,758.5743 959.3719,760.6707 962.0704,762.6866 964.5441,764.657 967.2292,766.9373 969.6227,769.1202 971.956,771.4423 974.1648,773.8871 976.2974,776.5536 978.4695,779.6934 980.0972,782.4828 981.4434,785.1921 982.9374,788.7866 984.0115,791.9065 985.0027,795.3246 985.8317,798.7041 986.5088,801.9549 987.192,806.0458 987.6136,809.4381 987.9433,813.2232 988.1199,816.5999 988.1768,821.2136 988.0813,825.0011 987.8612,828.9239 987.5294,832.8422 987.0648,836.9789 986.4941,841.1165 985.8196,845.3346 984.9408,850.2708 984.2026,854.2062 983.3682,858.6561 982.5791,863.0932 981.8875,867.4691 981.3497,871.6633 980.9247,876.4113 980.7372,880.8099 980.7452,884.4286 980.9623,889.0244 981.4067,893.6053 982.0199,897.8196 983.0297,902.9188 984.0473,907.0271 985.1274,910.757 986.2775,914.2618 987.6678,918.0159 989.459,922.2787 990.7969,925.1013 992.7883,928.8341 994.8412,932.2278 997.2349,935.7962 999.5404,938.9631 1001.481,941.4398 1004.214,944.6519 1005.817,946.4171 1008.399,949.1091 1011.294,951.9143 1014.327,954.6291 1017.771,957.4592 1020.809,959.7582 1023.819,961.8654 1027.858,964.4711 1031.173,966.4349 1035.727,968.9197 1039.635,970.8902 1043.947,972.931 1048.539,974.9614 1052.873,976.7363 1056.995,978.307 1062.817,980.3372 1066.572,981.5347 1072.291,983.218 1077.651,984.6672 1081.949,985.7502 1086.142,986.7442 1091.337,987.8938 1096.44,988.9453 1102.592,990.1179 1107.856,991.0487 1113.373,991.958 1120.155,992.9886 1124.616,993.6155 1129.533,994.2571 1137.109,995.1381 1143.636,995.7764 1149.923,996.2752 1156.805,996.674 1162.989,996.8922 1169.667,996.9675 1177.511,996.8501 1183.953,996.6078 1192.085,996.173 1198.102,995.7963 1204.791,995.3594 1212.377,994.873 1218.749,994.4897 1225.168,994.1373 1230.769,993.8624 1235.751,993.6436 1242.397,993.3917 1247.769,993.2252 1252.617,993.1066 1259.264,992.9989 1264.61,992.9568 1270.992,992.9547 1278.087,993.0052 1284.428,993.09 1292.286,993.2345 1298.574,993.3693 1306.032,993.5367 1313.749,993.7072 " style="fill:none;stroke:red;stroke-width:4" /></svg>