<?xml version="1.0" standalone="yes"?><!DOCTYPE svg PUBLIC "-//W3C//DTD SVG 1.1//EN" "http://www.w3.org/Graphics/SVG/1.1/DTD/svg11.dtd"><svg xmlns="http://www.w3.org/2000/svg" version="1.1"><polyline points="488.4326,240.1932 490.9167,242.8398 495.2243,247.3416 498.1744,250.3607 501.175,253.3886 505.059,257.2652 508.0903,260.2643 512.011,264.1197 515.9473,267.9837 519.5646,271.5265 523.7613,275.6115 527.9948,279.7162 532.1563,283.7484 537.0524,288.4891 541.3207,292.6234 544.7899,295.9909 549.8145,300.8919 554.9316,305.9783 559.1631,310.3038 564.1783,315.6393 569.0506,321.1979 572.6511,325.6264 576.9496,331.3006 581.0812,337.1731 583.8293,341.4257 587.7359,347.9265 590.3491,352.4716 593.3701,357.9578 596.454,364.0165 598.7668,368.8619 601.2837,374.2775 602.748,377.5001 604.9233,382.5017 606.6309,386.8739 607.8546,390.247 609.4317,394.7405 610.9179,399.12 611.8873,402.0887 613.0939,405.851 614.2414,409.4344 615.0953,412.0768 616.3784,416.001 617.2678,418.7028 618.3267,421.9119 619.3356,424.9781 620.0427,427.1424 620.6814,429.091 621.4238,431.2956 622.105,433.1819 622.8306,434.9915 623.645,436.7104 624.4359,438.0342 625.3588,439.2373 626.3963,440.3055 627.5055,441.161 628.6989,441.8132 629.4999,442.1323 630.6753,442.4469 631.8118,442.6003 632.9159,442.6136 634.1111,442.4712 634.9073,442.3158 635.7966,442.0737 636.6749,441.7313 637.4067,441.3745 637.9926,441.0195 638.8928,440.4307 639.6552,439.7918 640.3812,439.0378 641.0695,438.1644 641.7191,437.1066 642.0216,436.4579 642.5166,434.8888 642.7304,433.5634 642.7958,432.6006 642.7655,431.3441 642.6138,430.0096 642.3145,428.4779 641.8711,426.8008 641.3879,425.2515 640.7191,423.3357 640.0787,421.629 639.3253,419.7002 638.4317,417.4643 637.6308,415.4721 636.5538,412.7704 635.6817,410.5435 634.6849,407.9169 633.7862,405.4697 632.6166,402.1822 631.6915,399.4996 630.8882,397.114 629.6533,393.3699 628.4172,389.5554 627.4028,386.3921 626.3905,383.2282 625.0562,379.0637 624.0854,376.0471 622.5863,371.4238 621.0569,366.7342 619.769,362.7996 618.2,358.0012 616.884,353.9324 615.3442,349.0638 613.7524,343.7673 612.2662,338.2761 611.0828,333.4 610.0723,328.7374 608.9927,322.6593 608.3751,317.9706 607.9571,313.515 607.6385,308.0492 607.5522,301.6434 607.7445,296.345 608.2112,289.6615 608.6901,284.166 609.4876,277.5986 610.6188,271.1676 612.3414,263.8775 614.157,257.7914 616.2136,251.9403 620.8417,240.7383 622.7804,236.5162 625.5947,230.9941 628.3924,225.7401 631.2993,220.4879 634.3944,215.1381 637.3854,210.1391 640.2103,205.6095 643.8607,200.0641 647.1558,195.2629 650.756,190.0981 653.7328,185.7596 656.9178,180.9534 659.1351,177.4503 661.9436,172.4507 663.8387,168.5287 665.8125,163.9337 667.7287,158.9005 669.0345,155.1481 670.2389,151.058 671.1328,146.7913 671.7095,143.1107 672.3402,137.7535 672.5664,134.1751 672.6343,129.6545 672.584,125.7612 672.3597,121.5424 671.8779,117.2249 671.2169,112.6979 670.4125,108.0507 669.4932,103.809 668.4654,99.88885 667.0617,95.22357 665.9613,91.92645 664.4587,87.76703 662.8257,83.47626 661.0467,79.0376 658.3645,72.93848 656.6807,69.45245 653.9063,64.25031 650.9318,59.1239 648.2059,54.63312 646.2425,51.51447 643.3903,47.15436 641.2311,43.992 638.6375,40.3551 636.2634,37.17596 634.3235,34.71954 632.5353,32.56232 629.3505,28.87323 625.8499,25.01831 624.0142,23.10968 620.4094,19.61444 617.5248,17.12506 613.9042,14.43115 609.9313,11.99561 606.8336,10.302 602.0888,7.985352 597.5933,6.094421 592.8307,4.325562 589.7124,3.311523 584.5176,1.877136 579.127,0.7276611 575.1068,0.2073364 570.3164,0 564.1221,0.3435669 559.0928,1.161987 554.3776,2.063721 551.2407,2.699219 547.5059,3.522705 541.8745,4.96991 537.9217,6.19342 533.2529,8.002747 529.0303,9.95636 525.8967,11.53821 522.0065,13.69 518.7911,15.58539 515.9407,17.30603 511.9266,19.78107 507.7191,22.46765 504.0343,24.89423 501.6867,26.47083 497.8737,29.08472 494.0345,31.81702 490.9142,34.12695 486.4821,37.53796 483.5001,39.8999 478.432,43.99457 475.2004,46.65753 470.8667,50.2558 466.6472,53.76404 462.9404,56.8399 459.6892,59.53564 456.9191,61.83441 453.2862,64.85779 450.2449,67.4007 446.1198,70.88214 442.6017,73.88849 438.3106,77.61664 433.8898,81.52368 429.683,85.26965 424.489,89.95538 419.7003,94.40411 415.788,98.1156 412.7417,101.06 408.1697,105.5603 403.4708,110.2399 399.0718,114.6425 394.7477,118.9841 389.3785,124.3922 385.7693,128.0362 380.3214,133.5426 375.2793,138.646 369.2555,144.7438 365.3953,148.6439 358.9036,155.1811 354.2509,159.8362 349.3086,164.736 344.432,169.5078 338.5371,175.216 334.3022,179.2391 329.501,183.6935 324.3977,188.3512 319.2426,192.9973 312.9743,198.54 309.4205,201.6461 303.4506,206.8142 296.2226,212.995 291.6387,216.8804 285.9195,221.6682 279.5906,226.873 275.1578,230.4759 269.5467,234.9542 264.7298,238.7228 258.1722,243.7922 252.4196,248.1865 246.5952,252.5501 240.7007,256.8667 234.7598,261.1418 228.1697,265.8172 221.503,270.4489 215.3723,274.5963 207.9681,279.5225 202.8421,282.8885 196.1013,287.2313 190.4338,290.8368 184.7478,294.4271 177.4311,298.9828 169.5799,303.7872 163.6202,307.3951 157.6404,310.9895 150.4809,315.2478 145.4157,318.2341 136.568,323.416 130.9554,326.6715 124.3238,330.4846 117.1674,334.5669 109.5152,338.912 103.7344,342.189 96.45624,346.3162 90.38068,349.7631 83.49567,353.6668 77.45313,357.0925 71.08441,360.6999 66.32068,363.3961 62.01074,365.8328 57.19562,368.554 52.82776,371.0218 48.77197,373.3143 44.34406,375.8221 40.60889,377.9467 36.21307,380.4707 32.01392,382.9512 29.25244,384.6562 26.10114,386.7039 22.98352,388.8781 19.56824,391.5132 17.2041,393.583 14.90552,395.8664 12.34937,398.7512 9.843018,402.0575 8.285156,404.4348 6.28241,407.9509 4.643677,411.3735 2.991089,415.5726 2.036743,418.5744 1.097534,422.3495 0.4745483,425.8762 0.09173584,429.4851 0,433.9134 0.1208496,437.19 0.5791626,442.512 1.2547,446.8579 2.262878,451.5271 3.359253,455.3938 4.958923,459.8985 6.23877,463.0665 8.009399,467.0464 10.15167,471.6854 12.25098,476.2334 14.44672,480.9912 16.70892,485.8403 18.70117,490.0154 21.24817,495.2125 23.30481,499.3135 25.57367,503.7566 27.70001,507.8354 29.66443,511.4619 32.05713,515.6208 34.66632,519.7902 37.02979,523.133 40.26355,527.1095 41.95496,529.0148 45.74603,532.7921 49.05035,535.6164 52.86285,538.558 56.7403,541.1456 60.53259,543.4164 64.19824,545.4155 68.76929,547.6542 73.21948,549.588 77.64154,551.2498 82.73682,552.939 87.35645,554.2614 90.98962,555.1462 96.71429,556.3158 102.521,557.2036 107.0937,557.6836 112.6311,558.0302 119.3192,558.0708 124.0208,557.8445 129.8226,557.2994 135.6083,556.3561 140.4084,555.2078 145.3995,553.7222 150.9169,551.7786 155.2314,549.9949 160.9943,547.3466 167.1302,544.3387 171.4594,542.1288 177.6158,538.9088 181.4979,536.8104 187.513,533.3001 192.8648,529.8426 198.1816,526.1138 203.4127,522.1929 210.3833,516.6462 216.002,512.0245 221.5977,507.2328 227.2435,502.1504 231.9174,497.8089 237.4891,492.4637 242.1044,487.9475 246.7057,483.3813 252.091,477.6623 256.4662,472.5179 260.5785,467.332 265.2017,461.093 269.4806,455.0919 272.5767,450.6194 276.1495,445.0407 279.2493,439.6368 281.687,434.8604 283.4995,430.8388 285.4519,425.9051 287.3733,420.2991 288.8633,415.0173 289.9656,410.0552 290.9089,404.7685 291.6069,399.2856 291.9599,393.9451 292.0945,388.4402 292.0283,382.2942 291.7833,377.7466 291.3297,372.7439 290.5434,366.4537 289.8449,361.753 289.069,357.119 288.3284,352.8796 287.512,347.9945 286.7212,342.5901 286.136,338.1157 285.6505,332.4587 285.5891,327.4929 285.8929,322.2995 286.6458,317.3643 287.7414,312.5821 288.9376,308.4149 290.6661,303.3514 292.1838,299.3389 293.8595,295.3452 295.5805,291.6589 297.8277,287.2635 300.455,282.5214 302.7654,278.6084 305.9811,273.6245 308.2396,270.3767 311.0819,266.4205 313.564,263.0439 316.6185,259.023 320.1724,254.4591 322.8747,251.0061 326.5285,246.3314 329.9668,241.8886 332.7477,238.2462 336.807,232.87 340.4676,227.9763 344.1216,223.0392 347.6597,218.2176 351.5483,212.9053 354.3472,209.0836 357.2634,205.1106 360.0941,201.2687 363.093,197.2051 365.417,194.0536 367.799,190.8343 370.6628,187.0452 373.1581,183.8809 376.2164,180.2877 379.245,177.16 381.7138,174.9402 384.4065,172.8347 387.3407,170.8338 390.9802,168.7827 394.4496,167.2317 398.1496,165.89 401.248,165.0335 404.1594,164.5366 407.4867,164.3951 410.8586,164.5677 414.5418,165.116 417.9897,165.8631 420.955,166.6286 424.5644,167.8056 427.8452,169.1985 430.433,170.4685 433.2997,172.0752 437.1617,174.749 440.3326,177.3612 443.4788,180.3054 445.4277,182.2903 448.3828,185.5637 451.4425,189.4441 454.105,193.1932 457.0508,197.6564 459.636,201.8384 461.9349,205.569 464.749,210.0211 467.7638,214.5172 470.4378,218.2732 473.7782,222.8148 477.0511,227.187 480.1924,231.3549 483.8962,236.1646 " style="fill:none;stroke:red;stroke-width:4" /></svg>