<?xml version="1.0" standalone="yes"?><!DOCTYPE svg PUBLIC "-//W3C//DTD SVG 1.1//EN" "http://www.w3.org/Graphics/SVG/1.1/DTD/svg11.dtd"><svg xmlns="http://www.w3.org/2000/svg" version="1.1"><polyline points="704.9169,594.58 701.4433,587.486 698.4743,581.3676 695.414,574.9897 692.4204,568.6737 689.6302,562.7483 686.7483,556.5613 684.1091,550.8234 680.8965,543.7615 678.1758,537.6976 675.732,532.1883 671.777,523.0746 669.0067,516.4983 665.7332,508.5475 663.4769,502.9699 660.0803,494.4217 657.2034,487.0405 654.3677,479.6563 652.2947,474.1781 649.4267,466.4953 647.1364,460.2706 644.4516,452.8498 641.9007,445.6081 640.3184,441.037 637.5526,432.9085 635.6677,427.213 633.5908,420.7702 631.3885,413.8238 629.4437,407.6293 627.0268,399.8585 625.1923,393.9068 623.1151,387.1466 620.7493,379.4338 618.8319,373.1657 615.6821,362.7277 613.6604,355.8061 611.3943,347.7276 609.8618,341.8187 608.5922,335.6096 607.5073,328.2376 606.8119,321.3102 606.5481,315.8433 606.5773,309.0633 606.8748,301.7464 607.6615,293.5854 608.4728,287.5787 609.4235,280.8868 610.5889,273.6336 612.2122,266.4963 614.3104,258.9247 616.6265,251.687 618.7745,246.005 620.4814,241.671 623.3445,234.7608 626.5157,228.291 629.3147,222.9667 632.2261,217.6669 635.7444,211.5338 640.047,204.2852 643.1033,199.3103 646.5386,193.8769 649.5989,189.1396 652.7946,184.2445 655.4615,180.1404 657.8644,176.4034 659.866,173.1964 661.5325,170.3968 663.7441,166.4654 665.4458,163.199 667.4077,159.0383 669.0482,155.2134 670.2729,151.981 671.417,147.9976 672.2156,144.1096 672.7729,140.1179 673.0048,135.3029 672.9376,130.6331 672.764,126.4651 672.4806,122.572 672.0195,118.3727 671.3486,113.4955 670.5501,108.5658 669.6509,104.0815 668.4663,99.22894 666.8007,93.49084 665.3613,89.23578 663.775,84.95349 661.2872,78.70862 659.2652,74.04852 656.5545,68.32574 654.2575,63.91107 651.0212,58.13977 648.0771,53.16925 644.6997,47.8161 641.4625,43.0528 638.2719,38.63745 635.2609,34.69702 632.5725,31.44983 629.7079,28.20599 626.6805,24.89612 623.8683,21.94147 621.8083,19.88684 617.8667,16.31445 614.2263,13.43866 610.3632,10.95868 606.3181,8.732971 601.7203,6.561829 598.4017,5.250366 593.9646,3.733398 589.3126,2.423828 585.9271,1.624756 580.3571,0.5899048 575.1075,0.04400635 570.1565,0 565.6499,0.3248291 559.8657,1.273804 554.2141,2.517395 550.6655,3.381653 544.2183,5.10498 539.1789,6.668091 532.6021,9.138123 527.1898,11.54187 520.902,14.72491 516.2141,17.39917 510.7135,20.73944 506.9,23.19684 503.1907,25.70398 498.5519,28.93774 494.3666,31.91406 490.9218,34.41943 485.4173,38.53943 479.1853,43.29352 473.6375,47.58789 466.8008,52.98938 460.9918,57.68268 454.3177,63.17987 448.4657,68.07184 442.9099,72.7782 436.5879,78.22754 429.7261,84.2146 423.8376,89.3974 418.2554,94.4519 411.8581,100.4382 406.2347,105.887 399.2986,112.7668 393.2089,118.8962 386.7164,125.5148 381.2585,131.1259 375.5866,136.9871 369.1109,143.7251 364.0566,149.0021 358.1875,155.1278 351.7385,161.8156 346.6639,167.0052 340.2678,173.4626 334.4404,179.2556 329.4528,184.0805 323.7453,189.4948 319.0267,193.8876 310.9761,201.1308 305.1823,206.1767 298.6996,211.6938 292.6188,216.7867 288.5592,220.143 282.6455,224.9382 276.885,229.5453 270.3845,234.6591 265.6733,238.2799 258.1628,243.958 252.2922,248.3343 247.4681,251.8592 240.1389,257.0435 233.9676,261.2967 226.6136,266.2796 219.8594,270.7361 211.0739,276.3675 203.6401,281.0713 195.9128,285.8856 188.5095,290.4428 182.0199,294.4088 176.2066,297.9186 167.7711,302.9398 160.6248,307.1557 153.2231,311.4919 148.0081,314.5257 140.1199,319.1013 134.3281,322.4558 125.7139,327.438 119.2076,331.1979 111.5831,335.606 104.4559,339.7362 96.55145,344.3355 88.9046,348.8105 81.35706,353.2448 74.56415,357.2467 67.59003,361.3681 62.7533,364.2257 56.35089,367.9937 52.06177,370.5093 47.56769,373.1429 42.67938,376.0205 40.04181,377.5865 35.14911,380.5401 31.17938,383.0282 28.27655,384.9422 24.73694,387.4351 21.22754,390.122 18.1712,392.7345 15.45392,395.4099 12.98328,398.177 11.05072,400.592 8.629822,404.0305 6.381104,407.8889 4.958984,410.7097 3.21405,414.6969 2.062378,417.9831 1.008484,421.9695 0.4026489,425.1382 0.03027344,428.7966 0,431.8344 0.147522,435.9137 0.5586548,440.2897 1.141785,443.8838 2.219971,448.8536 2.895203,451.3833 4.408203,456.1618 6.226318,461.1916 7.983337,465.6209 10.49774,471.5522 12.92334,477.0104 15.84485,483.3204 18.34369,488.517 21.15839,494.1045 22.61884,496.8898 26.04626,503.1169 29.46893,508.9175 32.1239,513.0915 35.5069,518.0552 39.14673,522.8476 43.30298,527.6544 47.25842,531.7424 50.86859,535.0297 54.61584,538.068 58.36432,540.7596 62.83801,543.5938 67.79535,546.324 70.35944,547.6027 74.74878,549.5452 81.42993,552.0023 86.20526,553.4971 91.00012,554.6981 96.98218,555.8349 102.5607,556.5629 107.1767,556.9172 113.1769,557.0792 117.1044,556.9839 123.5023,556.5082 128.9655,555.8425 134.0369,554.954 140.2159,553.4889 145.7369,551.9091 151.4493,550.0294 156.7274,548.013 163.6059,545.0281 168.2472,542.7567 173.5461,540.0098 180.4282,536.2763 184.8525,533.6871 190.1223,530.3124 196.2759,526.017 200.4498,522.9465 205.3218,519.2287 210.9724,514.7755 216.137,510.6209 220.5063,507.0014 225.9319,502.3144 231.7274,497.1196 236.1611,492.9863 240.6686,488.6682 246.6851,482.7661 251.2325,477.9413 256.3913,471.7781 259.7402,467.4225 263.2748,462.527 267.7184,456.1287 271.0959,451.1157 274.9869,444.85 277.8909,439.7078 281.7378,431.9231 283.9239,426.7191 285.9217,421.249 287.8832,415.0358 289.1688,410.1207 290.2449,405.1097 291.1171,400.1191 291.8029,394.1467 292.151,387.882 292.2732,383.1153 292.2292,378.3625 291.7467,371.4807 290.94,364.9137 290.0595,359.5081 288.9377,353.7796 288.0865,349.6603 287.0598,344.4677 286.2812,340.1129 285.6133,335.7925 285.1517,330.6711 285.0661,325.6607 285.2833,321.8936 286.0742,316.5809 287.1971,311.6371 288.7554,306.4332 290.5153,301.4448 292.0362,297.5681 294.3787,292.3537 296.42,288.2452 298.6209,284.2003 301.7597,278.9374 304.5557,274.6513 307.5888,270.3636 311.4288,265.1648 315.434,259.8916 318.4991,255.9493 322.6193,250.6562 326.2432,245.9594 329.3875,241.835 332.1447,238.1843 335.8702,233.2135 339.4757,228.3741 342.2661,224.6087 345.6142,220.0688 349.6473,214.5833 353.6441,209.1393 356.6848,204.9984 359.5053,201.158 362.351,197.2958 364.9243,193.8203 367.3044,190.6509 369.9235,187.2548 372.8195,183.6459 375.3605,180.6499 378.1027,177.6942 380.4806,175.3831 382.7522,173.3898 386.0346,170.884 387.9004,169.64 392.1803,167.3478 394.5096,166.356 397.9562,165.1309 401.8103,164.1309 405.1492,163.5962 408.8542,163.3473 411.6758,163.4255 414.7191,163.7758 418.8252,164.6177 421.7428,165.5078 424.5392,166.6182 427.6418,168.0988 430.4027,169.5876 432.9633,171.1423 435.4916,172.8655 438.3506,175.0305 440.6718,177.0253 443.1604,179.4184 445.6529,182.0355 448.2076,184.951 450.3977,187.6512 452.4829,190.3562 454.8082,193.4997 456.7581,196.2622 459.2411,199.9291 461.4985,203.3384 463.7051,206.7007 466.103,210.3377 468.0393,213.2199 470.8719,217.3013 473.6111,221.1021 476.1596,224.4904 479.0733,228.187 482.0248,231.7112 485.1615,235.2147 488.3334,238.5938 492.3646,242.7247 496.4753,246.7823 499.4159,249.5779 504.1819,253.9696 507.6876,257.1198 512.8375,261.675 517.1151,265.4465 520.8452,268.7432 525.3691,272.7843 529.439,276.4633 534.0615,280.6723 539.0525,285.3153 543.2056,289.2866 547.738,293.8128 551.3159,297.6126 555.7683,302.6694 560.248,308.0259 564.1044,312.8178 567.7718,317.5666 571.4271,322.5123 575.0148,327.558 579.6275,334.325 583.1128,339.7004 586.226,344.7482 589.6005,350.4056 593.8428,357.8237 596.4452,362.7137 600.1284,370.0836 602.8913,375.8776 605.7002,382.1164 609.2792,390.852 611.1196,395.4439 613.7775,402.0826 615.5201,406.4392 617.5166,411.4372 619.3546,416.0521 621.3202,421.0431 623.0216,425.4276 624.4167,429.1182 626.064,433.7165 627.3386,437.619 628.3719,441.1356 629.4093,445.5446 629.9196,448.9404 630.1637,453.0331 630.0205,456.6725 629.6453,459.8642 629.0715,463.0309 628.1727,466.6327 627.1237,470.1444 626.004,473.5364 624.8259,476.6498 623.2045,480.2535 621.8769,482.7545 619.9254,485.8322 618.0229,488.3708 616.0016,490.7646 613.4359,493.4095 611.3643,495.3325 608.7617,497.6125 606.2611,499.7109 603.7437,501.7691 601.4048,503.6715 599.1335,505.5593 596.9637,507.5634 594.9404,509.7582 592.9177,512.3884 591.3215,514.9897 590.0383,517.5141 588.9745,519.9424 587.9917,522.6539 587.2467,525.6024 586.7623,528.3949 586.3676,531.6461 586.2137,534.0732 586.217,537.2086 586.4161,540.5402 586.7457,543.8836 587.0638,546.3431 587.6737,549.9911 588.3829,553.7199 588.9507,556.6068 589.6764,560.2413 590.4742,564.1824 591.0492,567.0241 591.8091,570.7813 592.5532,574.4603 593.1517,577.4203 593.8785,581.0156 594.563,584.376 595.3862,587.6734 596.3044,590.3741 597.3157,593.2659 598.4961,596.5538 599.7307,599.547 601.0014,602.4067 602.2613,605.2503 603.5716,608.2648 605.0591,611.7722 606.3412,614.8565 607.8901,618.6743 609.0105,621.5287 610.4797,625.3766 612.2993,630.253 613.3494,633.1108 615.009,637.6979 616.3981,641.5952 617.7852,645.5285 619.1774,649.4992 620.8056,654.0978 622.3218,658.3041 624.2223,663.4315 625.493,666.762 627.3971,671.6259 629.6411,677.1176 631.0528,680.3672 633.0901,684.8159 634.6179,688.0217 636.6669,692.0856 638.2123,694.9713 640.3128,698.7234 642.1512,701.7313 643.9882,704.3258 646.4655,707.3934 648.5455,709.7352 651.3138,712.566 653.7296,714.8987 656.2565,717.2875 659.049,719.8475 661.6948,722.2158 664.6433,724.9114 667.6776,727.8524 670.1643,730.4354 672.7391,733.3408 674.408,735.4205 677.3043,739.554 679.3128,743.0455 681.2457,747.1707 682.4842,750.4238 683.6044,753.9468 684.3939,757.3773 684.9744,760.9666 685.353,764.8835 685.4829,768.1324 685.5089,771.8054 685.4749,775.801 685.4343,779.4216 685.4365,783.7465 685.5624,787.9536 685.8439,792.5847 686.3574,797.0344 687.1351,800.981 688.1959,805.4745 688.7702,807.7708 690.0566,812.8423 691.0486,816.5667 692.334,820.5566 693.9099,824.5376 695.7243,828.7301 697.2412,832.1245 698.53,835.0679 699.964,838.6118 701.3135,842.4845 702.2189,845.4701 703.3675,849.801 704.2656,854.3416 704.7257,857.7514 705.0823,861.0447 705.4164,865.4268 705.5338,869.1781 705.519,872.6768 705.4274,876.2711 705.322,879.421 705.1774,883.4791 705.1068,886.6527 705.1198,889.525 705.2344,892.1987 705.514,894.8502 705.9848,897.2775 706.6057,899.3655 707.4009,901.3249 708.5383,903.4163 709.6813,905.0851 711.1135,906.7498 712.6953,908.2087 714.5569,909.5569 716.2009,910.4084 717.6535,910.9064 719.9484,911.3788 721.7996,911.5793 723.5538,911.6538 725.2651,911.6362 726.9846,911.5385 728.9235,911.3394 730.7902,911.0743 732.7226,910.7356 734.6091,910.3469 736.553,909.8978 738.6974,909.3517 740.892,908.7484 742.808,908.1913 745.0978,907.5035 747.3458,906.81 750.5496,905.8149 752.6391,905.1666 755.1465,904.394 758.6285,903.3261 762.2113,902.2357 764.9727,901.4003 769.3407,900.0853 774.3841,898.5612 779.436,897.0234 783.7563,895.7169 787.0575,894.7169 790.7258,893.5751 794.4073,892.3389 798.7877,890.7027 803.3437,888.7969 806.4872,887.3743 809.4493,885.9613 811.9244,884.6572 815.0128,882.6887 817.4089,880.7892 819.188,879.0587 821.2101,876.6754 822.651,874.6221 824.2748,871.8524 825.4693,869.411 826.5459,866.717 827.3153,864.2529 827.9898,861.4625 828.4757,858.814 828.8284,856.1434 829.1024,852.6176 829.1677,850.3595 829.1304,847.2738 828.8866,843.2435 828.5645,840.212 827.9827,836.3962 827.1874,832.4507 826.1979,828.4355 825.2922,825.2181 824.1041,821.4846 822.6205,817.4784 820.7367,812.9363 818.676,808.3183 816.9236,804.6473 814.6129,800.0999 811.5285,794.1636 809.0492,789.6066 806.2615,784.7349 803.8179,780.5392 801.1971,776.0598 797.9642,770.5218 794.9979,765.4084 792.5565,761.1695 789.5908,755.9778 786.7484,750.9651 783.0084,744.3282 780.4207,739.7091 776.7535,733.1229 774.0641,728.2695 770.9098,722.5574 768.18,717.5906 765.4272,712.537 761.7147,705.6622 758.9802,700.5518 755.6884,694.3399 752.6215,688.5038 750.0519,683.5791 747.1052,677.8912 743.5477,670.9835 740.7595,665.5412 737.3525,658.8514 734.0227,652.2835 731.4745,647.2521 727.7659,639.9363 724.0672,632.654 720.8261,626.274 716.8835,618.4971 713.8068,612.4036 710.7313,606.2767 706.9737,598.7411 " style="fill:none;stroke:red;stroke-width:4" /></svg>