<?xml version="1.0" standalone="yes"?><!DOCTYPE svg PUBLIC "-//W3C//DTD SVG 1.1//EN" "http://www.w3.org/Graphics/SVG/1.1/DTD/svg11.dtd"><svg width="1065px" height="529px" xmlns="http://www.w3.org/2000/svg" version="1.1"><polyline points="1129.06,358.2352 1135.377,357.6511 1143.43,356.9354 1150.907,356.2934 1158.044,355.6931 1166.076,355.0258 1173.394,354.4214 1180.739,353.8147 1188.985,353.1306 1196.508,352.5028 1204.437,351.8387 1211.506,351.247 1218.707,350.6484 1226.871,349.9805 1234.164,349.395 1241.349,348.8314 1248.919,348.2533 1255.294,347.7752 1262.028,347.2705 1268.067,346.8069 1273.715,346.3405 1279.673,345.785 1285.085,345.1922 1290.265,344.529 1295.276,343.809 1299.821,343.0625 1304.291,342.2007 1309.572,340.9974 1313.562,339.9285 1317.942,338.5455 1322.033,337.0389 1326.299,335.2583 1329.856,333.5692 1333.249,331.7543 1336.454,329.8406 1339.522,327.7985 1342.498,325.6009 1345.652,323.0139 1348.173,320.6992 1350.781,318.0225 1352.987,315.5143 1355.445,312.4378 1357.441,309.6432 1359.166,306.8538 1360.733,303.8898 1362.122,300.81 1363.31,297.6608 1364.255,294.4896 1365.011,291.1537 1365.579,287.6042 1365.884,284.3425 1365.996,281.0526 1365.908,277.2896 1365.668,274.2408 1365.191,270.499 1364.634,267.2531 1363.852,263.5329 1363.005,260.1371 1362.035,256.7827 1360.856,253.2365 1359.409,249.3778 1358.084,246.1361 1356.372,242.2659 1354.775,238.8958 1352.968,235.3042 1350.759,231.1635 1348.747,227.5978 1346.498,223.8015 1344.243,220.1559 1341.466,215.8263 1338.932,212.0256 1335.887,207.5987 1333.124,203.6765 1330.276,199.7094 1327.451,195.8282 1324.149,191.3419 1321.073,187.2243 1317.904,183.0712 1314.632,178.8978 1310.781,174.1471 1307.323,170.0336 1303.752,165.9263 1299.408,161.1273 1295.636,157.1273 1291.607,153.0162 1286.974,148.4833 1282.821,144.6453 1278.458,140.8233 1273.894,137.0078 1268.552,132.7738 1263.969,129.3169 1258.161,125.1698 1253.309,121.919 1248.071,118.6093 1242.159,115.0919 1236.939,112.1877 1231.227,109.2081 1225.414,106.3359 1219.496,103.5761 1212.752,100.6543 1206.932,98.27716 1200.078,95.66763 1193.822,93.53902 1187.802,91.66507 1180.62,89.60274 1174.016,87.90837 1167.552,86.45311 1160.455,85.05615 1153.642,83.86729 1146.991,82.87497 1139.236,81.9586 1132.831,81.34503 1125.909,80.85538 1118.115,80.55086 1111.466,80.49651 1103.473,80.7114 1096.65,81.16092 1089.93,81.76811 1081.497,82.64807 1074.366,83.44255 1067.366,84.23767 1060.174,85.04633 1053.156,85.79222 1045.931,86.45348 1038.847,86.94174 1031.556,87.32332 1024.402,87.56401 1017.497,87.60493 1009.677,87.42842 1002.69,87.10643 995.7115,86.58809 988.7468,85.8309 981.565,84.90044 974.6229,83.89423 967.6899,82.64183 960.6862,81.02841 953.6097,79.11517 946.5889,76.8947 940.3145,74.61482 933.6354,71.97214 927.0042,69.13818 919.6761,65.71439 912.9731,62.31316 906.5496,58.84421 900.5007,55.39325 894.1833,51.61664 887.8998,47.74907 881.8638,43.98544 875.7379,40.15382 868.7788,35.82295 863.2335,32.41069 857.8056,29.11246 852.7685,26.10159 847.1131,22.80261 842.3417,20.09077 837.991,17.67105 833.6788,15.33226 829.4962,13.14111 825.2935,11.02138 821.5919,9.243225 817.3202,7.325928 813.5026,5.745544 809.6714,4.300964 805.7594,3.005722 801.8235,1.899689 797.9613,1.031525 794.4617,0.4623566 790.4344,0.0785675 786.8772,0 783.255,0.1814423 779.6976,0.5858459 776.1473,1.167389 772.3559,1.940521 768.8609,2.781036 765.1107,3.774612 761.4631,4.835037 757.7954,5.969955 754.103,7.198334 749.7581,8.828827 746.0272,10.41049 742.2749,12.11398 738.8057,13.79211 734.5502,16.01831 730.7142,18.17955 726.7903,20.54012 722.7871,23.11763 719.0992,25.62683 715.2044,28.40828 711.4532,31.23289 707.0158,34.76581 703.1682,37.9875 699.3929,41.28651 695.6206,44.70056 691.4611,48.5865 687.6178,52.29816 683.7659,56.10326 679.9511,59.91772 675.897,63.99338 671.9174,67.98447 667.7955,72.07243 663.6517,76.10313 659.5521,79.99046 654.7122,84.42514 650.5551,88.07983 645.2731,92.4895 641.3323,95.60947 635.7502,99.81987 630.6853,103.4539 625.6668,106.8797 620.6213,110.1535 615.2797,113.4301 609.3416,116.8243 604.0182,119.6699 597.636,122.8775 591.9048,125.5776 585.5565,128.336 579.7079,130.701 573.8704,132.8963 567.0801,135.1742 560.7131,137.0786 554.6008,138.7696 547.4327,140.572 540.8256,142.0068 534.4929,143.2234 528.0176,144.3558 520.4661,145.4842 513.6483,146.3169 506.9017,147.0032 499.4242,147.6308 492.9489,148.0794 485.2792,148.51 478.5054,148.807 471.9392,149.0312 464.2829,149.2147 457.299,149.2932 450.5309,149.2895 443.0255,149.2057 435.0105,149.0073 428.0492,148.7099 421.3154,148.2861 413.2473,147.6128 406.0155,146.8059 399.0352,145.7976 391.5959,144.4646 384.5504,142.938 376.4886,140.8475 369.6752,138.7809 362.7008,136.3662 355.9188,133.7453 348.4043,130.5881 341.8561,127.6375 334.7086,124.2158 328.3232,121.0206 322.1625,117.8188 316.0566,114.5406 309.4192,110.853 303.6031,107.5173 297.8062,104.1184 292.9862,101.2348 288.1839,98.29378 283.4872,95.36139 278.6205,92.28343 274.9536,89.942 270.4541,87.05823 266.4793,84.51718 262.7546,82.15938 258.568,79.55949 255.088,77.43951 251.6912,75.41846 248.0468,73.38493 244.5926,71.61342 241.3527,70.08704 238.1482,68.74295 234.4704,67.42136 231.1155,66.42143 227.3363,65.54483 224.0463,64.9866 220.2747,64.55623 216.8933,64.35564 213.2678,64.31392 209.7501,64.41197 206.3375,64.64896 202.4483,65.11874 199.1457,65.66943 195.8375,66.33792 191.874,67.31546 188.4467,68.3416 184.9618,69.52762 181.1179,70.96297 177.6318,72.45274 174.2444,74.1604 170.5475,76.25601 167.1857,78.34451 163.6183,80.89268 160.7978,83.16344 157.799,85.78848 155.0745,88.38991 151.9419,91.6601 149.4719,94.39561 146.9798,97.29111 144.5447,100.2484 142.0241,103.4091 139.4127,106.7902 137.0287,109.9767 134.6549,113.2192 132.3212,116.4623 129.9409,119.8347 127.5083,123.3319 125.1314,126.7742 122.4349,130.7031 120.0294,134.2303 117.5894,137.8285 114.722,142.0766 112.0993,145.9738 109.4214,149.953 106.688,154.0053 103.8204,158.2395 101.0806,162.2635 97.94031,166.8439 94.93176,171.2043 92.06647,175.338 88.633,180.265 85.54773,184.663 82.34784,189.1877 79.14075,193.6832 76.03241,197.9948 72.18921,203.2806 68.85693,207.8335 65.14081,212.8872 61.62335,217.652 58.18848,222.2947 54.37103,227.4505 50.88165,232.1635 47.24872,237.0724 43.36707,242.321 39.62354,247.3876 36.49286,251.629 33.29614,255.9657 29.91516,260.5654 26.99194,264.5591 24.02716,268.6358 21.50983,272.133 19.0943,275.5341 16.25171,279.6511 13.96771,283.1125 11.51782,287.0997 9.481934,290.7821 7.681274,294.2711 5.843994,298.0932 4.508972,301.3408 3.325073,304.6839 2.209534,308.5572 1.473083,311.8402 0.7593994,315.894 0.3060303,319.4504 0.05847168,323.1808 0,326.8869 0.08258057,331.0736 0.387207,334.8042 0.9121704,338.6268 1.60675,342.4119 2.65625,346.7478 3.849243,350.6342 5.264954,354.5259 6.903625,358.418 9.02179,362.7607 11.10785,366.5682 13.43408,370.4369 16.27429,374.7484 18.92432,378.45 22.20886,382.678 25.31018,386.3059 28.6308,389.8339 32.53796,393.5936 36.42072,396.9733 40.43976,400.1365 44.56482,403.0739 49.50928,406.237 53.92969,408.7849 58.6322,411.2562 63.48718,413.5689 68.61938,415.8553 73.62006,417.9565 78.74561,419.9434 84.43274,421.9562 89.68842,423.667 95.88879,425.4864 101.3657,426.9081 106.8303,428.1671 113.2148,429.4797 119.4729,430.595 125.2161,431.4621 131.1044,432.2272 136.9357,432.89 143.5294,433.5289 149.5613,434.0115 155.6336,434.3933 162.5803,434.7081 168.3288,434.8802 174.6423,434.9964 181.538,435.0603 187.42,435.0746 194.7473,435.0545 200.9346,435.0226 207.2739,434.9878 214.6508,434.9544 220.9712,434.937 228.2288,434.9319 234.7489,434.9424 242.2165,434.9715 248.477,435.0092 256.0154,435.0724 262.9049,435.1498 269.3661,435.2402 276.2058,435.3532 284.0143,435.5038 290.8087,435.6505 297.3984,435.8027 305.3204,435.9939 312.3305,436.1667 319.3713,436.3404 326.4434,436.512 334.5131,436.7011 341.7718,436.8626 349.061,437.0149 356.3751,437.1581 363.4574,437.2906 370.7044,437.4155 378.9814,437.5363 386.1768,437.6245 393.4015,437.7008 401.9081,437.7784 409.1936,437.8387 416.6326,437.8977 424.2252,437.9575 431.7164,438.0175 439.7441,438.0844 448.0387,438.1575 455.0262,438.2242 463.2108,438.3104 470.0695,438.3911 477.9977,438.4944 485.5098,438.6034 493.4702,438.7296 500.0565,438.8408 508.0765,438.9858 515.3404,439.1249 522.2195,439.2594 529.2065,439.398 537.2177,439.559 544.0823,439.6976 551.6234,439.8505 557.9879,439.9799 564.9346,440.1216 570.8538,440.2429 576.9042,440.3672 582.4791,440.4821 587.6974,440.5896 593.1619,440.702 597.7253,440.7951 602.1112,440.8838 607.0894,440.9825 611.2335,441.062 615.2785,441.1364 619.5473,441.2104 627.4468,441.3315 631.0069,441.3791 634.5908,441.421 637.2895,441.4461 640.6,441.4498 643.2599,441.4141 646.5247,441.2747 649.321,441.0256 652.3853,440.5735 654.9658,440.0031 657.5851,439.2245 660.22,438.2116 662.6493,437.0586 664.8083,435.8484 667.1292,434.3557 669.3571,432.7229 671.2429,431.2031 673.3755,429.3501 675.1576,427.7344 677.3066,425.6945 679.0216,423.98 681.1546,421.7988 682.9642,419.9384 685.15,417.7021 687.0233,415.8087 689.3402,413.5046 691.4909,411.4113 693.6506,409.3619 696.0144,407.1759 698.4767,404.9594 701.2742,402.543 703.8935,400.3893 706.9786,397.9951 709.6681,396.0609 712.9368,394.0732 716.2307,392.3394 719.9141,390.513 723.2864,388.9652 727.3944,387.3881 731.1003,386.2212 735.305,385.0166 739.6949,383.8726 743.7449,382.9738 748.0446,382.1689 752.8943,381.3997 757.4634,380.8241 761.9315,380.3729 766.4284,379.983 770.9716,379.6936 775.2792,379.4856 779.9547,379.2708 784.2755,379.065 789.2107,378.8123 793.3395,378.5922 798.4017,378.3124 802.9769,378.0483 807.4406,377.7826 812.4183,377.4815 817.0539,377.1971 821.7512,376.9068 826.842,376.597 831.592,376.32 836.7198,376.0388 842.1008,375.7679 847.0511,375.5391 852.1577,375.3206 857.4229,375.1093 863.2972,374.8851 868.6193,374.6876 873.8245,374.4958 879.9283,374.2685 885.1729,374.0676 891.4262,373.8186 897.3705,373.5712 902.8953,373.3314 908.4761,373.0799 914.9798,372.7767 920.7482,372.5 926.6685,372.2098 933.1492,371.8866 939.2793,371.5767 945.4615,371.2608 952.4261,370.9014 958.7174,370.5737 964.8473,370.2515 970.7032,369.9409 977.1384,369.5964 984.4906,369.1984 990.7009,368.8581 997.1739,368.4946 1004.467,368.0649 1010.698,367.6777 1018.091,367.2004 1024.405,366.784 1031.211,366.3309 1038.509,365.8418 1045.264,365.3843 1052.4,364.8923 1059.226,364.4094 1066.67,363.8621 1073.217,363.3603 1081.087,362.7295 1087.816,362.1648 1094.693,361.5585 1102.196,360.8608 1109.971,360.1038 1116.819,359.4242 1124.422,358.6789 " style="fill:none;stroke:red;stroke-width:4" /></svg>